<?xml version="1.0" standalone="no"?>
<!DOCTYPE svg PUBLIC "-//W3C//DTD SVG 1.1//EN" "http://www.w3.org/Graphics/SVG/1.1/DTD/svg11.dtd" >
<svg>
<metadata>
Created by FontForge 20090914 at Thu Sep 15 10:40:59 2016
 By www-data
Copyright (c) ParaGraph, 1990-1996. All Rights Reserved. ITC Studio Script is a registered trade mark of International Typeface Corporation.
</metadata>
<defs>
<font id="StudioScriptTT-Regular" horiz-adv-x="303" >
  <font-face 
    font-family="StudioScriptTT"
    font-weight="400"
    font-stretch="normal"
    units-per-em="1000"
    panose-1="0 0 0 0 0 0 0 0 0 0"
    ascent="800"
    descent="-200"
    x-height="310.999"
    cap-height="754.001"
    bbox="-319.999 -377.135 1615 1009"
    underline-thickness="40"
    underline-position="-60"
    unicode-range="U+0020-U+F105"
  />
<missing-glyph horiz-adv-x="450" 
d="M50 0v512h400v-512h-400zM58 8h384v496h-384v-496z" />
    <glyph glyph-name=".notdef" horiz-adv-x="450" 
d="M50 0v512h400v-512h-400zM58 8h384v496h-384v-496z" />
    <glyph glyph-name="space" unicode=" " horiz-adv-x="233" 
 />
    <glyph glyph-name="space" unicode="&#x45d;" horiz-adv-x="233" 
 />
    <glyph glyph-name="space" unicode="&#x40d;" horiz-adv-x="233" 
 />
    <glyph glyph-name="space" unicode="&#xa0;" horiz-adv-x="233" 
 />
    <glyph glyph-name="exclam" unicode="!" horiz-adv-x="368" 
d="M300 665c7.33301 0 13.5029 -2.49805 18.5029 -7.49805s7.5 -12.167 7.5 -21.5c0 -11.333 -2.83301 -25.666 -8.5 -42.999s-14.834 -41.666 -27.501 -72.999c-77.333 -188.667 -117 -286.667 -119 -294s-3.33301 -13 -4 -17c-14 -54.667 -20.5 -81.334 -19.5 -80.001
l1.5 2c-6 -6.66699 -13.5 -9.83398 -22.5 -9.50098s-15.5 3.16602 -19.5 8.49902c-4.66699 4.66699 -6.83398 13 -6.50098 25s3.16602 27.333 8.49902 46c6 23.333 12.167 44.666 18.5 63.999s33.833 87 82.5 203c56 134.667 81.667 199.5 77 194.5s-6 -6.83301 -4 -5.5
c2.66699 2.66699 5.5 4.66699 8.5 6s5.83301 2 8.5 2zM99.0029 67.002c10.667 0 20.333 -4.33203 29 -12.999s13 -19.334 13 -32.001c0 -18 -4.83301 -32.167 -14.5 -42.5s-22.167 -15.5 -37.5 -15.5c-14 0 -25 3.83301 -33 11.5s-12 17.5 -12 29.5c0 14.667 6 28.667 18 42
s24.333 20 37 20z" />
    <glyph glyph-name="quotedbl" unicode="&#x22;" horiz-adv-x="402" 
d="M175 690c3.33301 0 6.33203 -0.5 8.99902 -1.5s5.33398 -1.83301 8.00098 -2.5c4.66699 -3.33301 8 -8.66602 10 -15.999s1.66699 -23.333 -1 -48c-4.66699 -32.667 -7 -56 -7 -70s1 -28.667 3 -44c2 -26 0.666992 -42.333 -4 -49s-12.667 -10 -24 -10
c-10.667 -0.666992 -18.167 2.5 -22.5 9.5s-6.5 23.167 -6.5 48.5c0 7.33301 0.166992 18.333 0.5 33s0.833008 25.334 1.5 32.001c0.666992 68.667 1.66699 104.167 3 106.5s3 4.16602 5 5.49902s5.16699 2.66602 9.5 3.99902s9.5 2 15.5 2zM282.999 691
c6 0 10.666 -0.50293 13.999 -1.50293s6.33301 -2.16699 9 -3.5c4.66699 -4.66699 7.66699 -10.5 9 -17.5s0.333008 -19.833 -3 -38.5c-4 -17.333 -6.5 -38.166 -7.5 -62.499s-0.833008 -44.833 0.5 -61.5c1.33301 -27.333 -0.5 -45.166 -5.5 -53.499
s-13.5 -12.5 -25.5 -12.5c-7.33301 0 -13.166 2.33301 -17.499 7s-7.16602 12 -8.49902 22c-1.33301 3.33301 -2 7.33301 -2 12s0.666992 14 2 28c0.666992 14 1.66699 36.333 3 67s2 51.667 2 63c-0.666992 14.667 0 24.834 2 30.501s5.33301 10.5 10 14.5
c2 2 4.66699 3.66699 8 5s6.66602 2 9.99902 2z" />
    <glyph glyph-name="numbersign" unicode="#" horiz-adv-x="634" 
d="M296 428l134.999 1.00293c24 65.333 35.833 97.666 35.5 96.999s-0.166016 -0.333984 0.500977 0.999023c20.667 55.333 34.5 87 41.5 95s14.5 12.333 22.5 13c10.667 -0.666992 18 -6.33398 22 -17.001s2.66699 -23.667 -4 -39c-38 -84 -58 -129 -60 -135l-5 -15
c43.333 1.33301 69.333 1.33301 78 0s16.667 -3.66602 24 -6.99902c5.33301 -3.33301 9.66602 -7.5 12.999 -12.5s5 -12.833 5 -23.5c0 -4.66699 -2.16699 -9 -6.5 -13s-8.5 -6 -12.5 -6s-7.66699 0.166992 -11 0.5s-6.66602 1.16602 -9.99902 2.49902
c-9.33301 2 -19.166 3.5 -29.499 4.5s-33.5 0.833008 -69.5 -0.5l-36 -123l35 -2c31.333 -2 51.666 -4.5 60.999 -7.5s16.666 -7.16699 21.999 -12.5c10 -12 13 -23 9 -33s-11 -15 -21 -15c-3.33301 -0.666992 -13.666 2.16602 -30.999 8.49902s-47 9.5 -89 9.5l-14 -65
c-4.66699 -20 -7.33398 -32.5 -8.00098 -37.5s-1.33398 -10.5 -2.00098 -16.5s-0.833984 -14.833 -0.500977 -26.5s-0.166992 -20.5 -1.5 -26.5c-2.66699 -8 -6 -13.5 -10 -16.5s-11.667 -4.16699 -23 -3.5c-9.33301 0 -16.166 3.83301 -20.499 11.5s-6.5 18.167 -6.5 31.5
c0 4 0.166992 8.16699 0.5 12.5s10.833 51.166 31.5 140.499c-23.333 0.666992 -46.333 0.5 -69 -0.5s-45 -2.5 -67 -4.5l-23 -102c-3.33301 -13.333 -3.16602 -29.666 0.500977 -48.999s2.16699 -32.666 -4.5 -39.999c-10.667 -10.667 -23 -13.5 -37 -8.5
s-21 18.5 -21 40.5c0 10 3.5 32.167 10.5 66.5s14.167 64.5 21.5 90.5c-36 -1.33301 -57.833 -2.16602 -65.5 -2.49902s-14.5 -0.166016 -20.5 0.500977c-14 0 -24.833 2.33301 -32.5 7s-11.5 12.667 -11.5 24c0 6 1.16699 11.5 3.5 16.5s5.83301 8.83301 10.5 11.5
c0.666992 0 -1.83301 -1.16699 -7.5 -3.5s40.5 -0.833008 138.5 4.5l36 113l-42 -1c-40.667 -1.33301 -66 1.83398 -76 9.50098s-14.667 19.5 -14 35.5c-0.666992 8.66699 1.5 16 6.5 22s11.5 9 19.5 9c12.667 -0.666992 25.334 -3.83398 38.001 -9.50098
s28.334 -7.83398 47.001 -6.50098l39 2l46 137c8.66699 26 16 43 22 51s13.333 12 22 12c9.33301 0 15.666 -3.83301 18.999 -11.5s3 -17.834 -1 -30.501zM276.999 370.003l-38 -117l136 2l36 120z" />
    <glyph glyph-name="dollar" unicode="$" horiz-adv-x="406" 
d="M199 521l44.001 5.99414c30 73.333 45 109.833 45 109.5s1.33301 0.833984 4 3.50098c7.33301 6 15.333 8 24 6s13 -8.66699 13 -20c0 -2 -0.166992 -3.83301 -0.5 -5.5s-12.833 -36.167 -37.5 -103.5c14.667 -6.66699 28.167 -15.667 40.5 -27s21.833 -23.333 28.5 -36
c5.33301 -12 8.33301 -23.667 9 -35s-2.66602 -30.333 -9.99902 -57c-7.33301 -23.333 -17.166 -38.666 -29.499 -45.999s-22.833 -6 -31.5 4c-4.66699 4 -6.83398 10 -6.50098 18s3.83301 18.667 10.5 32c4 8 7 16 9 24s3 16.667 3 26c0 16.667 -8 31.5 -24 44.5
s-35.333 19.5 -58 19.5c-29.333 0 -57.333 -11.833 -84 -35.5s-40 -48.167 -40 -73.5c0 -12 3.33301 -23.5 10 -34.5s36.667 -35.5 90 -73.5c46 -32 74.167 -54.5 84.5 -67.5s15.5 -24.833 15.5 -35.5c-0.666992 -20 -13.834 -38 -39.501 -54s-57.834 -22.333 -96.501 -19
c-38 -67.333 -54.5 -100.666 -49.5 -99.999s6.16699 0.666992 3.5 0c-6 0 -10.167 1.83301 -12.5 5.5s-3.5 11.834 -3.5 24.501c0 12 1 24.167 3 36.5s5.66699 25.166 11 38.499c-21.333 4.66699 -39.5 11.834 -54.5 21.501s-26.5 20.834 -34.5 33.501
c-6 8.66699 -9.16699 16.667 -9.5 24s2.5 13.666 8.5 18.999s11.333 8.5 16 9.5s18.667 -12.833 42 -41.5c6 -8 15 -14.667 27 -20s25 -8.66602 39 -9.99902c4.66699 -0.666992 9.5 -1 14.5 -1s10.833 0.333008 17.5 1c23.333 1.33301 40.666 4.83301 51.999 10.5
s17 12.5 17 20.5c0 1.33301 -0.5 3 -1.5 5s-3.16699 5.33301 -6.5 10c-5.33301 6 -12.166 12.333 -20.499 19s-25.5 18.667 -51.5 36c-23.333 14.667 -41.333 27 -54 37s-24 20.667 -34 32c-22 23.333 -32.833 48.5 -32.5 75.5s11.833 53.833 34.5 80.5
c12 14 28 27.333 48 40s39.333 20.334 58 23.001z" />
    <glyph glyph-name="percent" unicode="%" horiz-adv-x="642" 
d="M287 648c24.667 0 44.9912 -6.00293 60.9912 -18.0029s27.667 -31 35 -57c4 -16 5.5 -33.667 4.5 -53s-3.83301 -37.333 -8.5 -54c20.667 4.66699 39.334 11 56.001 19s39.334 23 68.001 45c12 9.33301 22.167 15 30.5 17s15.5 0.666992 21.5 -4
c5.33301 -5.33301 7.5 -11.166 6.5 -17.499s-4.83301 -13.5 -11.5 -21.5c-8 -10 -18.667 -21.667 -32 -35l-25 -25l-17.5 -19.5c-6.33301 -7 -14.166 -16.167 -23.499 -27.5l-124 -150.5l-58 -72.5c-36.667 -48.667 -60.167 -80.5 -70.5 -95.5s-16.5 -26.5 -18.5 -34.5
c-9.33301 -30.667 -18.666 -49.334 -27.999 -56.001s-19.666 -5 -30.999 5c-8 6.66699 -11.5 14.834 -10.5 24.501s6.83301 22.167 17.5 37.5l75 107l226 279c-11.333 -4.66699 -22.666 -8.66699 -33.999 -12s-22.333 -6.33301 -33 -9c-34 -66 -77.833 -112.667 -131.5 -140
s-100.5 -29.666 -140.5 -6.99902c-18.667 10 -33.167 24.667 -43.5 44s-15.5 40.666 -15.5 63.999c0 28.667 6.5 55.334 19.5 80.001s31.5 44.334 55.5 59.001c6.66699 20 15.834 37.167 27.501 51.5s26.834 27.833 45.501 40.5c17.333 12 34.833 21 52.5 27
s35.834 9 54.501 9zM284.991 611.997c-14.667 0 -29.666 -3.66699 -44.999 -11s-30 -18 -44 -32c-12.667 -12.667 -22.334 -25.5 -29.001 -38.5s-9.66699 -25.5 -9 -37.5c0 -17.333 6.83301 -30.5 20.5 -39.5s33.5 -13.167 59.5 -12.5c23.333 0 41 1 53 3
s23.667 5.33301 35 10c6 10.667 10.5 21.667 13.5 33s4.5 25.333 4.5 42c0 27.333 -5.83301 48 -17.5 62s-25.5 21 -41.5 21zM108.992 460.997c-12 -11.333 -20.501 -23.998 -25.501 -37.998s-7.5 -28.667 -7.5 -44c0 -32 11.833 -55.333 35.5 -70
s50.5 -16.334 80.5 -5.00098c22.667 8 43.834 21.667 63.501 41s35.5 40.666 47.5 63.999c-42 -14 -81.667 -16 -119 -6s-62.333 29.333 -75 58zM488.991 287.999c28 0 50.332 -10.3291 66.999 -30.9961s25 -50.334 25 -89.001c0 -36.667 -10 -73.834 -30 -111.501
s-46.333 -66.834 -79 -87.501c-43.333 -26.667 -86 -31.334 -128 -14.001s-63 54 -63 110c0 26.667 4.83301 51.167 14.5 73.5s23.834 43.5 42.501 63.5c21.333 22.667 46.5 42.667 75.5 60s54.167 26 75.5 26zM489.99 245.003c-17.333 0 -39.8311 -9.66797 -67.498 -29.001
s-49.834 -40 -66.501 -62c-29.333 -38 -40 -75.167 -32 -111.5s30 -54.5 66 -54.5c23.333 0 46.666 8.83301 69.999 26.5s42 41.834 56 72.501c6 14 11.167 29.167 15.5 45.5s6.5 31.5 6.5 45.5c0 20.667 -4 37 -12 49s-20 18 -36 18z" />
    <glyph glyph-name="ampersand" unicode="&#x26;" horiz-adv-x="825" 
d="M497 644c56.667 -0.666992 99.166 -9.50391 127.499 -26.5039s42.5 -38.167 42.5 -63.5c0 -37.333 -19.333 -71.166 -58 -101.499s-73.667 -45.5 -105 -45.5c-10.667 -0.666992 -18.5 1 -23.5 5s-7.5 9 -7.5 15c0 0.666992 -0.166992 0.333984 -0.5 -0.999023
s24.5 10.334 74.5 35.001c18.667 9.33301 35.834 22.5 51.501 39.5s23.5 33.5 23.5 49.5c0 16.667 -10.667 29.834 -32 39.501s-53.333 14.5 -96 14.5c-72 0 -135.333 -12.833 -190 -38.5s-82 -54.167 -82 -85.5c0 -22.667 11.667 -42.667 35 -60s60.333 -30 111 -38
c44.667 -8 70.334 -13.333 77.001 -16s11.334 -5.66699 14.001 -9c2.66699 -4.66699 3.83398 -11.334 3.50098 -20.001s-1.5 -14 -3.5 -16c-0.666992 -0.666992 -0.666992 -0.833984 0 -0.500977s-19.333 0.833008 -60 1.5c-40.667 0 -89.334 -11.333 -146.001 -34
s-98.334 -48.334 -125.001 -77.001c-22 -23.333 -34 -47.666 -36 -72.999s7 -48.333 27 -69c14.667 -16.667 37.834 -29 69.501 -37s69.167 -12 112.5 -12c62.667 0 124.167 13.333 184.5 40s90.5 56 90.5 88c0 20.667 -14.167 35.5 -42.5 44.5s-79.166 10.167 -152.499 3.5
c-16.667 -2 -27.5 -3.33301 -32.5 -4s-9.5 -1.33398 -13.5 -2.00098c-20 -4.66699 -31.5 -7.16699 -34.5 -7.5s-5.83301 -0.5 -8.5 -0.5c-10 0 -17.667 2.5 -23 7.5s-8 12.5 -8 22.5c0 10.667 3.83301 18.334 11.5 23.001s21.5 6.66699 41.5 6
c7.33301 -0.666992 15.166 -1 23.499 -1s71.5 6.33301 189.5 19c20.667 2 48.834 3.83301 84.501 5.5s67.167 2.5 94.5 2.5c15.333 0 30.833 -3.66699 46.5 -11s23.5 -16 23.5 -26c0 -6.66699 -2 -12.167 -6 -16.5s-8.66699 -6.16602 -14 -5.49902
c-2 0 -3.83301 0.166992 -5.5 0.5s-7.5 3.16602 -17.5 8.49902c-7.33301 3.33301 -15 5.5 -23 6.5s-20 1.83301 -36 2.5c-26.667 0 -47.334 -0.5 -62.001 -1.5s-30.334 -2.5 -47.001 -4.5c18 -6.66699 32.5 -16.667 43.5 -30s16.5 -26.666 16.5 -39.999
c-0.666992 -15.333 -5.66699 -30.833 -15 -46.5s-23 -30.167 -41 -43.5c-38 -28.667 -81.333 -50.167 -130 -64.5s-96.667 -21.5 -144 -21.5c-74.667 0.666992 -134.5 15.334 -179.5 44.001s-67.167 67 -66.5 115c0 46 20.667 86.833 62 122.5s106.666 68.167 195.999 97.5
c-38.667 9.33301 -71 26.333 -97 51s-38.667 49.667 -38 75c0 42 32.333 80 97 114s140.667 51 228 51z" />
    <glyph glyph-name="quotesingle" unicode="'" horiz-adv-x="254" 
d="M145 695c4 0 6.83398 -0.168945 8.50098 -0.501953s3.16699 -0.5 4.5 -0.5c6 -2 10.5 -5 13.5 -9s4.5 -10.667 4.5 -20c-0.666992 -1.33301 -0.833984 -1.66602 -0.500977 -0.999023s-3.16699 -30 -10.5 -92c-0.666992 -2.66699 -1 -4.16699 -1 -4.5
s1.33301 -28.166 4 -83.499c0 -12.667 -2.66699 -21.667 -8 -27s-13 -8 -23 -8s-17.333 2.83301 -22 8.5s-7 13.167 -7 22.5c0 4 0.833008 13.167 2.5 27.5s2.83398 30.5 3.50098 48.5c0 13.333 -0.166992 27.333 -0.5 42s-0.5 28 -0.5 40s1 22.167 3 30.5
s5.66699 14.833 11 19.5c2 2 4.66699 3.66699 8 5s6.66602 2 9.99902 2z" />
    <glyph glyph-name="parenleft" unicode="(" horiz-adv-x="366" 
d="M316 723c4.66699 0 8.99902 -2.33398 12.999 -7.00098s6 -10.334 6 -17.001c0 -12 -16.667 -36.833 -50 -74.5s-61.333 -76.834 -84 -117.501c-44 -78.667 -75.667 -151.5 -95 -218.5s-29 -129.5 -29 -187.5c-0.666992 -37.333 3.66602 -68.166 12.999 -92.499
s24.333 -43.833 45 -58.5c6 -4 17.5 -8 34.5 -12s25.5 -11.333 25.5 -22c0 -4.66699 -3.16699 -8.66699 -9.5 -12s-15.5 -5 -27.5 -5c-13.333 0.666992 -26.666 4.5 -39.999 11.5s-26.666 17.833 -39.999 32.5c-18.667 20.667 -32 44.167 -40 70.5s-12 56.833 -12 91.5
c0 72.667 16 154.334 48 245.001s74 173.334 126 248.001c10.667 22 29.5 48.167 56.5 78.5s46.833 45.833 59.5 46.5z" />
    <glyph glyph-name="parenright" unicode=")" horiz-adv-x="385" 
d="M206 688c0 5.33301 1.66602 10.168 4.99902 14.501s8.66602 6.5 15.999 6.5c30.667 -0.666992 60.834 -24.334 90.501 -71.001s44.5 -99.667 44.5 -159c0 -80 -20.167 -169.333 -60.5 -268s-88.166 -176 -143.499 -232c-18.667 -18 -35.167 -32.167 -49.5 -42.5
s-24.833 -15.5 -31.5 -15.5c-8 0 -13.333 0.666992 -16 2s-5 3.33301 -7 6c-2.66699 4 -3.16699 8.16699 -1.5 12.5s8.16699 10.5 19.5 18.5c60 44 114.5 119.5 163.5 226.5s73.5 204.5 73.5 292.5c0 58 -17.167 106.333 -51.5 145s-51.5 60 -51.5 64z" />
    <glyph glyph-name="asterisk" unicode="*" horiz-adv-x="567" 
d="M312 650l40.0049 36.999c26.667 24.667 46.5 42.334 59.5 53.001s24.833 19 35.5 25c18.667 10 34.167 11.167 46.5 3.5s13.166 -18.5 2.49902 -32.5c-3.33301 -4 -14.333 -10.833 -33 -20.5s-43.334 -27.5 -74.001 -53.5l-33 -28c38 2.66699 56 3.83398 54 3.50098
s-2.33301 -0.166016 -1 0.500977c20.667 2 35 2.33301 43 1s14.333 -4.33301 19 -9c4.66699 -5.33301 7 -11.833 7 -19.5s-3 -13.834 -9 -18.501c-1.33301 -1.33301 -1.33301 -1.5 0 -0.5s-41.334 1.83301 -128.001 2.5c5.33301 -12 12.833 -23 22.5 -33
s20.834 -17.333 33.501 -22c28.667 -12.667 43.167 -19.667 43.5 -21s0.5 -2.33301 0.5 -3c0 -7.33301 -3.33301 -13 -10 -17s-15.334 -6 -26.001 -6c-20.667 -0.666992 -41 6.83301 -61 22.5s-35.333 36.167 -46 61.5c-17.333 -17.333 -33 -34.5 -47 -51.5
s-24.333 -31.167 -31 -42.5c-8 -12.667 -14 -20.334 -18 -23.001s-8.66699 -3.66699 -14 -3c-8.66699 0 -15.334 2.16699 -20.001 6.5s-7 9.83301 -7 16.5c0 2 0.166992 4.16699 0.5 6.5s30.166 36.5 89.499 102.5c-42 -4 -71.833 -2.66699 -89.5 4s-26.5 17.667 -26.5 33
c0 10.667 4.5 18.667 13.5 24s24.167 8.33301 45.5 9c6.66699 0 11.167 -1 13.5 -3s4.83301 -5.66699 7.5 -11c2.66699 -8 5.33398 -12.833 8.00098 -14.5s7.33398 -2.16699 14.001 -1.5l32 1c-10.667 24 -18.334 45.333 -23.001 64s-7 36 -7 52c0 9.33301 3 17 9 23
s13.667 9 23 9c11.333 0 19.5 -3.33301 24.5 -10s7.16699 -22.334 6.5 -47.001c-0.666992 -12.667 -0.333984 -24.667 0.999023 -36s4.33301 -22.666 9 -33.999z" />
    <glyph glyph-name="plus" unicode="+" horiz-adv-x="442" 
d="M160 227l12.0039 44.002c-36.667 -2.66699 -57.667 -4 -63 -4h-20c-28.667 0 -46.334 1.83301 -53.001 5.5s-10 9.5 -10 17.5c0 9.33301 4 16.5 12 21.5s29 6.16699 63 3.5c9.33301 -1.33301 22 -1.83301 38 -1.5s31.333 1.16602 46 2.49902
c4.66699 18.667 10.667 40.667 18 66s13 43 17 53c6 16.667 13 29.334 21 38.001s15.667 13 23 13c4.66699 0 8.33398 -1.16699 11.001 -3.5s4 -5.5 4 -9.5c0 -2 -0.166992 -3 -0.5 -3s-15.833 -50.667 -46.5 -152c11.333 0 22.666 0.166992 33.999 0.5
s38.666 0.5 81.999 0.5c8.66699 -0.666992 15.667 -2.66699 21 -6s8 -8.33301 8 -15c0 -9.33301 -3.16699 -16.333 -9.5 -21s-14.5 -7 -24.5 -7h-15c-5.33301 0 -12 0.666992 -20 2c-10 0.666992 -20.167 1 -30.5 1h-58.5c-12 -46 -22 -81.333 -30 -106
s-15.333 -41.334 -22 -50.001s-13.834 -14.334 -21.501 -17.001s-13.834 -2 -18.501 2c-4 2.66699 -5.83301 7.5 -5.5 14.5s2.83301 15.833 7.5 26.5l19 49c5.33301 14 9.33301 25.667 12 35z" />
    <glyph glyph-name="comma" unicode="," horiz-adv-x="237" 
d="M109 1l-51 -61.002c-5.33301 -6 -12.333 -15.667 -21 -29s-14.667 -23.666 -18 -30.999c-7.33301 -14 -13.5 -22.5 -18.5 -25.5s-11.167 -4.5 -18.5 -4.5c-6 0.666992 -11 2.33398 -15 5.00098s-6 6 -6 10c0 2.66699 0.833008 5.5 2.5 8.5s4.16699 7.83301 7.5 14.5
c37.333 66.667 69.5 114.667 96.5 144s49.833 40.666 68.5 33.999c4 -2 7 -4.66699 9 -8s3.33301 -7.33301 4 -12c0 -6 -3.33301 -12.667 -10 -20s-16.667 -15.666 -30 -24.999z" />
    <glyph glyph-name="hyphenminus" unicode="-" horiz-adv-x="304" 
d="M194 244c2 -0.666992 4.50195 -1.16602 7.50195 -1.49902s6.83301 -0.833008 11.5 -1.5c11.333 -3.33301 18.333 -9.66602 21 -18.999s1.33398 -17 -3.99902 -23c-4 -4 -8.33301 -6.83301 -13 -8.5s-12.667 -1.5 -24 0.5c-5.33301 0 -10.5 0.166992 -15.5 0.5
s-13.5 0.166016 -25.5 -0.500977c-53.333 -3.33301 -82.666 -4.5 -87.999 -3.5s-9.33301 2.83301 -12 5.5c-4.66699 3.33301 -7.33398 8 -8.00098 14s0.666016 11.667 3.99902 17s7.66602 9.16602 12.999 11.499s14 3.5 26 3.5c18 -0.666992 28.5 -1 31.5 -1
s5.83301 0.333008 8.5 1c11.333 0 23.666 0.833008 36.999 2.5s23.333 2.5 30 2.5z" />
    <glyph glyph-name="period" unicode="." horiz-adv-x="234" 
d="M84 40c6.66699 0 12.666 -0.995117 17.999 -2.99512s10 -4.33301 14 -7c4.66699 -4.66699 7.83398 -9.33398 9.50098 -14.001s1.5 -9.33398 -0.5 -14.001c-2.66699 -4.66699 -7.33398 -9.83398 -14.001 -15.501s-13 -10.167 -19 -13.5
c-8.66699 -3.33301 -18.167 -4.5 -28.5 -3.5s-18.166 4.16699 -23.499 9.5c-6 5.33301 -9.16699 11.666 -9.5 18.999s2.5 14.666 8.5 21.999c4.66699 5.33301 11 10 19 14s16.667 6 26 6z" />
    <glyph glyph-name="slash" unicode="/" horiz-adv-x="571" 
d="M480 688c15.333 0 23.8291 -7.50586 25.4961 -22.5059s-3.5 -33.5 -15.5 -55.5c-184 -336.667 -291.667 -539.667 -323 -609s-57.666 -136.666 -78.999 -201.999c-11.333 -34 -18.166 -52.833 -20.499 -56.5s-4.5 -6.83398 -6.5 -9.50098
c-6 -4.66699 -13.167 -7.16699 -21.5 -7.5s-14.833 1.83398 -19.5 6.50098s-7.16699 10.334 -7.5 17.001s1.83398 15.334 6.50098 26.001c46.667 122 78.167 200.333 94.5 235l61.5 125c56.667 112.667 113.334 217.834 170.001 315.501s87.667 158.834 93 183.501
c4.66699 22.667 10 37.334 16 44.001s14.667 10 26 10z" />
    <glyph glyph-name="zero" unicode="0" horiz-adv-x="645" 
d="M370 598c13.333 0 24.832 -1.66602 34.499 -4.99902s18.167 -9 25.5 -17c56 -16.667 101 -47.334 135 -92.001s51 -94.667 51 -150c0 -105.333 -40.833 -193 -122.5 -263s-170.167 -105.333 -265.5 -106c-69.333 0 -124.666 16.667 -165.999 50s-62 82 -62 146
c0 97.333 43 194.5 129 291.5s166.333 145.5 241 145.5zM324.999 530.001l-44 -18.001c-28.667 -12 -62.5 -40.167 -101.5 -84.5s-69.167 -86.5 -90.5 -126.5c-27.333 -50 -41.166 -96.167 -41.499 -138.5s12.5 -77.833 38.5 -106.5c14.667 -17.333 33.167 -30 55.5 -38
s50.5 -12 84.5 -12c38 0 75.167 7.5 111.5 22.5s74.833 40.5 115.5 76.5c53.333 46.667 87.166 99.834 101.499 159.501s6.5 118.167 -23.5 175.5c-10 17.333 -19.833 31 -29.5 41s-30.5 25.333 -62.5 46c-9.33301 -2 -18.166 -2.33301 -26.499 -1s-16.166 5 -23.499 11
c-10.667 -1.33301 -21.334 -2.5 -32.001 -3.5s-21.334 -2.16699 -32.001 -3.5z" />
    <glyph glyph-name="one" unicode="1" horiz-adv-x="509" 
d="M340 599c2.66699 3.33301 6.33105 6.33105 10.998 8.99805s9.33398 4 14.001 4c8 0 14.833 -2.83301 20.5 -8.5s8.5 -12.167 8.5 -19.5c0 -3.33301 -0.333008 -6.66602 -1 -9.99902s-17.334 -45 -50.001 -125c-25.333 -62 -54 -140.667 -86 -236
s-49.333 -158.666 -52 -189.999c-2 -17.333 -5.83301 -28.833 -11.5 -34.5s-13.5 -8.83398 -23.5 -9.50098c-12.667 0 -21 5.16699 -25 15.5s-2.66699 26.5 4 48.5l32.5 111c9 30 47.5 136 115.5 318c-33.333 -26 -59.5 -44.167 -78.5 -54.5s-34.5 -15.5 -46.5 -15.5
c-9.33301 0 -16.166 2.33301 -20.499 7s-6.5 10.667 -6.5 18c0 0.666992 -0.5 -1 -1.5 -5s30.5 17 94.5 63c10.667 8 15.834 11.833 15.501 11.5s28.5 33.834 86.5 102.501z" />
    <glyph glyph-name="two" unicode="2" horiz-adv-x="636" 
d="M466 635c70 0 122.83 -15.335 158.497 -46.002s46.167 -72.667 31.5 -126c-10 -34.667 -32.667 -74.167 -68 -118.5s-83 -90.833 -143 -139.5c-25.333 -20.667 -54.5 -42.334 -87.5 -65.001s-65.167 -43.334 -96.5 -62.001
c53.333 2.66699 99.166 -2.16602 137.499 -14.499s57.5 -27.166 57.5 -44.499c0 -9.33301 -2 -16.833 -6 -22.5s-9 -8.5 -15 -8.5c-9.33301 0 -16.833 1.83301 -22.5 5.5s-12.167 10.5 -19.5 20.5c-4.66699 7.33301 -13.5 12.5 -26.5 15.5s-31.5 4.5 -55.5 4.5
c-33.333 0 -71.166 -3.83301 -113.499 -11.5s-78.166 -16.834 -107.499 -27.501c-26 -8.66699 -45.333 -11.834 -58 -9.50098s-19 9.5 -19 21.5c0 4.66699 1.33301 9 4 13s41 18.667 115 44c20.667 6.66699 50 20.334 88 41.001s70.333 40.334 97 59.001
c68 46.667 127 94.334 177 143.001s85 93.334 105 134.001c28 57.333 20.333 100.166 -23 128.499s-113.666 32.833 -210.999 13.5c-54 -11.333 -103.167 -29.833 -147.5 -55.5s-77.166 -53.167 -98.499 -82.5c-29.333 -40 -35.333 -75 -18 -105s50 -45 98 -45
c4 0 10.833 0.333008 20.5 1s17.167 1 22.5 1c12 -0.666992 20 -2.16699 24 -4.5s6 -6.16602 6 -11.499c0 -8.66699 -5.83301 -15 -17.5 -19s-33.5 -6 -65.5 -6c-68 0 -112.5 21 -133.5 63s-16.833 86.667 12.5 134c24 38.667 61.833 73 113.5 103s106.5 51.667 164.5 65
c20 4 40 7.33301 60 10s40 4 60 4z" />
    <glyph glyph-name="three" unicode="3" horiz-adv-x="729" 
d="M455 664c49.333 0 86.835 -2.66797 112.502 -8.00098s47.5 -12.666 65.5 -21.999c18.667 -10.667 32.834 -23.5 42.501 -38.5s14.5 -32.833 14.5 -53.5c0 -35.333 -19.833 -71.166 -59.5 -107.499s-94.5 -69.833 -164.5 -100.5c81.333 -12 137.5 -38.5 168.5 -79.5
s29.5 -86.167 -4.5 -135.5c-33.333 -48.667 -94 -84.667 -182 -108s-174.333 -27.333 -259 -12c-61.333 10.667 -108.166 28.667 -140.499 54s-48.5 54.333 -48.5 87c0 20 8 39 24 57s32.667 27 50 27c10.667 -0.666992 17.834 -4.5 21.501 -11.5
s1.16699 -14.833 -7.5 -23.5c-24.667 -26 -37.334 -40.667 -38.001 -44s-1 -6 -1 -8c0 -18.667 11.167 -36.834 33.5 -54.501s54.833 -31.167 97.5 -40.5c69.333 -16 148.166 -13.167 236.499 8.5s147.166 56.167 176.499 103.5c25.333 42 11.5 77.167 -41.5 105.5
s-124.833 37.166 -215.5 26.499c-52 -6.66699 -84 -7.16699 -96 -1.5s-18 14.834 -18 27.501c0 7.33301 3 12.833 9 16.5s15 6.16699 27 7.5c74 4 109.5 5.83301 106.5 5.5s-3.16699 -0.166016 -0.5 0.500977c39.333 8 89.666 30.333 150.999 67s100 70.667 116 102
c20.667 42 8.33398 74 -36.999 96s-110 26.333 -194 13c-49.333 -8 -95.333 -22.667 -138 -44s-71.334 -45 -86.001 -71c-19.333 -33.333 -7.33301 -56.333 36 -69s65 -21.667 65 -27c0 -6.66699 -3 -11.834 -9 -15.501s-14.333 -5.5 -25 -5.5
c-45.333 0 -81.833 14.5 -109.5 43.5s-27.834 63.5 -0.500977 103.5c15.333 22.667 40 43.5 74 62.5s73 34.5 117 46.5c26 6.66699 49.5 11.5 70.5 14.5s41.167 4.83301 60.5 5.5z" />
    <glyph glyph-name="four" unicode="4" horiz-adv-x="663" 
d="M563 657c8.66699 0 16.168 -2.66992 22.501 -8.00293s9.5 -11.666 9.5 -18.999c0 -20 -11.333 -61.167 -34 -123.5s-65.334 -168.833 -128.001 -319.5c28 0.666992 58 2.16699 90 4.5s52.333 3.5 61 3.5c12.667 0 22 -2.5 28 -7.5s9 -11.833 9 -20.5
c0 -7.33301 -3.16699 -12.666 -9.5 -15.999s-15.5 -5 -27.5 -5c-6 -0.666992 -14 -0.666992 -24 0s-17.333 1 -22 1c-42 0 -69.667 -0.5 -83 -1.5s-26.333 -2.16699 -39 -3.5c-17.333 -44.667 -26.5 -70 -27.5 -76s-1.5 -11.667 -1.5 -17v-15
c0 -1.33301 0.333008 -2.66602 1 -3.99902c2.66699 -14.667 4 -22.167 4 -22.5s0.333008 -0.5 1 -0.5c0 -5.33301 -3 -10.666 -9 -15.999s-12.333 -8 -19 -8c-12 0 -21.333 4 -28 12s-10 19.333 -10 34c-0.666992 10 3 26.5 11 49.5s16.333 43.833 25 62.5
c-120.667 -6 -181.5 -9 -182.5 -9h-4.5c-76.667 0 -125.167 5.33301 -145.5 16s-30.5 27.334 -30.5 50.001c0 23.333 18 54.666 54 93.999s97 93.666 183 162.999c62 50 126.333 96.167 193 138.5s111 63.5 133 63.5zM381.001 183.997
c79.333 190.667 125.835 304 139.502 340s20.5 59.667 20.5 71c0 2 -0.333008 3.5 -1 4.5l-1 1.5c-6 0 -12.5 -1.66699 -19.5 -5s-15.5 -8 -25.5 -14c-82 -51.333 -176 -121.333 -282 -210s-159 -146 -159 -172c0 -8.66699 4.66699 -15 14 -19s35.666 -6 78.999 -6
c22.667 -0.666992 58.667 0 108 2s91.666 4.33301 126.999 7z" />
    <glyph glyph-name="five" unicode="5" horiz-adv-x="656" 
d="M163 591c1.33301 3.33301 3.00293 6.66699 5.00293 10s4 7 6 11c-8 0 -14 2.16699 -18 6.5s-6 9.83301 -6 16.5c-0.666992 5.33301 2.16602 9.83301 8.49902 13.5s14.833 5.5 25.5 5.5c6 -0.666992 15.167 -2.33398 27.5 -5.00098s21.833 -4 28.5 -4
c62.667 0 101.5 0.333008 116.5 1s30.833 2 47.5 4c84.667 7.33301 126.667 10.833 126 10.5s5.33301 -0.166016 18 0.500977c16 0 27.167 -2.16699 33.5 -6.5s9.5 -10.5 9.5 -18.5c0 -7.33301 -2.66699 -12.833 -8 -16.5s-14.333 -5.83398 -27 -6.50098
c-66 -5.33301 -107.333 -8.33301 -124 -9s-36.667 -1 -60 -1c-32 -1.33301 -59 -1.83301 -81 -1.5s-44.333 0.833008 -67 1.5c-21.333 -34.667 -39.833 -70 -55.5 -106s-28.5 -72 -38.5 -108c17.333 5.33301 35.166 9.33301 53.499 12s40.5 4 66.5 4
c31.333 0 60.833 -2.5 88.5 -7.5s55.5 -12.5 83.5 -22.5c47.333 -18.667 83.666 -43.167 108.999 -73.5s38.333 -62.166 39 -95.499c0 -63.333 -35.167 -114.5 -105.5 -153.5s-158.833 -58.833 -265.5 -59.5c-65.333 0 -119.166 8.33301 -161.499 25s-63.5 38 -63.5 64
c0 5.33301 1.83301 10.833 5.5 16.5s7.83398 8.5 12.501 8.5c15.333 0 25 -6.33301 29 -19s9.66699 -21.667 17 -27c12 -8.66699 33 -15.834 63 -21.501s63.333 -8.5 100 -8.5c90 0 166.5 16.833 229.5 50.5s94.5 76.834 94.5 129.501c0 18 -6.5 35.667 -19.5 53
s-30.5 33.333 -52.5 48c-27.333 16.667 -58 30 -92 40s-67 15 -99 15c-28.667 0 -54.834 -3.16699 -78.501 -9.5s-45.834 -16.166 -66.501 -29.499c-14.667 -9.33301 -27 -12.333 -37 -9s-15 12.666 -15 27.999c0 11.333 12 46.333 36 105s44.667 105 62 139z" />
    <glyph glyph-name="six" unicode="6" horiz-adv-x="633" 
d="M461 671c17.333 0 28.1719 -4.49707 32.5049 -13.4971s2.16602 -17.5 -6.50098 -25.5c-2.66699 -2.66699 -5.83398 -4.83398 -9.50098 -6.50098s-14.5 -3.83398 -32.5 -6.50098c-14.667 -2.66699 -29.5 -7.66699 -44.5 -15s-31.167 -17.333 -48.5 -30
c-36.667 -27.333 -71.5 -58 -104.5 -92s-61.167 -68.667 -84.5 -104c28.667 8.66699 60 15.667 94 21s66.333 8 97 8c77.333 -0.666992 136.5 -17.834 177.5 -51.501s61.5 -73.5 61.5 -119.5c0 -60.667 -32.333 -118 -97 -172s-144.667 -81 -240 -81
c-70.667 0 -127.334 17.333 -170.001 52s-64 80.667 -64 138c-0.666992 18 2.5 37.833 9.5 59.5s16.833 43.167 29.5 64.5c-14.667 10 -18.334 21.5 -11.001 34.5s19.666 20.5 36.999 22.5c54 85.333 117.167 159.5 189.5 222.5s133.833 94.5 184.5 94.5zM120.006 314.003
c-14 -20.667 -25.498 -45.001 -34.498 -73.001s-13.5 -55.333 -13.5 -82c0 -41.333 15.833 -74.833 47.5 -100.5s75.167 -38.5 130.5 -38.5c78.667 0 148 21.833 208 65.5s90 91.167 90 142.5c0 40.667 -18.5 73.334 -55.5 98.001s-85.833 37 -146.5 37
c-38.667 0 -77.834 -4.33301 -117.501 -13s-75.834 -20.667 -108.501 -36z" />
    <glyph glyph-name="seven" unicode="7" horiz-adv-x="520" 
d="M47 642c8 0 17.1709 -1.16699 27.5039 -3.5s23.166 -6.16602 38.499 -11.499c15.333 -1.33301 29.666 -1.83301 42.999 -1.5s74.666 3.83301 183.999 10.5c39.333 2 69.833 3.5 91.5 4.5s40.834 1.5 57.501 1.5c30 0 51.5 -7.33301 64.5 -22s14.833 -32.334 5.5 -53.001
c-4 -7.33301 -9.5 -15.666 -16.5 -24.999s-38.833 -41.333 -95.5 -96l-171.5 -170c-50.333 -51.333 -87.833 -91.666 -112.5 -120.999c-30.667 -36 -51.834 -61.833 -63.501 -77.5s-18.834 -27.5 -21.501 -35.5c-10.667 -28.667 -18.167 -44.5 -22.5 -47.5
s-10.5 -4.5 -18.5 -4.5s-14.5 3 -19.5 9s-7.5 14.333 -7.5 25c0 17.333 12.333 43.166 37 77.499s102.667 118.166 234 251.499c151.333 153.333 226.833 230 226.5 230s-0.166016 1.33301 0.500977 4c0 3.33301 -2.83301 6.33301 -8.5 9s-12.834 4 -21.501 4
c-10 0 -21.667 -0.5 -35 -1.5l-112 -8.5c-75.333 -6.66699 -126.166 -10.667 -152.499 -12s-48.833 -2 -67.5 -2c-33.333 0 -58.166 3.66699 -74.499 11s-24.5 18 -24.5 32c-0.666992 5.33301 2.66602 10.5 9.99902 15.5s15.666 7.5 24.999 7.5z" />
    <glyph glyph-name="eight" unicode="8" horiz-adv-x="665" 
d="M444 651c74.667 -0.666992 131.833 -13.501 171.5 -38.501s59.5 -58.833 59.5 -101.5c0 -32.667 -19.5 -61.834 -58.5 -87.501s-126.167 -61.5 -261.5 -107.5c72.667 -45.333 122.5 -83.166 149.5 -113.499s40.5 -60.166 40.5 -89.499
c0 -41.333 -25.667 -74.833 -77 -100.5s-115 -38.5 -191 -38.5c-79.333 0.666992 -145.333 14.5 -198 41.5s-79 62.5 -79 106.5c0 35.333 20.5 70.333 61.5 105s101.5 68 181.5 100c-46.667 34 -81.5 65.167 -104.5 93.5s-34.167 56.166 -33.5 83.499
c0 44.667 33 80.334 99 107.001s146 40 240 40zM440.999 612.999c-80 0 -146.833 -10.6689 -200.5 -32.002s-80.5 -47.666 -80.5 -78.999c0 -25.333 13.5 -52.666 40.5 -81.999s58.833 -53.666 95.5 -72.999c112 34.667 194 65.667 246 93s78 53.666 78 78.999
c0 28.667 -15.667 51.5 -47 68.5s-75.333 25.5 -132 25.5zM291.999 290.997c-67.333 -21.333 -124.168 -48.832 -170.501 -82.499s-69.5 -63.834 -69.5 -90.501c-0.666992 -27.333 19.833 -51.833 61.5 -73.5s96.834 -32.5 165.501 -32.5c63.333 0 115.5 9.5 156.5 28.5
s61.5 43.167 61.5 72.5c0 25.333 -17.833 53.333 -53.5 84s-86.167 62 -151.5 94z" />
    <glyph glyph-name="nine" unicode="9" horiz-adv-x="620" 
d="M379 643c68 0 125.166 -19.834 171.499 -59.501s69.5 -90.167 69.5 -151.5c0 -7.33301 -0.333008 -13.5 -1 -18.5s-25 -48.833 -73 -131.5c-60 -102 -96.167 -165.667 -108.5 -191s-19.166 -44.666 -20.499 -57.999c-2.66699 -24 -6.33398 -38.833 -11.001 -44.5
s-11 -8.5 -19 -8.5c-7.33301 0 -13.333 3.33301 -18 10s-7 15.667 -7 27c0 15.333 7.33301 40.333 22 75s39 83 73 145c-36.667 -17.333 -74.167 -30.833 -112.5 -40.5s-75.166 -14.5 -110.499 -14.5c-66.667 0 -120.167 14 -160.5 42s-60.5 66 -60.5 114
c0 72 38.5 140.833 115.5 206.5s160.5 98.5 250.5 98.5zM378.999 601.999c-67.333 0 -135.999 -27.832 -205.999 -83.499s-105 -113.167 -105 -172.5c0 -36 14.167 -65.333 42.5 -88s69.833 -34 124.5 -34c28.667 0 59 3.83301 91 11.5s64 18.834 96 33.501
c23.333 10.667 42.166 21.5 56.499 32.5s25.833 24.5 34.5 40.5c10.667 19.333 18.5 30.666 23.5 33.999s11.5 5.66602 19.5 6.99902c21.333 54 11.833 104 -28.5 150s-89.833 69 -148.5 69z" />
    <glyph glyph-name="colon" unicode=":" horiz-adv-x="235" 
d="M101 190c13.333 0 23.833 -2.83203 31.5 -8.49902s11.5 -12.5 11.5 -20.5c0 -11.333 -4.5 -21 -13.5 -29s-20.5 -12 -34.5 -12c-14.667 0 -26.167 3 -34.5 9s-12.5 13.333 -12.5 22c0 11.333 4.66699 20.666 14 27.999s22 11 38 11zM64 52.001
c12.667 0 23 -3.16602 31 -9.49902s12 -13.833 12 -22.5c-0.666992 -11.333 -5.5 -20.833 -14.5 -28.5s-20.5 -11.5 -34.5 -11.5c-12.667 0.666992 -22.834 4.16699 -30.501 10.5s-11.5 14.166 -11.5 23.499c0 10 4.33301 18.833 13 26.5s20.334 11.5 35.001 11.5z" />
    <glyph glyph-name="semicolon" unicode=";" horiz-adv-x="237" 
d="M119 206c12.667 0 23.168 -3.16895 31.501 -9.50195s12.5 -14.166 12.5 -23.499c-0.666992 -11.333 -5.33398 -20.666 -14.001 -27.999s-20 -11 -34 -11c-14.667 0 -25.667 2.66699 -33 8s-11 12.666 -11 21.999c0 10 4.5 19.333 13.5 28s20.5 13.334 34.5 14.001z
M88.001 48.998c2 -0.666992 4.33203 -1.33301 6.99902 -2s5.33398 -1.66699 8.00098 -3c6.66699 -5.33301 9.5 -11.333 8.5 -18s-5.5 -14 -13.5 -22c-35.333 -33.333 -59.833 -59.5 -73.5 -78.5s-23.834 -38.833 -30.501 -59.5
c-3.33301 -9.33301 -6.66602 -15.333 -9.99902 -18s-8.66602 -4.33398 -15.999 -5.00098c-6 0 -10.833 2.33301 -14.5 7s-5.5 11.667 -5.5 21c0 8.66699 1.66699 17.5 5 26.5s8.66602 19.167 15.999 30.5c8 13.333 23 34 45 62s36.667 44.667 44 50
c4 2.66699 8.5 4.83398 13.5 6.50098s10.5 2.5 16.5 2.5z" />
    <glyph glyph-name="less" unicode="&#x3c;" horiz-adv-x="395" 
d="M55 289c-0.666992 4 0.333984 8.3291 3.00098 12.9961s7.66699 10.334 15 17.001c11.333 10.667 35.666 30.334 72.999 59.001l102 76c8.66699 6 16.667 10.833 24 14.5s14 5.5 20 5.5c4.66699 0 8.66699 -2.33301 12 -7s5 -9.66699 5 -15c0 -6.66699 -2 -12.667 -6 -18
s-11.667 -12 -23 -20c-41.333 -28 -75.666 -52.167 -102.999 -72.5s-49 -37.833 -65 -52.5c10 -24.667 21.167 -48 33.5 -70s24.166 -40 35.499 -54c9.33301 -12.667 14.333 -23.167 15 -31.5s-3 -15.166 -11 -20.499c-7.33301 -5.33301 -14.5 -6.66602 -21.5 -3.99902
s-15.167 10.667 -24.5 24c-24.667 32 -42.334 57.833 -53.001 77.5s-20 41.5 -28 65.5c-1.33301 3.33301 -2.16602 5.83301 -2.49902 7.5s-0.5 3.5 -0.5 5.5z" />
    <glyph glyph-name="equal" unicode="=" horiz-adv-x="445" 
d="M55 329c0 8 2.99902 14.498 8.99902 19.498s14.667 7.83301 26 8.5c0.666992 0 12.834 -1 36.501 -3s60.834 -0.666992 111.501 4c68 5.33301 106.5 5.83301 115.5 1.5s13.5 -10.833 13.5 -19.5c0 -10 -3 -17.167 -9 -21.5s-16 -6.16602 -30 -5.49902
c-20 0 -41 -0.166992 -63 -0.5s-43 -1.16602 -63 -2.49902c-44.667 -3.33301 -69.667 -5.16602 -75 -5.49902s-11 -0.5 -17 -0.5c-7.33301 -0.666992 -12.833 -1 -16.5 -1s-6.83398 0.333008 -9.50098 1c-10 0.666992 -17.333 3.16699 -22 7.5s-7 10.166 -7 17.499z
M20.999 236.998c0 9.33301 3.66406 16.665 10.9971 21.998s18 8 32 8c2.66699 0 10.834 -0.666992 24.501 -2s30.5 -2 50.5 -2c16.667 0 38.5 1.5 65.5 4.5s48.833 5.16699 65.5 6.5h17h13c10.667 -1.33301 18.834 -4.5 24.501 -9.5s8.83398 -11.167 9.50098 -18.5
c0 -6.66699 -2.66699 -12.667 -8 -18s-11.333 -7.66602 -18 -6.99902h-9.5c-3 0 -6.16699 0.333008 -9.5 1h-14.5h-25.5c-68 -3.33301 -102.333 -5 -103 -5s-23.667 -1.33301 -69 -4c-7.33301 -0.666992 -13 -1 -17 -1s-7.33301 0.333008 -10 1
c-9.33301 0.666992 -16.5 3.33398 -21.5 8.00098s-7.5 10 -7.5 16z" />
    <glyph glyph-name="greater" unicode="&#x3e;" horiz-adv-x="395" 
d="M309 287c0 -4.66699 -1.33789 -9.33301 -4.00488 -14s-7.33398 -10 -14.001 -16c-12 -11.333 -36.667 -31.333 -74 -60l-101 -75c-9.33301 -6.66699 -17.666 -11.834 -24.999 -15.501s-13.666 -5.16699 -18.999 -4.5c-5.33301 0 -9.66602 2.16699 -12.999 6.5
s-4.66602 9.5 -3.99902 15.5c0 6 1.83301 11.667 5.5 17s11.5 12.333 23.5 21c45.333 30.667 80.5 55.334 105.5 74.001s46.167 36.667 63.5 54c-7.33301 16.667 -17.166 35.334 -29.499 56.001s-25.833 41.334 -40.5 62.001c-10.667 13.333 -16 24.333 -16 33s4 16 12 22
c6.66699 4.66699 13.5 5.66699 20.5 3s15.5 -10.334 25.5 -23.001c24 -32.667 41.333 -58.834 52 -78.501s20.334 -41.167 29.001 -64.5c0.666992 -4 1.16699 -6.83301 1.5 -8.5s0.833008 -3.16699 1.5 -4.5z" />
    <glyph glyph-name="question" unicode="?" horiz-adv-x="599" 
d="M323 642c80 0 144.332 -15.835 192.999 -47.502s73 -71.834 73 -120.501c0 -30 -10.333 -56.833 -31 -80.5s-82 -56.5 -184 -98.5c-61.333 -25.333 -106.333 -46.666 -135 -63.999s-42.667 -30.666 -42 -39.999c0 -2 0.5 -5 1.5 -9s1.5 -7 1.5 -9
c0 -7.33301 -1.83301 -13 -5.5 -17s-9.5 -5.66699 -17.5 -5c-9.33301 0 -17.333 4 -24 12s-9.66699 16.667 -9 26c0 20 10.5 38.833 31.5 56.5s66.833 41.5 137.5 71.5c109.333 46 173.333 78.667 192 98s28 41 28 65c0 33.333 -20.5 61.166 -61.5 83.499
s-90.167 33.5 -147.5 33.5c-54.667 0 -102 -9.16699 -142 -27.5s-60 -39.166 -60 -62.499c-0.666992 -4.66699 -0.166992 -9 1.5 -13s4.16699 -7.66699 7.5 -11c12.667 -16 19 -24.167 19 -24.5s0.333008 -0.5 1 -0.5c0 -6.66699 -2.33301 -11.667 -7 -15s-10.667 -5 -18 -5
c-16.667 0 -31 6.33301 -43 19s-18 29.334 -18 50.001c0 38 24.333 70 73 96s110.334 39 185.001 39zM152.999 97.998c9.33301 0 16.667 -2.99902 22 -8.99902s8 -14 8 -24c0 -15.333 -4 -26.333 -12 -33s-20 -10 -36 -10c-14.667 0 -26 2.66699 -34 8
s-12 12.666 -12 21.999c0 11.333 7.16699 21.833 21.5 31.5s28.5 14.5 42.5 14.5z" />
    <glyph glyph-name="at" unicode="@" horiz-adv-x="672" 
d="M430 730c67.333 0 118.664 -20.499 153.997 -61.499s53 -95.833 53 -164.5c0 -96.667 -19.167 -175 -57.5 -235s-81.5 -89.667 -129.5 -89c-26.667 0 -45.667 9 -57 27s-13.666 38.333 -6.99902 61c-24.667 -28.667 -48.167 -51 -70.5 -67s-41.5 -24 -57.5 -24
c-19.333 0 -35.5 7.83301 -48.5 23.5s-19.833 35.834 -20.5 60.501c-1.33301 27.333 4.5 59.666 17.5 96.999s29.5 71.666 49.5 102.999c25.333 39.333 52.833 70.166 82.5 92.499s56.834 33.5 81.501 33.5c26 0 46.167 -14 60.5 -42s15.833 -64.333 4.5 -109
c2.66699 -15.333 -3.5 -35.833 -18.5 -61.5s-25.833 -62.5 -32.5 -110.5c-2.66699 -16 -2.5 -26.667 0.5 -32s7.83301 -8 14.5 -8c33.333 0 65 29.833 95 89.5s45.333 127.167 46 202.5c0 49.333 -14.667 89.5 -44 120.5s-69 46.5 -119 46.5
c-84 0 -164.5 -54.5 -241.5 -163.5s-115.5 -215.167 -115.5 -318.5c0 -62 16.5 -108.667 49.5 -140s78.5 -47 136.5 -47c48 0 93.167 8.66699 135.5 26s86.5 45 132.5 83c26 21.333 40.333 32.666 43 33.999s5.33398 2 8.00098 2c5.33301 0 10.333 -2.66699 15 -8
s7 -11.333 7 -18c0 -7.33301 -3.16699 -15.166 -9.5 -23.499s-19.5 -20.166 -39.5 -35.499c-53.333 -40.667 -102 -68.5 -146 -83.5s-94.333 -22.5 -151 -22.5c-68 0 -123.333 18.667 -166 56s-64 94 -64 170c0 120 43.333 239.167 130 357.5s179.667 177.833 279 178.5z
M409.998 546.001c-18 0 -38.334 -10.666 -61.001 -31.999s-42.667 -46.333 -60 -75c-14 -22.667 -26.167 -47.834 -36.5 -75.501s-16.833 -55.5 -19.5 -83.5c-2.66699 -19.333 -1.5 -34.5 3.5 -45.5s13.167 -16.5 24.5 -16.5c16.667 0 42.334 21.167 77.001 63.5
s61 79.833 79 112.5c-1.33301 9.33301 2.16699 18.833 10.5 28.5s14.5 26.167 18.5 49.5c1.33301 8 2 15.167 2 21.5s-0.666992 12.5 -2 18.5c-2.66699 10.667 -7.16699 19 -13.5 25s-13.833 9 -22.5 9z" />
    <glyph glyph-name="A" unicode="A" horiz-adv-x="553" 
d="M80 177l-57 -148.002c-7.33301 -19.333 -14.5 -32.166 -21.5 -38.499s-15.833 -9.5 -26.5 -9.5c-4.66699 0 -9.16699 2.16699 -13.5 6.5s-6.5 8.5 -6.5 12.5c0 9.33301 3.83301 23.666 11.5 42.999s27.834 64.333 60.501 135c-15.333 -6 -28.5 -6.33301 -39.5 -1
s-16.5 13.666 -16.5 24.999c0 2.66699 0.666992 5.5 2 8.5s26.666 12.5 75.999 28.5c77.333 172.667 152.5 309.334 225.5 410.001s130.167 151 171.5 151c21.333 0 37.166 -13.667 47.499 -41s15.833 -67 16.5 -119c0 -32.667 -1.5 -67 -4.5 -103
s-11.167 -100.333 -24.5 -193l15 5h28c2.66699 -0.666992 5.5 -2.5 8.5 -5.5s4.5 -5.83301 4.5 -8.5c0 -10.667 -5.66699 -20.167 -17 -28.5s-28.333 -14.166 -51 -17.499c-10 -48.667 -18.5 -101.667 -25.5 -159s-10.5 -103.666 -10.5 -138.999
c0 -6 0.333008 -15.833 1 -29.5s1 -24.5 1 -32.5c0 -9.33301 -2 -15.833 -6 -19.5s-9.33301 -5.5 -16 -5.5c-11.333 0 -20.833 6.5 -28.5 19.5s-11.5 29.833 -11.5 50.5c0 27.333 4.33301 72.166 13 134.499s18.334 117.833 29.001 166.5
c-58 -13.333 -114.667 -27.166 -170 -41.499l-161 -43.5zM424 327.998c10 58 18.834 118 26.501 180s11.5 108.667 11.5 140c0 28 -2.83301 49.667 -8.5 65s-12.834 23 -21.501 23c-28.667 0 -78.5 -54.833 -149.5 -164.5s-127.833 -216.834 -170.5 -321.501
c62 16.667 116.833 30.834 164.5 42.501z" />
    <glyph glyph-name="B" unicode="B" horiz-adv-x="796" 
d="M306 406l67.999 182.994c6 16.667 12.167 27.834 18.5 33.501s14.166 8.5 23.499 8.5c5.33301 0 10.833 -2.33301 16.5 -7s9.5 -10.334 11.5 -17.001c0.666992 -4.66699 0.833984 -9.16699 0.500977 -13.5s-7.83301 -23.166 -22.5 -56.499l-56 -125
c33.333 1.33301 66.166 5.5 98.499 12.5s69.5 18.5 111.5 34.5c50 18 89.667 39.833 119 65.5s44.333 51.167 45 76.5c0 28 -25.167 51.667 -75.5 71s-122.166 29 -215.499 29c-44 0 -87.5 -4.33301 -130.5 -13s-83.167 -20.334 -120.5 -35.001
c-66 -26.667 -110 -60.834 -132 -102.501s-17 -73.5 15 -95.5c12.667 -9.33301 20.167 -16.166 22.5 -20.499s3.5 -9.16602 3.5 -14.499c0 -4 -2.33301 -6.83301 -7 -8.5s-10.334 -2.5 -17.001 -2.5c-19.333 0 -36.333 10 -51 30s-22 45 -22 75c0 34 13.667 66 41 96
s67 56 119 78c39.333 16 86.333 29 141 39s111.667 15 171 15c38.667 0 78.334 -3.33301 119.001 -10s75.334 -16 104.001 -28c28 -12.667 48.5 -27.667 61.5 -45s19.5 -36.666 19.5 -57.999c0 -45.333 -28.833 -88.666 -86.5 -129.999s-133.834 -70 -228.501 -86
c26.667 -7.33301 53.834 -16.666 81.501 -27.999s53.5 -23.666 77.5 -36.999c30 -18 53.667 -37 71 -57s28.666 -40.333 33.999 -61c7.33301 -30.667 4.66602 -59.5 -8.00098 -86.5s-34.667 -50.833 -66 -71.5c-53.333 -34.667 -121.666 -55.5 -204.999 -62.5
s-155.666 2.16699 -216.999 27.5c-26 10 -43.5 22.333 -52.5 37s-8.16699 35.334 2.5 62.001l93 241h-46c-16 -0.666992 -27.167 1 -33.5 5s-9.5 9.66699 -9.5 17c0 10 7.16699 17.667 21.5 23s44.833 9.33301 91.5 12zM340.999 349.994l-13 -29.999
c-4 -9.33301 -11.667 -28.333 -23 -57l-37 -93l-22 -70c-7.33301 -22 -3.83301 -38.333 10.5 -49s41.5 -19 81.5 -25c26 -4.66699 56 -6.5 90 -5.5s64.667 4.5 92 10.5c48.667 10 88.5 27 119.5 51s46.5 49.667 46.5 77c0 32 -16.667 63.667 -50 95
s-83.333 56.666 -150 75.999c-24 6.66699 -47.833 11.667 -71.5 15s-48.167 5 -73.5 5z" />
    <glyph glyph-name="C" unicode="C" horiz-adv-x="597" 
d="M410 730c44 0 78.165 -13.6699 102.498 -41.0029s39.833 -66.666 46.5 -117.999c5.33301 -5.33301 9.33301 -10.5 12 -15.5s-3.33301 -25.833 -18 -62.5c-3.33301 -8 -7.16602 -20.667 -11.499 -38s-7.5 -32 -9.5 -44c-9.33301 -49.333 -15.333 -77.333 -18 -84
s-6 -13.667 -10 -21c-15.333 -25.333 -31.166 -36.666 -47.499 -33.999s-24.5 17.667 -24.5 45c-0.666992 9.33301 0.833008 19.833 4.5 31.5s15.834 39.5 36.501 83.5c14.667 32 24 55.167 28 69.5s6 28.833 6 43.5c-0.666992 40 -10 73 -28 99s-42 39 -72 39
c-74.667 0 -149.5 -55.667 -224.5 -167s-112.5 -223 -112.5 -335c-0.666992 -62 11.666 -108.667 36.999 -140s61.666 -47 108.999 -47c40.667 0 81.834 11 123.501 33s90.834 63.333 147.501 124c16.667 17.333 27.667 28 33 32s10.333 6 15 6
c5.33301 0 10.166 -2.66699 14.499 -8s6.83301 -11.333 7.5 -18c-0.666992 -7.33301 -4.5 -15.666 -11.5 -24.999s-20.167 -23 -39.5 -41c-64 -58.667 -118.167 -98.167 -162.5 -118.5s-88.5 -30.5 -132.5 -30.5c-61.333 0 -108.333 20.333 -141 61s-49 95.667 -49 165
c0 127.333 42.167 251.833 126.5 373.5s171.833 182.5 262.5 182.5z" />
    <glyph glyph-name="D" unicode="D" horiz-adv-x="825" 
d="M474 717c20 0 38.002 -0.830078 54.002 -2.49707s31 -4.16699 45 -7.5c60 -14.667 111 -43.834 153 -87.501s69.333 -94.834 82 -153.501c6 -32 7.66699 -64.333 5 -97s-10 -65.334 -22 -98.001c-27.333 -71.333 -72.333 -131.833 -135 -181.5
s-127.334 -81.5 -194.001 -95.5c-60 -12.667 -110.333 -12.834 -151 -0.500977s-61 29.833 -61 52.5c0 4 2.5 13.5 7.5 28.5s9.16699 29.167 12.5 42.5c8.66699 37.333 20.167 76.5 34.5 117.5s33.166 88.5 56.499 142.5c6 14.667 19 44 39 88s33 76.333 39 97
c8 28 15.5 45.833 22.5 53.5s16.167 11.5 27.5 11.5c9.33301 -0.666992 16.5 -4.16699 21.5 -10.5s7.83301 -14.5 8.5 -24.5c0 -7.33301 -5.33301 -19 -16 -35s-18.334 -28.667 -23.001 -38c-32.667 -67.333 -62.5 -135.166 -89.5 -203.499s-47.833 -127.833 -62.5 -178.5
c-8.66699 -29.333 -13.5 -51.666 -14.5 -66.999s2.83301 -25.333 11.5 -30c14 -7.33301 37.167 -10.333 69.5 -9s63.833 7.33301 94.5 18c55.333 19.333 107 51 155 95s82 94 102 150c33.333 95.333 23 182.166 -31 260.499s-136 117.5 -246 117.5
c-102 0 -199.5 -34.167 -292.5 -102.5s-129.5 -134.833 -109.5 -199.5c4.66699 -16.667 13.334 -30 26.001 -40s30.334 -17.667 53.001 -23c13.333 -4 22.5 -8.5 27.5 -13.5s7.5 -10.833 7.5 -17.5c0 -5.33301 -4.16699 -9.5 -12.5 -12.5s-18.5 -2.83301 -30.5 0.5
c-60.667 14 -100.334 42.5 -119.001 85.5s-10.667 92.167 24 147.5c27.333 43.333 68.5 84 123.5 122s114.167 65 177.5 81c21.333 5.33301 42.833 9.5 64.5 12.5s43.5 4.5 65.5 4.5z" />
    <glyph glyph-name="E" unicode="E" horiz-adv-x="571" 
d="M516 736c51.333 0 86.1689 -18.499 104.502 -55.499s15.166 -79.5 -9.50098 -127.5c-14.667 -28.667 -35.334 -55.834 -62.001 -81.501s-51 -41.5 -73 -47.5c-12.667 -4 -24 -4.16699 -34 -0.5s-14.667 9.5 -14 17.5c0 20 11.167 31.833 33.5 35.5
s40.5 11.834 54.5 24.501c16.667 15.333 29.834 30.666 39.501 45.999s16.834 31.333 21.501 48c11.333 40.667 1.16602 68.667 -30.501 84s-74.834 15.333 -129.501 0c-40.667 -12 -80.5 -29 -119.5 -51s-68.833 -44 -89.5 -66c-11.333 -12 -19.833 -24 -25.5 -36
s-8.5 -23.667 -8.5 -35v-41l202 -39c11.333 -2.66699 20 -6.66699 26 -12s9 -12.666 9 -21.999c-0.666992 -7.33301 -4.66699 -13.333 -12 -18s-20.333 -8.66699 -39 -12c-78.667 -14 -146 -35.333 -202 -64s-93 -61.334 -111 -98.001c-12 -23.333 -16 -44.833 -12 -64.5
s15.333 -37.167 34 -52.5c16.667 -15.333 39.667 -27.333 69 -36s58 -13 86 -13c35.333 0 70.666 4.5 105.999 13.5s64.333 21.167 87 36.5c57.333 38 85 57 83 57s-2.33301 0 -1 0c5.33301 0 10 -2.83301 14 -8.5s6 -12.167 6 -19.5c0 -10 -8.33301 -22 -25 -36
s-37.667 -27.333 -63 -40c-28.667 -14.667 -58.5 -25.5 -89.5 -32.5s-63.5 -10.833 -97.5 -11.5c-40.667 0 -78.167 3.66699 -112.5 11s-62.166 18.666 -83.499 33.999c-21.333 14 -36.833 30.333 -46.5 49s-14.5 38.667 -14.5 60c0 30 11.333 61.167 34 93.5
s57.334 61.5 104.001 87.5c20.667 11.333 45 22.5 73 33.5s55.333 20.5 82 28.5c-61.333 7.33301 -107.5 27.333 -138.5 60s-31.167 73.334 -0.5 122.001c23.333 37.333 64.166 72.833 122.499 106.5s113.5 55.5 165.5 65.5c12 2 25 3.66699 39 5s30 2 48 2z" />
    <glyph glyph-name="F" unicode="F" horiz-adv-x="570" 
d="M123 654l12.5 -1.99512c4.33301 -0.666992 8.83301 -1.66699 13.5 -3c21.333 -0.666992 42.833 -0.833984 64.5 -0.500977s43.167 1.5 64.5 3.5c9.33301 8 18 12.167 26 12.5s16.333 -3.5 25 -11.5c34 1.33301 65.667 2.33301 95 3s58.333 1 87 1
c79.333 -0.666992 129.166 -4.66699 149.499 -12s30.5 -18 30.5 -32c0 -5.33301 -2.16699 -10 -6.5 -14s-8.5 -6 -12.5 -6c-8.66699 0 -16.667 0.333008 -24 1s-15 2.33398 -23 5.00098c-13.333 3.33301 -26.5 5.66602 -39.5 6.99902s-44.5 2 -94.5 2
c-32 0 -60 -0.666992 -84 -2l-89 -5c-18 -38.667 -37.167 -82.167 -57.5 -130.5l-66.5 -165.5c24.667 2.66699 47.834 4.66699 69.501 6s45.5 2 71.5 2c53.333 0 87.166 -2.83301 101.499 -8.5s21.5 -14.834 21.5 -27.501s-5.83301 -21.5 -17.5 -26.5
s-23.167 -1.16699 -34.5 11.5c-19.333 4 -47.666 4.83301 -84.999 2.5s-85.333 -7.83301 -144 -16.5c-26 -60.667 -45 -112.334 -57 -155.001s-15.333 -70.334 -10 -83.001c6 -16.667 6.33301 -29 1 -37s-15 -12 -29 -12c-12 0 -20.833 4 -26.5 12s-8.5 18.333 -8.5 31
c0 30 16.833 93 50.5 189s86.5 231.333 158.5 406l-51.5 -3.5c-24.333 -1.66699 -41.5 -2.5 -51.5 -2.5c-32 0 -51.333 2.16699 -58 6.5s-10 11.5 -10 21.5c0 11.333 3.16699 19.666 9.5 24.999s15.833 8 28.5 8z" />
    <glyph glyph-name="G" unicode="G" horiz-adv-x="614" 
d="M163 263l353.997 13.001c18.667 0.666992 32.167 -2.83301 40.5 -10.5s8.5 -19.5 0.5 -35.5c-1.33301 -2 -14.833 -25 -40.5 -69s-52.834 -96.667 -81.501 -158c-10 -20 -17 -35.833 -21 -47.5s-5.66699 -21.834 -5 -30.501c0 -29.333 -0.666992 -45.166 -2 -47.499
s-3 -4.83301 -5 -7.5c-6 -5.33301 -13.833 -7.83301 -23.5 -7.5s-17.5 3.5 -23.5 9.5c-6 6.66699 -9.16699 14.667 -9.5 24s4.16699 23.333 13.5 42c25.333 54 39.666 84 42.999 90l10 18c-30 -24 -64.833 -44 -104.5 -60s-78.167 -24 -115.5 -24
c-39.333 0 -73.5 9 -102.5 27s-51.5 43 -67.5 75c-15.333 29.333 -23 62.666 -23 99.999s7.66699 80.666 23 129.999c22.667 71.333 57 139 103 203s98.333 116 157 156c28.667 19.333 58.834 34.666 90.501 45.999s61.167 17 88.5 17c42 0 76.333 -13.333 103 -40
s39.334 -63 38.001 -109c-0.666992 -11.333 -0.833984 -18.833 -0.500977 -22.5s0.833008 -6.83398 1.5 -9.50098c2 -13.333 3.16699 -20.333 3.5 -21l0.5 -1c0 -2 -0.333008 -3.83301 -1 -5.5s-8 -16.834 -22 -45.501c-38 -74.667 -55.667 -110.5 -53 -107.5
s3.66699 4.16699 3 3.5c-10 -10.667 -21 -16.167 -33 -16.5s-21 3.83398 -27 12.501c-6.66699 8.66699 -8.33398 19.334 -5.00098 32.001s14 31 32 55c13.333 18 23.833 35.333 31.5 52s13.167 34.334 16.5 53.001c10 60 -5.5 98.5 -46.5 115.5s-90.167 10.833 -147.5 -18.5
c-60.667 -31.333 -117.5 -81.5 -170.5 -150.5s-91.167 -139.833 -114.5 -212.5c-12.667 -40 -19.5 -76.667 -20.5 -110s4.5 -61.333 16.5 -84c12 -25.333 29.5 -44.666 52.5 -57.999s50.833 -19.666 83.5 -18.999c38 -0.666992 75.833 7.16602 113.5 23.499
s69.5 37.166 95.5 62.499c16.667 16.667 32.834 37.334 48.501 62.001s28.834 49.667 39.501 75l-36 -2l-254 -8c-29.333 -1.33301 -50.666 0.166992 -63.999 4.5s-19.666 10.833 -18.999 19.5c0 4.66699 2.33301 8.5 7 11.5s14.334 4.83301 29.001 5.5z" />
    <glyph glyph-name="H" unicode="H" horiz-adv-x="908" 
d="M380 185l47.9971 0.000976562c48 118.667 76.833 197 86.5 235s14.5 72 14.5 102c-0.666992 52.667 -14.5 89.334 -41.5 110.001s-67.5 21.334 -121.5 2.00098c-55.333 -20 -109.833 -56.167 -163.5 -108.5s-95.167 -106.5 -124.5 -162.5
c-11.333 -22 -20.166 -43.833 -26.499 -65.5s-9.5 -40.167 -9.5 -55.5c0 -26 7.83301 -46.167 23.5 -60.5s40.834 -21.5 75.501 -21.5c20.667 0 44.5 3.33301 71.5 10s50.5 15.334 70.5 26.001c9.33301 4.66699 18.166 8.5 26.499 11.5s15.5 4.5 21.5 4.5
c3.33301 -0.666992 6.33301 -2.83398 9 -6.50098s4.33398 -7.83398 5.00098 -12.501c0 -9.33301 -7 -18.833 -21 -28.5s-31.667 -18.5 -53 -26.5c-26 -10 -50.167 -16.833 -72.5 -20.5s-45.833 -5.5 -70.5 -5.5c-60.667 0 -103.167 18.5 -127.5 55.5s-26.5 84.5 -6.5 142.5
c26.667 76 76.334 151.333 149.001 226s144.334 124.334 215.001 149.001c63.333 22 116.166 18.667 158.499 -10s63.5 -76.334 63.5 -143.001c0 -34 -4.33301 -69.833 -13 -107.5s-22.334 -82.5 -41.001 -134.5l-39 -107c42.667 4 85.834 6.16699 129.501 6.5
s88.167 -1.16699 133.5 -4.5l57 165c12.667 36.667 35.5 92.167 68.5 166.5s57.5 123.833 73.5 148.5c4.66699 7.33301 10 12.833 16 16.5s15.667 5.5 29 5.5c3.33301 -0.666992 6.16602 -3.5 8.49902 -8.5s3.83301 -10.5 4.5 -16.5
c-0.666992 -1.33301 -0.666992 -0.166016 0 3.50098s-18.666 -35.166 -57.999 -116.499c-42 -86.667 -80.667 -177.334 -116 -272.001s-56 -166.334 -62 -215.001c-1.33301 -10 -0.666016 -22.833 2.00098 -38.5s1 -27.167 -5 -34.5c-6 -6.66699 -14 -10.167 -24 -10.5
s-18 2.5 -24 8.5s-9.33301 13.833 -10 23.5s2 27.5 8 53.5l17 73c-24.667 2 -48.5 3.5 -71.5 4.5s-44.167 1.5 -63.5 1.5c-24.667 -0.666992 -47.334 -1.33398 -68.001 -2.00098s-41 -2 -61 -4l-23 -64c-9.33301 -26 -12.5 -43 -9.5 -51s4.83301 -14 5.5 -18
c0 -8 -4.5 -15.333 -13.5 -22s-18.5 -10.334 -28.5 -11.001c-12 0 -21 6.16699 -27 18.5s-4.66699 29.833 4 52.5l15 45l15 47h-32c-10 -0.666992 -17.667 1.5 -23 6.5s-8 11.167 -8 18.5c0 8 2.33301 14.333 7 19s13.667 7 27 7z" />
    <glyph glyph-name="I" unicode="I" horiz-adv-x="339" 
d="M85 23l31.9971 -1c8.66699 -0.666992 15.834 -3.66699 21.501 -9s8.83398 -10.666 9.50098 -15.999c0 -6.66699 -4.16699 -12.334 -12.5 -17.001s-19.166 -7 -32.499 -7c-76 0 -123 2.66699 -141 8s-27 13.333 -27 24c0 7.33301 4.16699 13.166 12.5 17.499
s19.833 6.5 34.5 6.5c0.666992 0 0.166992 0 -1.5 0s13.166 -1 44.499 -3c30 62 70 159.333 120 292s87.333 239.334 112 320.001c-24.667 -2.66699 -42.167 -1.5 -52.5 3.5s-15.5 12.833 -15.5 23.5c0 7.33301 3.66699 13.5 11 18.5s21 8.16699 41 9.5l94 6
c22.667 1.33301 36.834 0.5 42.501 -2.5s8.5 -7.83301 8.5 -14.5c0 -11.333 -5 -20 -15 -26s-28.667 -10.333 -56 -13c-60 -174 -102.667 -294.5 -128 -361.5z" />
    <glyph glyph-name="J" unicode="J" horiz-adv-x="683" 
d="M693 647l61.002 0.00292969c10.667 0 19.834 -3 27.501 -9s11.5 -12.333 11.5 -19c0 -9.33301 -4 -15.5 -12 -18.5s-18.333 -3.5 -31 -1.5c-19.333 2 -33 -0.166992 -41 -6.5s-16 -17.833 -24 -34.5c-160.667 -332.667 -239.167 -497.334 -235.5 -494.001
s2.16699 2.33301 -4.5 -3c-28 -22.667 -60.833 -40.5 -98.5 -53.5s-76.5 -19.5 -116.5 -19.5c-35.333 0 -67.666 4.66699 -96.999 14s-55 22.666 -77 39.999c-26 18.667 -45.167 40.167 -57.5 64.5s-18.5 49.166 -18.5 74.499s6 49.833 18 73.5s29 43.834 51 60.501
c17.333 12.667 37.5 22.667 60.5 30s47.833 11 74.5 11c10.667 0 22.334 -1.66699 35.001 -5s23.334 -7.66602 32.001 -12.999c8.66699 -6 13.167 -12.667 13.5 -20s-2.5 -12.333 -8.5 -15c-2.66699 -1.33301 -5.5 -2.16602 -8.5 -2.49902s-13.5 3.5 -31.5 11.5
c-41.333 16.667 -85.833 7.66699 -133.5 -27s-62.834 -80.334 -45.501 -137.001c10 -36 34.5 -64.5 73.5 -85.5s80.833 -31.5 125.5 -31.5c29.333 0 59 5.5 89 16.5s56.333 25.167 79 42.5c28.667 22 53.667 50.333 75 85s61.333 136 120 304l27 82l13 41
c-78.667 -0.666992 -139.834 -1.16699 -183.501 -1.5s-75.167 -0.5 -94.5 -0.5c-44 -0.666992 -70.167 1.16602 -78.5 5.49902s-12.5 11.166 -12.5 20.499c0 6.66699 2.66699 12.5 8 17.5s12.666 7.5 21.999 7.5c3.33301 0 10.666 -1 21.999 -3s26.666 -3.33301 45.999 -4
c38.667 -2 98.167 -2 178.5 0s129.166 3 146.499 3z" />
    <glyph glyph-name="K" unicode="K" horiz-adv-x="635" 
d="M240 456l-16.998 -47.0049c17.333 -1.33301 34.166 -4.33301 50.499 -9s32.5 -11 48.5 -19c75.333 39.333 144.333 79.666 207 120.999s104.667 73 126 95c10.667 11.333 17.334 27.5 20.001 48.5s12.334 31.5 29.001 31.5c11.333 -0.666992 20 -4.33398 26 -11.001
s9 -14.667 9 -24c0 -29.333 -41.833 -73.666 -125.5 -132.999s-168.5 -111 -254.5 -155c8 -6.66699 14.833 -13.667 20.5 -21s11.167 -15.666 16.5 -24.999l11.5 -26c3.66699 -8.66699 18.834 -88 45.501 -238c5.33301 -30.667 11.666 -51.667 18.999 -63
s17.666 -17 30.999 -17c7.33301 0 14.166 1.83301 20.499 5.5s13.166 9.83398 20.499 18.501c6.66699 8.66699 12.5 15 17.5 19s9.83301 6 14.5 6c8 0 13.667 -4.66699 17 -14s1.33301 -20 -6 -32c-8.66699 -11.333 -21.834 -21.666 -39.501 -30.999
s-34.167 -14.333 -49.5 -15c-14 0 -26.667 3.66699 -38 11s-21 18 -29 32c-12 21.333 -21.833 64 -29.5 128s-14.834 108.667 -21.501 134c-6.66699 22 -14.667 41.167 -24 57.5s-21.333 31.833 -36 46.5c-40.667 -20.667 -69.5 -35 -86.5 -43s-35.167 -15.667 -54.5 -23
l-30 -114c-9.33301 -34.667 -15 -57.167 -17 -67.5s-3 -19.5 -3 -27.5c-1.33301 -18 -4.83301 -30.667 -10.5 -38s-13.5 -10.666 -23.5 -9.99902c-10 0 -17.167 2.5 -21.5 7.5s-6.5 12.167 -6.5 21.5v14l53 192c-14 -6 -30.167 -11.333 -48.5 -16s-34.166 -7 -47.499 -7
c-14 0 -24.833 2.66699 -32.5 8s-11.834 13.333 -12.501 24c0 12 3 24.167 9 36.5s14 24.166 24 35.499c20 20.667 43.833 37.834 71.5 51.501s55.834 23.167 84.501 28.5l23 62c25.333 68.667 44 114.5 56 137.5s23.667 38.167 35 45.5
c5.33301 3.33301 10.833 4.83301 16.5 4.5s10.834 -2.5 15.501 -6.5c5.33301 -6.66699 7.5 -14.167 6.5 -22.5s-9.5 -24.5 -25.5 -48.5c-6 -9.33301 -15.333 -27.666 -28 -54.999s-21.667 -48.666 -27 -63.999zM132.002 292.995l22 61
c-32.667 -7.33301 -60.667 -20.333 -84 -39s-35 -32.667 -35 -42c0 -2 1.16699 -3.5 3.5 -4.5s5.83301 -1.16699 10.5 -0.5c11.333 0 24 2 38 6s29 10.333 45 19zM210.002 363.995l-15 -46l41.5 17l43.5 19c-11.333 5.33301 -22.833 8.83301 -34.5 10.5
s-23.5 1.5 -35.5 -0.5z" />
    <glyph glyph-name="L" unicode="L" horiz-adv-x="686" 
d="M301 227l22.0039 102.502c8 36.333 15 65.166 21 86.499c13.333 53.333 29.5 101.166 48.5 143.499s38.167 73.833 57.5 94.5c28.667 30.667 63.167 49.834 103.5 57.501s74.833 2.83398 103.5 -14.499c33.333 -21.333 53.5 -54.333 60.5 -99
s0.166992 -90.334 -20.5 -137.001c-27.333 -60.667 -73.833 -114.334 -139.5 -161.001s-137.5 -81.334 -215.5 -104.001c-4 -14.667 -8.16699 -28.834 -12.5 -42.501s-8.83301 -26.834 -13.5 -39.501c18 -6.66699 37.167 -15.667 57.5 -27s43.166 -25 68.499 -41
c14 -10 25 -19 33 -27s12 -14.667 12 -20c0 -10 -5.16699 -16.167 -15.5 -18.5s-22.5 1.83398 -36.5 12.501c-30.667 23.333 -55.167 40.333 -73.5 51s-38.833 20.667 -61.5 30c-20.667 -50.667 -51 -91.5 -91 -122.5s-81.667 -46.5 -125 -46.5
c-50.667 0 -91.334 18 -122.001 54s-33.667 75.667 -9 119c14.667 24 37.167 43.167 67.5 57.5s66.166 21.5 107.499 21.5c20.667 0 43.167 -2 67.5 -6s48.833 -10 73.5 -18l12 27c4 9.33301 7.66699 19.333 11 30c-84.667 -10 -152.667 -0.666992 -204 28
s-77 64.667 -77 108c0 11.333 3.5 20.333 10.5 27s15.167 10.334 24.5 11.001c4 0 7.66699 -2 11 -6s5.33301 -7.66699 6 -11c-0.666992 -3.33301 -1.66699 -8 -3 -14s-2 -10.333 -2 -13c0 -36 22.167 -62.667 66.5 -80s103.166 -21.666 176.499 -12.999zM351.004 241.002
c88 26.667 162.831 70.667 224.498 132s92.834 125 93.501 191c0 34.667 -8.16699 61 -24.5 79s-35.833 27 -58.5 27c-48.667 0 -90.667 -28 -126 -84s-71.666 -171 -108.999 -345zM255.002 91.002c-22.667 7.33301 -45.001 13.332 -67.001 17.999s-42.333 7 -61 7
c-31.333 0 -57.833 -3.83301 -79.5 -11.5s-37.5 -18.5 -47.5 -32.5c-17.333 -26 -18.5 -53.833 -3.5 -83.5s44.167 -44.5 87.5 -44.5c26.667 0 50.667 6.16699 72 18.5s40.333 30.5 57 54.5c4.66699 6.66699 10.334 15.834 17.001 27.501s15 27.167 25 46.5z" />
    <glyph glyph-name="M" unicode="M" horiz-adv-x="1143" 
d="M803 226l-24.9922 -79.9961c33.333 59.333 64.166 111.166 92.499 155.499s62.5 94.166 102.5 149.499c17.333 24 33.166 41.833 47.499 53.5s27.833 17.5 40.5 17.5c13.333 0 23.666 -6.66699 30.999 -20s9.33301 -31.333 6 -54
c-1.33301 -6.66699 -2.66602 -13 -3.99902 -19s-13 -51.333 -35 -136c-8.66699 -32.667 -16 -62.167 -22 -88.5s-11 -52.5 -15 -78.5c-8.66699 -47.333 -10.667 -82.166 -6 -104.499s15.334 -33.5 32.001 -33.5c1.33301 0 3.5 0.166992 6.5 0.5s5.5 0.5 7.5 0.5
c6 0.666992 11.167 -1 15.5 -5s6.5 -8.66699 6.5 -14c0 -7.33301 -3.33301 -13 -10 -17s-16.334 -6 -29.001 -6c-34 0.666992 -57 17 -69 49s-12.333 79 -1 141c2.66699 17.333 6.5 36.833 11.5 58.5s23.5 92.167 55.5 211.5c5.33301 20 8.16602 30.833 8.49902 32.5
s0.5 3.5 0.5 5.5c0 3.33301 -0.833008 6.16602 -2.5 8.49902s-3.5 3.5 -5.5 3.5c-3.33301 0 -7.33301 -2 -12 -6s-10.667 -10 -18 -18c-23.333 -27.333 -52.666 -67.333 -87.999 -120s-69 -108 -101 -166c-46 -83.333 -71 -125.666 -75 -126.999s-8 -2 -12 -2
c-7.33301 0 -14 2.83301 -20 8.5s-9.33301 13.5 -10 23.5c-0.666992 4.66699 -0.5 10.5 0.5 17.5s4.16699 20.167 9.5 39.5c14 55.333 35.167 125.333 63.5 210s44.166 131.667 47.499 141c6.66699 22.667 10.834 37.167 12.501 43.5s2.5 11.166 2.5 14.499
c0 8.66699 -4 12 -12 10s-15.667 -7 -23 -15c-35.333 -38.667 -67.5 -77.667 -96.5 -117s-66.167 -94 -111.5 -164c-38.667 -59.333 -58.5 -89.833 -59.5 -91.5s-2.16699 -3.5 -3.5 -5.5c-14 -21.333 -26.5 -44 -37.5 -68s-21.5 -42.333 -31.5 -55
c-12.667 -16 -24.167 -24.833 -34.5 -26.5s-18.833 2.16602 -25.5 11.499c-6 8 -7.16699 21.333 -3.5 40s13.5 49 29.5 91c40.667 110 67.167 186.167 79.5 228.5s24.5 88.166 36.5 137.499c12.667 56.667 17 100.167 13 130.5s-16.333 53.166 -37 68.499
c-22 14.667 -52.833 20.167 -92.5 16.5s-78.834 -14.834 -117.501 -33.501c-52.667 -26 -98 -58.833 -136 -98.5s-66.333 -84.834 -85 -135.501c-30.667 -82.667 -22.334 -142.167 24.999 -178.5s131.333 -53.5 252 -51.5c10.667 0 19 -1.66699 25 -5s9 -8.33301 9 -15
c0 -10.667 -5.33301 -17.834 -16 -21.501s-34.334 -4.5 -71.001 -2.5c-79.333 3.33301 -138 12.333 -176 27s-67 35.667 -87 63c-20.667 26.667 -32 56.834 -34 90.501s5.33301 69.834 22 108.501c24 56.667 61.167 110.334 111.5 161.001s107.166 88.334 170.499 113.001
c99.333 38.667 176.333 36.834 231 -5.49902s67.667 -124.166 39 -245.499c-8.66699 -36 -18.834 -73.667 -30.501 -113s-24.167 -79.333 -37.5 -120l-33 -98c32 47.333 50.667 75.666 56 84.999s26.666 41.666 63.999 96.999c41.333 62 79.166 114 113.499 156
s61.833 70 82.5 84c31.333 20.667 54.833 22 70.5 4s16.834 -48.667 3.50098 -92c-2 -4.66699 -3.83301 -9.66699 -5.5 -15l-10.5 -34l-31 -94z" />
    <glyph glyph-name="N" unicode="N" horiz-adv-x="849" 
d="M476 172l84.0029 127.007c22.667 34.667 47.334 69.667 74.001 105s49.334 63 68.001 83c13.333 14 26 24.167 38 30.5s24 9.5 36 9.5c15.333 0 26 -7.5 32 -22.5s6 -34.833 0 -59.5l-42 -163c-8 -31.333 -16.333 -69 -25 -113c-10 -47.333 -13.333 -81.5 -10 -102.5
s12.333 -33.167 27 -36.5c23.333 -6.66699 35.333 -10.667 36 -12s1 -2.66602 1 -3.99902c0 -8.66699 -3.83301 -15.834 -11.5 -21.501s-17.5 -8.5 -29.5 -8.5c-31.333 0 -52 14.167 -62 42.5s-10.333 70.833 -1 127.5c1.33301 12 3.5 25.667 6.5 41
s18.167 82.666 45.5 201.999c6.66699 31.333 10.167 47.666 10.5 48.999s0.5 2.66602 0.5 3.99902c-0.666992 6.66699 -1.16699 10.334 -1.5 11.001l-0.5 1c-4 0 -9.5 -2.66699 -16.5 -8s-13.5 -11.666 -19.5 -18.999c-34.667 -38.667 -73.5 -89.334 -116.5 -152.001
s-77.833 -119 -104.5 -169c-22.667 -42.667 -39.167 -69.334 -49.5 -80.001s-20.5 -16 -30.5 -16c-10.667 0 -18.5 2.16699 -23.5 6.5s-7.16699 10.833 -6.5 19.5c0 8 1.5 17.167 4.5 27.5s15.833 42.166 38.5 95.499c28.667 67.333 57.667 143.5 87 228.5
s47.333 147.5 54 187.5c7.33301 51.333 3.16602 88.666 -12.501 111.999s-41.834 35 -78.501 35c-67.333 0 -150.333 -41.833 -249 -125.5s-148 -166.834 -148 -249.501c-0.666992 -37.333 12.166 -66.833 38.499 -88.5s60.166 -32.5 101.499 -32.5
c14.667 0 31.834 1.83301 51.501 5.5s36.5 8.83398 50.5 15.501c16 6.66699 28.333 9.5 37 8.5s13 -6.5 13 -16.5c0 -9.33301 -4.5 -17.5 -13.5 -24.5s-23.167 -13.167 -42.5 -18.5c-96 -26.667 -173.5 -19 -232.5 23s-76.833 104.333 -53.5 187
c17.333 60.667 60.166 125 128.499 193s140.833 117 217.5 147c92 36 159.833 33.5 203.5 -7.5s51.167 -116.5 22.5 -226.5c-8 -28.667 -15.833 -54.834 -23.5 -78.501s-30.834 -84.834 -69.501 -183.501z" />
    <glyph glyph-name="O" unicode="O" horiz-adv-x="682" 
d="M67 271c-25.333 86 -14.501 171.833 32.499 257.5s111.167 144.5 192.5 176.5c80.667 31.333 154.334 28.5 221.001 -8.5s108 -94.167 124 -171.5c7.33301 -37.333 8.33301 -80.333 3 -129s-16.666 -95.667 -33.999 -141c-26.667 -70.667 -64 -132.834 -112 -186.501
s-101 -91.167 -159 -112.5c-82 -29.333 -151.167 -25 -207.5 13s-84.5 97 -84.5 177c-0.666992 19.333 1.16602 39.833 5.49902 61.5s10.5 42.834 18.5 63.501zM111.999 375l21.999 39.999c29.333 53.333 61.833 98.333 97.5 135s69.5 61.334 101.5 74.001
c26 10 49.833 12.833 71.5 8.5s32.5 -12.5 32.5 -24.5c0 -6.66699 -2 -12 -6 -16s-9.33301 -6.33301 -16 -7c-64 -10.667 -95.833 -15.834 -95.5 -15.501s-1.83398 -1.16699 -6.50098 -4.5c-26.667 -18.667 -53.5 -45.334 -80.5 -80.001s-50.833 -73 -71.5 -115
c-10 -20 -17.667 -36.667 -23 -50s-10 -27.666 -14 -42.999c12.667 -50.667 45.5 -86.667 98.5 -108s109.167 -19.333 168.5 6c10.667 4 20.334 6 29.001 6s13 -3.66699 13 -11c-0.666992 -10.667 -3.33398 -18.334 -8.00098 -23.001s-12 -8.66699 -22 -12
c-23.333 -8 -43 -13.167 -59 -15.5s-32.667 -3.5 -50 -3.5c-40.667 -0.666992 -76.667 6.5 -108 21.5s-59 38.167 -83 69.5c-9.33301 -27.333 -12.666 -56.166 -9.99902 -86.499s11 -55.166 25 -74.499c12 -18.667 27.333 -33 46 -43s38 -15 58 -15
c22.667 0.666992 44.334 2.83398 65.001 6.50098s39.667 9.83398 57 18.501c46.667 21.333 90.167 57.666 130.5 108.999s71.166 108.666 92.499 171.999c8 24 14.333 48.667 19 74s7 50 7 74c0 89.333 -25.667 153.5 -77 192.5s-110 49.833 -176 32.5
c-36 -10 -70.167 -27.5 -102.5 -52.5s-58.833 -54.167 -79.5 -87.5c-15.333 -24 -26.666 -48.667 -33.999 -74s-11.333 -51.333 -12 -78z" />
    <glyph glyph-name="P" unicode="P" horiz-adv-x="779" 
d="M325 245l41.001 104.996l75.5 192.5c3.66699 9 12.5 27.833 26.5 56.5c6.66699 14.667 14.334 25.167 23.001 31.5s18.667 9.83301 30 10.5c13.333 0 21.5 -7 24.5 -21s-4.16699 -33 -21.5 -57c-14.667 -20.667 -28.5 -43.834 -41.5 -69.501
s-27.833 -59.167 -44.5 -100.5s-28.834 -72.666 -36.501 -93.999s-14.834 -43.666 -21.501 -66.999c16.667 -4 33.167 -5.83301 49.5 -5.5s34.166 2.5 53.499 6.5c61.333 12.667 118.5 41.5 171.5 86.5s86.5 92.833 100.5 143.5c20 74 -2 132 -66 174s-147 54.333 -249 37
c-44.667 -8 -91.167 -22.667 -139.5 -44s-90.833 -46.666 -127.5 -75.999c-29.333 -23.333 -51.333 -46.5 -66 -69.5s-22 -41.833 -22 -56.5c0 -33.333 11.833 -57.666 35.5 -72.999s56.5 -22.333 98.5 -21c16 0 27.167 -1.66699 33.5 -5s9.5 -8 9.5 -14
c0 -9.33301 -4.5 -16.166 -13.5 -20.499s-25.167 -6.16602 -48.5 -5.49902c-55.333 0.666992 -98.666 13.334 -129.999 38.001s-47 59 -47 103c0 20 6.5 41.5 19.5 64.5s31.5 45.833 55.5 68.5c32.667 30.667 77.667 60.167 135 88.5s113 48.833 167 61.5
c46 10 91.167 14.333 135.5 13s85.833 -8.33301 124.5 -21c65.333 -22.667 111 -58.5 137 -107.5s28 -103.833 6 -164.5c-16.667 -44 -43.167 -83.833 -79.5 -119.5s-81.833 -65.834 -136.5 -90.501c-38.667 -17.333 -76 -29.333 -112 -36s-73.333 -8.33398 -112 -5.00098
l-34 -105c-8 -24.667 -10.167 -43.334 -6.5 -56.001s5.5 -20 5.5 -22c-1.33301 -6.66699 -5 -12.5 -11 -17.5s-13.667 -7.5 -23 -7.5c-10 0 -18 4 -24 12s-9 17.667 -9 29c0 7.33301 1.5 18.333 4.5 33s6.83301 28.667 11.5 42l34 104
c-6.66699 3.33301 -11.667 7.83301 -15 13.5s-5 15.167 -5 28.5c0 4 3.5 7.33301 10.5 10s14.833 2.33398 23.5 -0.999023z" />
    <glyph glyph-name="Q" unicode="Q" horiz-adv-x="672" 
d="M60 271c-31.333 106 -10.502 208.166 62.498 306.499s161.833 147.5 266.5 147.5c42.667 0 82.167 -9.66699 118.5 -29s65.5 -46.666 87.5 -81.999c12.667 -21.333 22.834 -47.666 30.501 -78.999s11.5 -65.666 11.5 -102.999c0 -87.333 -26.333 -176.333 -79 -267
s-119.667 -156.334 -201 -197.001c20 -27.333 42 -48.333 66 -63s50.333 -22.334 79 -23.001h31l52 39c8.66699 7.33301 17 9 25 5s12 -9.66699 12 -17c0 -16 -13.833 -31.333 -41.5 -46s-56.5 -22.334 -86.5 -23.001c-39.333 0 -75.666 10.333 -108.999 31
s-58.666 47 -75.999 79c-68.667 -22 -131.334 -15.833 -188.001 18.5s-85 93.5 -85 177.5c0 19.333 2 39.833 6 61.5s10 42.834 18 63.501zM145.998 220.999c17.333 -22 37.8311 -38.3311 61.498 -48.998s50.5 -15.667 80.5 -15c16.667 0 33 1.33301 49 4
s31.667 7.33398 47 14.001l13.5 4.5c3 1 5.83301 1.5 8.5 1.5c4.66699 0 9.16699 -1.16699 13.5 -3.5s6.5 -4.83301 6.5 -7.5c0 -16.667 -12.333 -29.834 -37 -39.501s-58.667 -14.5 -102 -14.5c-40.667 -0.666992 -76.667 6.5 -108 21.5s-59 38.167 -83 69.5
c-4 -11.333 -6.66699 -22.833 -8 -34.5s-2 -25.5 -2 -41.5c0 -56 20.167 -96.333 60.5 -121s85.5 -30 135.5 -16c-6 9.33301 -14.167 18.166 -24.5 26.499s-19.833 12.5 -28.5 12.5c-6 -0.666992 -14.667 -2 -26 -4s-19.666 -2.66699 -24.999 -2
c-2.66699 -0.666992 -5 1 -7 5s-3 8.66699 -3 14c0 10 7 18.333 21 25s29.667 10 47 10c16.667 0 32.667 -5.66699 48 -17s30.666 -29.333 45.999 -54c70.667 31.333 131 90.333 181 177s75 171.667 75 255c0 70 -17.5 126.333 -52.5 169s-80.833 64 -137.5 64
c-71.333 0 -136.5 -29.333 -195.5 -88s-90.833 -129.334 -95.5 -212.001c44 85.333 89.5 150 136.5 194s91.167 66 132.5 66c14 0 26.833 -2.66699 38.5 -8s17.5 -11.666 17.5 -18.999c0 -5.33301 -20.667 -10.833 -62 -16.5s-83.333 -33.834 -126 -84.501
c-25.333 -30 -49.666 -65.667 -72.999 -107s-40.666 -82.333 -51.999 -123c2 -10 5.33301 -19.667 10 -29s11 -18.333 19 -27z" />
    <glyph glyph-name="R" unicode="R" horiz-adv-x="788" 
d="M217 38l67.0049 180.997c-22 6 -40.667 16.5 -56 31.5s-25 31.167 -29 48.5c-7.33301 26 -3.83301 48.833 10.5 68.5s35.166 29.5 62.499 29.5c13.333 -0.666992 26.166 -3 38.499 -7s23.833 -10 34.5 -18c68 148.667 102.167 223.167 102.5 223.5
s1.16602 0.833008 2.49902 1.5c3.33301 1.33301 7 2 11 2s8 -0.666992 12 -2c4 -2.66699 7.5 -6 10.5 -10s4.5 -8 4.5 -12c-0.666992 -1.33301 -0.833984 -1.16602 -0.500977 0.500977s-33.834 -76.5 -102.501 -234.5c13.333 -12 26 -25.167 38 -39.5
s24.333 -30.833 37 -49.5c77.333 14.667 146 49.167 206 103.5s90 108.833 90 163.5c0 51.333 -23 91.5 -69 120.5s-106 43.5 -180 43.5c-26 0 -53.167 -2.5 -81.5 -7.5s-57.833 -12.833 -88.5 -23.5c-44.667 -16 -84.5 -35.333 -119.5 -58s-64.833 -48 -89.5 -76
c-31.333 -34.667 -47 -67 -47 -97s14 -54.667 42 -74c8.66699 -6.66699 14.834 -12.5 18.501 -17.5s5.5 -9.5 5.5 -13.5c0 -8 -6.83301 -11.833 -20.5 -11.5s-29.167 6.5 -46.5 18.5c-29.333 18.667 -46.833 43.167 -52.5 73.5s2.16602 63.5 23.499 99.5
c25.333 42.667 63.166 81.334 113.499 116.001s107.5 62.334 171.5 83.001c30.667 9.33301 59.834 16.333 87.501 21s56.5 7 86.5 7c89.333 0 160.666 -18.5 213.999 -55.5s80 -84.167 80 -141.5c-0.666992 -62.667 -31.334 -123.667 -92.001 -183
s-136.667 -101.666 -228 -126.999l36 -53c47.333 -70.667 78.833 -115.5 94.5 -134.5s29.834 -33.5 42.501 -43.5c9.33301 -7.33301 17.833 -12.333 25.5 -15s21.167 -3.33398 40.5 -2.00098c8 0.666992 13.833 0 17.5 -2s5.5 -6 5.5 -12c0 -12 -8.66699 -20.333 -26 -25
s-37.666 -2.66699 -60.999 6c-23.333 9.33301 -45.666 24.5 -66.999 45.5s-51.666 61.167 -90.999 120.5c-12.667 18 -24.334 35.5 -35.001 52.5s-21.334 35.167 -32.001 54.5c-16.667 -3.33301 -33.334 -5.16602 -50.001 -5.49902s-33.667 1.5 -51 5.5l-35 -97
c-11.333 -30.667 -18 -49.5 -20 -56.5s-3.33301 -13.5 -4 -19.5c-0.666992 -5.33301 -1.16699 -10.833 -1.5 -16.5s-0.833008 -9.5 -1.5 -11.5c-2.66699 -6 -7 -10.833 -13 -14.5s-13.333 -5.83398 -22 -6.50098c-10.667 0 -18.167 4.5 -22.5 13.5
s-3.16602 21.833 3.50098 38.5zM300.005 258.997l27.999 71.999c-17.333 16.667 -35.333 23.334 -54 20.001s-28 -13.333 -28 -30c0 -12.667 5.33301 -25 16 -37s23.334 -20.333 38.001 -25zM367.004 294.996l-20 -50c10 -2.66699 20.333 -4.16699 31 -4.5
s21.667 0.5 33 2.5c-6.66699 9.33301 -13.667 18.333 -21 27s-15 17 -23 25z" />
    <glyph glyph-name="S" unicode="S" horiz-adv-x="527" 
d="M411 718c35.333 0 67.168 -5.32812 95.501 -15.9951s50.166 -26 65.499 -46c14 -19.333 22 -41.666 24 -66.999s-1.66699 -53.333 -11 -84c-9.33301 -28.667 -19.333 -53.334 -30 -74.001s-21 -34.667 -31 -42c-8.66699 -6.66699 -17 -9.83398 -25 -9.50098
s-14.667 4.16602 -20 11.499c-6.66699 7.33301 -9.16699 16.333 -7.5 27s9.83398 26 24.501 46c15.333 20.667 26.833 40.167 34.5 58.5s11.5 35.833 11.5 52.5c0 36 -18.333 62.833 -55 80.5s-86.667 19.834 -150 6.50098c-44 -9.33301 -85.667 -25.333 -125 -48
s-67.333 -46 -84 -70c-14 -20 -21.667 -39.167 -23 -57.5s3.33398 -36.833 14.001 -55.5c16 -30.667 60.833 -73.167 134.5 -127.5s120.167 -90.5 139.5 -108.5c16 -16 28.167 -31.667 36.5 -47s12.5 -30.333 12.5 -45c0 -18.667 -8.5 -38.167 -25.5 -58.5
s-39.833 -37.833 -68.5 -52.5c-25.333 -12.667 -51.833 -21.834 -79.5 -27.501s-57.834 -8.5 -90.501 -8.5c-46 0 -87.5 6.16699 -124.5 18.5s-66.5 28.833 -88.5 49.5c-18.667 18 -31.334 39.167 -38.001 63.5s-6.33398 46.5 0.999023 66.5c4.66699 11.333 11 20.333 19 27
s15.667 10.334 23 11.001c12.667 0 20.334 -3.83301 23.001 -11.5s-0.333008 -17.834 -9 -30.501c-13.333 -22.667 -12.666 -47.334 2.00098 -74.001s44 -47.667 88 -63c54 -18.667 112.333 -21.834 175 -9.50098s105.667 37.166 129 74.499c11.333 18 14.5 34.5 9.5 49.5
s-22.167 34.167 -51.5 57.5c-151.333 116 -232.666 181 -243.999 195s-20.333 29.333 -27 46c-10 22 -14.167 44.167 -12.5 66.5s10.167 45.166 25.5 68.499c19.333 30.667 49.5 58.834 90.5 84.501s87.167 45.167 138.5 58.5c17.333 4 34.666 7.16699 51.999 9.5
s34.666 3.83301 51.999 4.5z" />
    <glyph glyph-name="T" unicode="T" horiz-adv-x="509" 
d="M-12 678h29.001h6.5c2.33301 0 7.83301 0.333008 16.5 1c13.333 0.666992 31.333 1.33398 54 2.00098s37.334 1.33398 44.001 2.00098c24.667 0.666992 70 3.83398 136 9.50098s156 8.5 270 8.5c43.333 0 74.166 -1.66699 92.499 -5s33.5 -8 45.5 -14
c4.66699 -3.33301 8.16699 -7.33301 10.5 -12s3.5 -10.334 3.5 -17.001c0 -7.33301 -4.33301 -13.5 -13 -18.5s-17.334 -7.5 -26.001 -7.5s-16 1.16699 -22 3.5s-11.667 6.5 -17 12.5c-5.33301 6.66699 -10.5 10.667 -15.5 12s-12.833 2.33301 -23.5 3
c-1.33301 0 -1.66602 0 -0.999023 0s-40.666 0 -123.999 0c-22 -35.333 -43.667 -75.333 -65 -120s-43.333 -95.667 -66 -153l-61 -151c-38.667 -94.667 -59.334 -148.167 -62.001 -160.5s-4.33398 -23.5 -5.00098 -33.5c-2 -28.667 -6 -46.167 -12 -52.5
s-13.667 -9.5 -23 -9.5c-11.333 0 -19.833 3.33301 -25.5 10s-8.5 16 -8.5 28c0 2 -0.666992 -1.83301 -2 -11.5s84 205.833 256 646.5c-4 -0.666992 -6.5 -1 -7.5 -1s-47.167 -2 -138.5 -6l-224 -11c-48 -2.66699 -84.667 -0.333984 -110 6.99902s-38 20.333 -38 39
c0.666992 9.33301 8 17.333 22 24s30 10.334 48 11.001c18 -0.666992 32.667 -2.83398 44 -6.50098s17 -8.83398 17 -15.501c0 -2 -0.333008 -4.16699 -1 -6.5s-2 -4.83301 -4 -7.5z" />
    <glyph glyph-name="U" unicode="U" horiz-adv-x="876" 
d="M377 149l114.998 318.996c10.667 30 18.834 56 24.501 78s8.5 41.333 8.5 58c0 37.333 -14.5 62 -43.5 74s-69.167 10 -120.5 -6c-58 -18.667 -112.5 -49.5 -163.5 -92.5s-88.833 -93.167 -113.5 -150.5c-20 -45.333 -22.667 -84.5 -8 -117.5s46.334 -49.5 95.001 -49.5
c19.333 0 36.666 1.5 51.999 4.5s29.666 7.83301 42.999 14.5c18 8.66699 29 13.5 33 14.5s8 1.5 12 1.5c6 0 10.833 -1.5 14.5 -4.5s5.5 -6.5 5.5 -10.5c0 -15.333 -16 -29.5 -48 -42.5s-69.333 -19.5 -112 -19.5c-65.333 -0.666992 -110.333 20.833 -135 64.5
s-23 98.5 5 164.5c24 55.333 64.167 107 120.5 155s117.166 82.333 182.499 103c64.667 20 119 22.333 163 7s66 -50.333 66 -105c0 -20 -2.66699 -41.333 -8 -64s-13.333 -48.334 -24 -77.001l-102 -270c-12.667 -32.667 -21.667 -60 -27 -82s-8 -42 -8 -60
c0 -8.66699 2.33301 -16.5 7 -23.5s10.334 -10.5 17.001 -10.5c12 -0.666992 26.833 6 44.5 20s38.167 35 61.5 63c39.333 47.333 79.833 105 121.5 173s89.167 155 142.5 261l33 66c4 8 9.16699 13.833 15.5 17.5s13.833 5.83398 22.5 6.50098c6 0 12 -2.83301 18 -8.5
s9 -11.167 9 -16.5c0 -1.33301 0 -0.5 0 2.5s-12.333 -22.5 -37 -76.5c-32.667 -70.667 -60.167 -146.5 -82.5 -227.5s-33.5 -148.833 -33.5 -203.5c0 -28.667 3.83301 -53.167 11.5 -73.5s19.167 -32.166 34.5 -35.499c28.667 -6.66699 42.834 -10 42.501 -10
s-0.166016 -2 0.500977 -6c0 -5.33301 -3.5 -9.83301 -10.5 -13.5s-15.5 -5.5 -25.5 -5.5c-32 0 -57.333 13.5 -76 40.5s-28 61.167 -28 102.5c0 25.333 2.83301 55.333 8.5 90s15.167 77.334 28.5 128.001c-65.333 -111.333 -124.333 -195.333 -177 -252s-96 -85 -130 -85
c-24 0 -41.167 6 -51.5 18s-15.5 29.333 -15.5 52c0 10.667 2.16699 25.834 6.5 45.501s9.5 37.834 15.5 54.501z" />
    <glyph glyph-name="V" unicode="V" horiz-adv-x="830" 
d="M540 117l42.501 85.498l51.5 98.5c43.333 82.667 81.833 148.167 115.5 196.5s66.834 88.166 99.501 119.499c19.333 18.667 37.5 33 54.5 43s32.167 15 45.5 15c8.66699 0 16.167 -1.33301 22.5 -4s11.166 -6.33398 14.499 -11.001c2 -4.66699 3.16699 -9.66699 3.5 -15
s-0.833984 -9.66602 -3.50098 -12.999c-2 -3.33301 -4.66699 -5.83301 -8 -7.5s-6.66602 -2.16699 -9.99902 -1.5l-47 1l-13 -11c-47.333 -39.333 -94.833 -95.833 -142.5 -169.5s-97.5 -164.5 -149.5 -272.5c-55.333 -114 -86 -173.167 -92 -177.5s-11.667 -6.5 -17 -6.5
c-10.667 0 -18.834 3.5 -24.501 10.5s-8.16699 16.5 -7.5 28.5c-0.666992 1.33301 -1 1.33301 -1 0s8 50.334 24 155.001c8 54.667 14.333 107.167 19 157.5s7 98.833 7 145.5c0 33.333 -2.33301 63.5 -7 90.5s-12 50.833 -22 71.5c-16 30.667 -38 52.334 -66 65.001
s-61.667 13.334 -101 2.00098c-50 -14.667 -100.167 -45 -150.5 -91s-86.833 -98.667 -109.5 -158c-22 -56.667 -20.333 -102.667 5 -138s65.333 -52 120 -50c15.333 0 25.666 -1.66699 30.999 -5s8 -8.33301 8 -15c0 -7.33301 -2.83301 -12.833 -8.5 -16.5
s-14.167 -5.5 -25.5 -5.5c-63.333 -2 -112.166 11.5 -146.499 40.5s-51.5 65.833 -51.5 110.5c0 20 2.66699 40.667 8 62s13.666 42.333 24.999 63c20.667 39.333 49.334 78 86.001 116s77.667 69.667 123 95c51.333 28 99.833 41.5 145.5 40.5s84.5 -18.167 116.5 -51.5
c28 -30.667 46.5 -76.167 55.5 -136.5s8.83301 -145.833 -0.5 -256.5c-1.33301 -14 -3.83301 -38 -7.5 -72s-7.5 -76.667 -11.5 -128z" />
    <glyph glyph-name="W" unicode="W" horiz-adv-x="1150" 
d="M553 217l-46 -115.999c20 32 35.167 57 45.5 75s21.166 35.667 32.499 53c22.667 36.667 45.167 70.667 67.5 102s43.166 57.333 62.499 78c16.667 18 31.667 32 45 42s24.333 15 33 15c10.667 0 19.334 -2.83301 26.001 -8.5s10 -12.5 10 -20.5
c-0.666992 -4.66699 -3.33398 -17.167 -8.00098 -37.5s-9 -41.166 -13 -62.499c-7.33301 -38.667 -12.166 -85.5 -14.499 -140.5s-1.16602 -97.833 3.50098 -128.5c2 -16 5.5 -29.167 10.5 -39.5s10.5 -15.166 16.5 -14.499c6 0 13 4.83301 21 14.5s16 22.834 24 39.501
c100 220 165.833 356.333 197.5 409s64.167 96.334 97.5 131.001c20.667 21.333 39.167 36.833 55.5 46.5s32.5 14.5 48.5 14.5c14 0 24.5 -2 31.5 -6s10.5 -9 10.5 -15c-0.666992 -6.66699 -3.66699 -12 -9 -16s-21 -7.66699 -47 -11
c-9.33301 -5.33301 -17.666 -10.833 -24.999 -16.5s-15 -12.5 -23 -20.5c-29.333 -28.667 -56.833 -63.834 -82.5 -105.501s-88.834 -170.834 -189.501 -387.501c-22.667 -48 -42.834 -80.333 -60.501 -97s-35.167 -25 -52.5 -25c-25.333 0 -44.666 14.5 -57.999 43.5
s-20 82.5 -20 160.5c0 34.667 1.16699 67.667 3.5 99s6.5 65.666 12.5 102.999c-14.667 -12.667 -28.334 -25.5 -41.001 -38.5s-26 -28.833 -40 -47.5c-23.333 -30.667 -46.5 -64.834 -69.5 -102.501s-43.5 -75.167 -61.5 -112.5c-26 -52 -42.5 -80 -49.5 -84
s-14.5 -6 -22.5 -6c-11.333 0 -20.166 4.5 -26.499 13.5s-9.5 21.833 -9.5 38.5c0 0.666992 -0.166992 0.5 -0.5 -0.5s8.83398 27.167 27.501 84.5c76 240.667 113.333 358 112 352s-1 -5.33301 1 2c16.667 81.333 10.834 144.833 -17.499 190.5s-76.5 68.5 -144.5 68.5
c-90 0 -174.167 -37.333 -252.5 -112s-117.5 -144.667 -117.5 -210c0 -39.333 14.5 -68 43.5 -86s75.167 -27 138.5 -27c29.333 0 56.5 3.66699 81.5 11s43.5 11 55.5 11c7.33301 0 13.166 -1.16699 17.499 -3.5s6.5 -5.83301 6.5 -10.5
c-0.666992 -13.333 -19.834 -25 -57.501 -35s-78.167 -15 -121.5 -15c-66.667 0 -119.5 12.667 -158.5 38s-58.5 62.333 -58.5 111c0 78 44.333 159 133 243s186 126.333 292 127c80 0 139.167 -24.833 177.5 -74.5s51.833 -117.834 40.5 -204.501
c-4.66699 -33.333 -14.5 -74.5 -29.5 -123.5s-33.167 -100.833 -54.5 -155.5z" />
    <glyph glyph-name="X" unicode="X" horiz-adv-x="850" 
d="M425 237l131.997 161.009l-25.5 106c-5.66699 22.667 -10.5 41.334 -14.5 56.001c-25.333 82 -62.5 135.833 -111.5 161.5s-104.833 17.167 -167.5 -25.5c-46.667 -32 -86.667 -75 -120 -129s-50 -106 -50 -156c0 -33.333 5.33301 -60.5 16 -81.5s25.667 -35.5 45 -43.5
c10 -4.66699 23.833 -7.66699 41.5 -9s34.5 -0.333008 50.5 3c15.333 2.66699 25.166 3.16699 29.499 1.5s7.5 -4.83398 9.5 -9.50098c4 -8 2.83301 -15.167 -3.5 -21.5s-18.5 -11.5 -36.5 -15.5c-60.667 -15.333 -111 -6.5 -151 26.5s-59.667 80.5 -59 142.5
c0 42.667 15.167 92 45.5 148s69.833 105.667 118.5 149c30 26.667 59.667 46.167 89 58.5s60 18.5 92 18.5c59.333 0 108.333 -25.833 147 -77.5s70.667 -137.834 96 -258.501c112 115.333 190.5 192.333 235.5 231s79.833 58 104.5 58c13.333 0 24.333 -3.33301 33 -10
s13 -15.334 13 -26.001c0 -7.33301 -3.16699 -13.833 -9.5 -19.5s-12.5 -8.5 -18.5 -8.5c-2.66699 -0.666992 -6.5 0.166016 -11.5 2.49902s-8.5 3.5 -10.5 3.5c-20 -0.666992 -62.5 -29.334 -127.5 -86.001s-130.5 -125.334 -196.5 -206.001
c16 -85.333 34.333 -154.333 55 -207s44.667 -91.334 72 -116.001c18 -16.667 41.167 -25.834 69.5 -27.501s42.833 -7.5 43.5 -17.5c0 -8.66699 -4 -15.334 -12 -20.001s-19 -7 -33 -7c-57.333 0.666992 -105.166 29.167 -143.499 85.5s-68.166 143.166 -89.499 260.499
c-73.333 -83.333 -134.166 -159.333 -182.499 -228s-74.5 -104.334 -78.5 -107.001c-5.33301 -2.66699 -11.333 -4.16699 -18 -4.5s-12 1.16699 -16 4.5c-3.33301 2 -5.66602 4.5 -6.99902 7.5s-2 6.5 -2 10.5c0 12 11.333 33.833 34 65.5s63.667 83.834 123 156.501z" />
    <glyph glyph-name="Y" unicode="Y" horiz-adv-x="862" 
d="M739 288l-39.001 -71.0039c-30 -54 -62 -103.167 -96 -147.5s-62.667 -74.166 -86 -89.499c-16.667 -10.667 -32.5 -16.5 -47.5 -17.5s-28.833 3.16699 -41.5 12.5c-20 16 -30.667 41.5 -32 76.5s7.66699 85.167 27 150.5c1.33301 6 2.83301 11.333 4.5 16
s23.5 70 65.5 196c35.333 107.333 32.833 179.333 -7.5 216s-99.5 41.667 -177.5 15c-41.333 -14.667 -80.166 -37.5 -116.499 -68.5s-65.5 -67.833 -87.5 -110.5c-43.333 -82 -40.5 -148.167 8.5 -198.5s122.833 -64.166 221.5 -41.499c19.333 4 30.666 6.16699 33.999 6.5
s6 0.5 8 0.5c8.66699 -3.33301 12.334 -9 11.001 -17s-9 -15.667 -23 -23c-14.667 -8 -32 -14.167 -52 -18.5s-43.333 -6.16602 -70 -5.49902c-86 0 -149.833 27.5 -191.5 82.5s-45.167 122.833 -10.5 203.5c25.333 58 63.5 108.667 114.5 152s107.5 73.333 169.5 90
c81.333 21.333 145 13.5 191 -23.5s60.333 -101.833 43 -194.5c-2 -10 -4.66699 -21.167 -8 -33.5s-27 -86.166 -71 -221.499c-18.667 -56.667 -30.167 -100.334 -34.5 -131.001s-2.16602 -53 6.50098 -67c8.66699 -16 20.167 -21.5 34.5 -16.5s36.5 25.833 66.5 62.5
c36 44 71.667 98 107 162s74.666 146.333 117.999 247c22 51.333 36.5 80 43.5 86s15.5 9 25.5 9c5.33301 0 10.166 -3.5 14.499 -10.5s6.5 -13.833 6.5 -20.5c-0.666992 -2 -1 -3.83301 -1 -5.5s-11.333 -34.167 -34 -97.5c-14.667 -39.333 -31.167 -94 -49.5 -164
s-39.5 -160 -63.5 -270c-12 -52 -20.333 -91.667 -25 -119s-7 -48.333 -7 -63c0 -7.33301 1.16699 -17.166 3.5 -29.499s3.5 -20.833 3.5 -25.5c0 -5.33301 -3 -10.5 -9 -15.5s-12 -7.5 -18 -7.5c-14.667 0 -24.667 7.16699 -30 21.5s-1.66602 56.5 11.001 126.5
c4.66699 28 9.16699 53.5 13.5 76.5s23.833 104.833 58.5 245.5z" />
    <glyph glyph-name="Z" unicode="Z" horiz-adv-x="702" 
d="M681 626c-30.667 -2.66699 -59.5049 -3.66895 -86.5049 -3.00195s-60.833 3.33398 -101.5 8.00098c-181.333 20 -273.166 29.833 -275.499 29.5s-4.5 -0.5 -6.5 -0.5c-15.333 -2.66699 -26.333 -7.33398 -33 -14.001s-10 -14.667 -10 -24c0 -7.33301 1.5 -14 4.5 -20
s15.833 -15.333 38.5 -28c12.667 -8 18.334 -17 17.001 -27s-9 -15 -23 -15c-10 -0.666992 -21.5 1.83301 -34.5 7.5s-23.833 12.167 -32.5 19.5c-22.667 16.667 -36.167 36.5 -40.5 59.5s1.83398 42.833 18.501 59.5c12.667 13.333 34.5 22.333 65.5 27
s71.5 4.33398 121.5 -0.999023c188 -22.667 280 -33.834 276 -33.501s-3.66699 0.5 1 0.5c26.667 -1.33301 50.167 -0.666016 70.5 2.00098s40.833 7 61.5 13c6.66699 5.33301 13.834 9.5 21.501 12.5s15.5 4.83301 23.5 5.5c12.667 0 23.334 -3 32.001 -9
s13.334 -12.667 14.001 -20c0 -11.333 -4.66699 -20.666 -14 -27.999s-22.333 -11.333 -39 -12c-232.667 -326 -361.667 -501 -387 -525s-51.666 -46.333 -78.999 -67c146 -34 216.167 -51 210.5 -51s-6.5 0 -2.5 0c24 0 42.667 1.33301 56 4s25.666 7.66699 36.999 15
c20.667 14.667 32.5 22.5 35.5 23.5s6.16699 1.5 9.5 1.5c6.66699 -0.666992 12.5 -3.16699 17.5 -7.5s7.5 -9.5 7.5 -15.5c0 -15.333 -17.167 -30.666 -51.5 -45.999s-70.5 -23 -108.5 -23c-4 0 -7.5 0.166992 -10.5 0.5s-85.5 21.166 -247.5 62.499
c-48 -20.667 -82.667 -33.667 -104 -39s-43 -8 -65 -8c-30.667 0 -56 6.66699 -76 20s-30.333 27.666 -31 42.999c0 18 10.5 32.667 31.5 44s51.833 17.333 92.5 18c12.667 0 24.334 -0.666992 35.001 -2s44 -9.66602 100 -24.999c73.333 48 147.166 118.333 221.499 211
s154.166 211.667 239.499 357zM171.995 25.998c-20.667 5.33301 -38.335 9.33301 -53.002 12s-28 4 -40 4c-18.667 0 -33.167 -1.66699 -43.5 -5s-15.166 -8.33301 -14.499 -15c0 -6.66699 4.5 -12.5 13.5 -17.5s21.167 -7.5 36.5 -7.5c13.333 0 28.833 2.5 46.5 7.5
s35.834 12.167 54.501 21.5z" />
    <glyph glyph-name="bracketleft" unicode="[" horiz-adv-x="392" 
d="M360 739c12 0 21.168 -2.66895 27.501 -8.00195s9.5 -12.333 9.5 -21c-0.666992 -8.66699 -4.66699 -15 -12 -19s-22.333 -4.66699 -45 -2c-14 0.666992 -31.5 0.333984 -52.5 -0.999023s-41.167 -3.33301 -60.5 -6c-51.333 -166 -89.166 -302.5 -113.499 -409.5
s-43.833 -217.833 -58.5 -332.5c12 2.66699 24.5 4.83398 37.5 6.50098s23.5 2.5 31.5 2.5c5.33301 0.666992 11.166 1 17.499 1s13.5 -0.333008 21.5 -1c16 -0.666992 28.167 -4 36.5 -10s12.5 -13.333 12.5 -22c-0.666992 -7.33301 -3.33398 -12.833 -8.00098 -16.5
s-12.334 -5.5 -23.001 -5.5c-2 0 -4 0.166992 -6 0.5s-10.667 0.833008 -26 1.5c-10 1.33301 -18.167 2 -24.5 2h-16.5c-8 0 -20 -0.666992 -36 -2s-28.667 -2 -38 -2c-17.333 0 -27.333 1.5 -30 4.5s-4 7.16699 -4 12.5c0 9.33301 3.83301 39 11.5 89
s13.834 86.667 18.501 110c18.667 98.667 41.167 199.667 67.5 303s51.5 192 75.5 266c5.33301 17.333 23.333 31.5 54 42.5s75 16.5 133 16.5z" />
    <glyph glyph-name="backslash" unicode="\" horiz-adv-x="383" 
d="M112 688c12 0 20.166 -1.66895 24.499 -5.00195s6.83301 -9 7.5 -17c4.66699 -61.333 7.66699 -95.333 9 -102s3.66602 -15 6.99902 -25c31.333 -117.333 56.833 -223.333 76.5 -318s33.834 -174.334 42.501 -239.001c4.66699 -39.333 8.5 -76.666 11.5 -111.999
s4.5 -66.666 4.5 -93.999c0 -19.333 -2.66699 -32.666 -8 -39.999s-13 -11 -23 -11c-12 0 -20.333 3.83301 -25 11.5s-5.33398 23.5 -2.00098 47.5c1.33301 14.667 1.83301 28.834 1.5 42.501s-2.16602 35.5 -5.49902 65.5c-12 90 -20.167 149.667 -24.5 179
s-46.166 208.666 -125.499 537.999c-6.66699 25.333 -7.5 44.833 -2.5 58.5s15.5 20.5 31.5 20.5z" />
    <glyph glyph-name="bracketright" unicode="]" horiz-adv-x="415" 
d="M42 -105c-12.667 0 -22 2.66699 -28 8s-9 12.333 -9 21s3.66699 15 11 19s22.666 4.66699 45.999 2c13.333 -0.666992 30.5 -0.333984 51.5 0.999023s41.5 3.33301 61.5 6c50.667 165.333 88.167 301.5 112.5 408.5s44.166 218.167 59.499 333.5
c-12.667 -2.66699 -25.5 -4.83398 -38.5 -6.50098s-23.167 -2.5 -30.5 -2.5c-6 -0.666992 -12.167 -1 -18.5 -1s-13.166 0.333008 -20.499 1c-16.667 0.666992 -29.167 4 -37.5 10s-12.166 13.333 -11.499 22c-0.666992 7.33301 1.5 12.833 6.5 16.5s13.167 5.5 24.5 5.5
c1.33301 0 3 -0.166992 5 -0.5s11 -0.833008 27 -1.5c9.33301 -1.33301 17.166 -2 23.499 -2h17.5c7.33301 -0.666992 19 -0.166992 35 1.5s29 2.5 39 2.5c16.667 -0.666992 26.334 -2.33398 29.001 -5.00098s4.33398 -6.66699 5.00098 -12
c0 -9.33301 -4 -39.166 -12 -89.499s-14 -86.833 -18 -109.5c-17.333 -89.333 -35.833 -173.666 -55.5 -252.999s-40.5 -157.666 -62.5 -234.999c-20.667 -70 -36.834 -108.667 -48.501 -116s-39.834 -14 -84.501 -20c-11.333 -1.33301 -23.166 -2.33301 -35.499 -3
s-26.833 -1 -43.5 -1z" />
    <glyph glyph-name="asciicircum" unicode="^" horiz-adv-x="273" 
d="M130 509c-7.33301 -8 -14 -15.833 -20 -23.5s-14 -18.5 -24 -32.5c-16.667 -22.667 -27 -35.334 -31 -38.001s-8 -4 -12 -4s-7.33301 1.66699 -10 5s-3.66699 8.66602 -3 15.999c-0.666992 6.66699 4.33301 18.334 15 35.001s26.334 37 47.001 61
c7.33301 8.66699 14.166 15.667 20.499 21s11.833 8 16.5 8c6 0 13.167 -3.5 21.5 -10.5s18.5 -17.5 30.5 -31.5c22.667 -28.667 38.5 -49.167 47.5 -61.5s13.833 -20.833 14.5 -25.5c-0.666992 -6 -3 -11 -7 -15s-8.66699 -6 -14 -6c-3.33301 0 -7 1.33301 -11 4
s-14.333 15.334 -31 38.001c-3.33301 3.33301 -7 7.5 -11 12.5z" />
    <glyph glyph-name="underscore" unicode="_" horiz-adv-x="492" 
d="M383 -52c12.667 0 20.1641 -5.66895 22.4971 -17.002s-1.16699 -21 -10.5 -29c-1.33301 0 -2.16602 -0.166992 -2.49902 -0.5s-33.833 -1.5 -100.5 -3.5c-20 0 -37.167 -0.166992 -51.5 -0.5s-27.5 -1.16602 -39.5 -2.49902c-60.667 -2.66699 -92 -4 -94 -4
s-3.66699 -0.333008 -5 -1c-23.333 0 -38.666 3.5 -45.999 10.5s-7.66602 17.167 -0.999023 30.5c1.33301 4.66699 3.33301 7.83398 6 9.50098s6.33398 2.5 11.001 2.5c2 0 8.5 -0.5 19.5 -1.5s24.5 -1.83301 40.5 -2.5c31.333 -1.33301 66.666 -1.5 105.999 -0.5
s72.333 2.5 99 4.5l29.5 3.5c8.33301 1 13.833 1.5 16.5 1.5z" />
    <glyph glyph-name="grave" unicode="`" horiz-adv-x="577" 
d="M257 563c2.66699 -0.666992 5.33203 -1.66699 7.99902 -3s8 -6 16 -14c9.33301 -10.667 22.666 -22 39.999 -34s33.666 -21 48.999 -27c10 -4.66699 16.667 -9.16699 20 -13.5s5 -10.166 5 -17.499c0 -6 -1.66699 -10.667 -5 -14s-7 -4.66602 -11 -3.99902
c-3.33301 0 -7.16602 0.666992 -11.499 2s-9.16602 4 -14.499 8l-26.5 15c-9 5.33301 -22.167 14 -39.5 26c-12 7.33301 -20.667 13.166 -26 17.499s-9.66602 9.16602 -12.999 14.499c-9.33301 11.333 -12.333 21.5 -9 30.5s9.33301 13.5 18 13.5z" />
    <glyph glyph-name="a" unicode="a" horiz-adv-x="427" 
d="M213 78c-46 -43.333 -78 -69.3301 -96 -77.9971s-34.333 -13.334 -49 -14.001c-28 0 -46.5 13.333 -55.5 40s-7.5 60.667 4.5 102c11.333 38.667 29.333 79.334 54 122.001s52.667 78.667 84 108c14.667 14 29.334 24.167 44.001 30.5s30 9.5 46 9.5
c20 0 36.833 -8.33301 50.5 -25s20.5 -41.334 20.5 -74.001c0 -4.66699 -0.333008 -11.5 -1 -20.5s-1 -15.5 -1 -19.5c0 -2.66699 0.166992 -6 0.5 -10s0.5 -6.66699 0.5 -8c0 -2 -0.166992 -3.16699 -0.5 -3.5s-12.833 -30.5 -37.5 -90.5
c-10.667 -25.333 -17.667 -43.5 -21 -54.5s-4.66602 -21.833 -3.99902 -32.5c0 -10.667 0.333008 -17.334 1 -20.001s2 -4 4 -4c4.66699 0 13.667 6.16699 27 18.5s24.333 24.5 33 36.5c17.333 24 34.5 50.333 51.5 79s29.5 52.334 37.5 71.001c4 10 8.33301 17.167 13 21.5
s10 6.5 16 6.5c3.33301 0 6.66602 -1.5 9.99902 -4.5s5 -7.16699 5 -12.5c-0.666992 -13.333 -14.834 -43.333 -42.501 -90s-52.167 -83.334 -73.5 -110.001c-16.667 -20.667 -32.667 -36.334 -48 -47.001s-28.666 -15.667 -39.999 -15
c-16.667 2 -28.334 11.167 -35.001 27.5s-6 36.5 2 60.5zM71 22.0029c22.667 0 55.834 24.834 99.501 74.501s72.167 92.5 85.5 128.5c11.333 31.333 15.166 60.666 11.499 87.999s-13.5 41.333 -29.5 42c-32 0 -72 -37.167 -120 -111.5s-72 -135.5 -72 -183.5
c0 -12.667 2 -22.167 6 -28.5s10.333 -9.5 19 -9.5z" />
    <glyph glyph-name="b" unicode="b" horiz-adv-x="342" 
d="M112 252c22 28 45.167 50.667 69.5 68s46.166 26 65.499 26c23.333 0 42 -9 56 -27s21 -42.333 21 -73c0 -57.333 -18.167 -116.166 -54.5 -176.499s-77.166 -90.5 -122.499 -90.5c-12 0 -23.167 2 -33.5 6s-31.5 18 -63.5 42c-16 11.333 -26.333 20.333 -31 27
s-6.66699 13.667 -6 21c0 7.33301 1.83301 19 5.5 35s9.16699 35.667 16.5 59c24.667 81.333 50.834 157.5 78.501 228.5s53.5 127.833 77.5 170.5c6.66699 12 13.167 20.667 19.5 26s12.5 8.33301 18.5 9c6 0 11.167 -2.66699 15.5 -8s6.5 -11.666 6.5 -18.999
c-0.666992 -4.66699 -1.83398 -9.83398 -3.50098 -15.501s-16.167 -32.834 -43.5 -81.501c-14.667 -26 -30.667 -60.5 -48 -103.5s-32 -84.167 -44 -123.5zM67 86c9.33301 -18 21.832 -33.168 37.499 -45.501s30.167 -18.5 43.5 -18.5c24 0 46.667 14.333 68 43
s38.333 67.334 51 116.001c10 38 12.333 67.167 7 87.5s-17 30.5 -35 30.5c-26.667 0 -57.167 -21.5 -91.5 -64.5s-61.166 -92.5 -80.499 -148.5z" />
    <glyph glyph-name="c" unicode="c" horiz-adv-x="370" 
d="M221 388c26 0 47.333 -10.499 64 -31.499s24 -47.167 22 -78.5c-17.333 -47.333 -30.333 -76.5 -39 -87.5s-17.667 -16.5 -27 -16.5c-8 -0.666992 -14.333 1.5 -19 6.5s-7 11.5 -7 19.5c0 2.66699 0.166992 5.5 0.5 8.5s11.166 29.167 32.499 78.5
c2.66699 14.667 1.5 27.334 -3.5 38.001s-13.833 16 -26.5 16c-24 -0.666992 -53.167 -24.334 -87.5 -71.001s-57.5 -91.667 -69.5 -135c-11.333 -38.667 -12.5 -69.5 -3.5 -92.5s25.5 -34.5 49.5 -34.5c27.333 0 57.333 11.667 90 35s64.334 56.666 95.001 99.999
c49.333 69.333 72.833 103.833 70.5 103.5s-2.83301 -0.5 -1.5 -0.5c6 0 10.5 -1.83301 13.5 -5.5s4.83301 -8.83398 5.5 -15.501c0 -8 -2.33301 -17.667 -7 -29s-11.334 -24.666 -20.001 -39.999c-32.667 -56 -71.667 -101 -117 -135s-87.666 -51 -126.999 -51
c-40.667 0.666992 -69.5 17.667 -86.5 51s-17.5 78.666 -1.5 135.999c16 58.667 43.167 111.834 81.5 159.501s77.833 71.5 118.5 71.5z" />
    <glyph glyph-name="d" unicode="d" horiz-adv-x="410" 
d="M320 335l16.9951 51c2 7.33301 6.33301 20.666 13 39.999l16 46l9 29l9 28c3.33301 12 7.5 20.667 12.5 26s10.833 8 17.5 8c11.333 0 18.333 -4.33301 21 -13s1 -22 -5 -40c-33.333 -93.333 -57.166 -161.833 -71.499 -205.5s-29.833 -98.834 -46.5 -165.501
c-6 -23.333 -11 -44.166 -15 -62.499s-6 -29.833 -6 -34.5c-0.666992 -6.66699 0.5 -12.167 3.5 -16.5s6.16699 -6.5 9.5 -6.5c4 0 9.66699 3 17 9s14.333 13.333 21 22l12 16.5c4 5.66699 19.333 31.167 46 76.5c4.66699 8 9.16699 13.167 13.5 15.5
s8.83301 1.83301 13.5 -1.5c4 -4 5.5 -9.83301 4.5 -17.5s-3.83301 -16.5 -8.5 -26.5c-9.33301 -17.333 -21.5 -36.5 -36.5 -57.5s-29.5 -38.167 -43.5 -51.5c-16 -14.667 -30.333 -22.834 -43 -24.501s-24 3.83301 -34 16.5c-7.33301 8.66699 -12 22 -14 40
s-0.666992 35.333 4 52l-38 -43.5c-11.333 -12.333 -21 -22.166 -29 -29.499c-18 -16 -36.5 -29 -55.5 -39s-35.167 -15 -48.5 -15c-11.333 0 -21.5 3.16699 -30.5 9.5s-16.5 14.833 -22.5 25.5c-9.33301 16 -14.166 35.333 -14.499 58s3.83398 48.334 12.501 77.001
c14 48 35.167 92.833 63.5 134.5s58.5 73.5 90.5 95.5c26.667 18 52.834 25.333 78.501 22s44.834 -19.333 57.501 -48zM246.995 338c-8.66699 -0.666992 -18.502 -3.16602 -29.502 -7.49902s-20.167 -9.5 -27.5 -15.5c-25.333 -20.667 -49 -47.834 -71 -81.501
s-39 -69.834 -51 -108.501c-15.333 -48 -16.833 -84.667 -4.5 -110s35.833 -25.666 70.5 -0.999023c24.667 17.333 49.834 43 75.501 77s45.5 69 59.5 105c15.333 40 19.833 73.667 13.5 101s-18.166 41 -35.499 41z" />
    <glyph glyph-name="e" unicode="e" 
d="M74 159c-8 -34.667 -8.66699 -64.165 -2 -88.498s19.334 -36.5 38.001 -36.5c23.333 0 50.5 21.333 81.5 64s51.167 86 60.5 130c2.66699 15.333 6.16699 25.666 10.5 30.999s9.5 8 15.5 8c4.66699 0 8.66699 -2.5 12 -7.5s5 -11.167 5 -18.5
c0 -41.333 -21.167 -93.5 -63.5 -156.5s-84.166 -94.5 -125.499 -94.5c-27.333 0 -48.333 10.167 -63 30.5s-22 49.5 -22 87.5c0 47.333 9.66699 96 29 146s41.666 87 66.999 111c8 7.33301 16.167 13 24.5 17s17.166 6 26.499 6c14 -0.666992 26.167 -6.83398 36.5 -18.501
s15.833 -28.167 16.5 -49.5c-0.666992 -49.333 -15.667 -91 -45 -125s-63.333 -46 -102 -36zM161 340.002c-12 0 -25.833 -14.834 -41.5 -44.501s-27.5 -60.5 -35.5 -92.5c24 -12 45.5 -4.66699 64.5 22s28.5 56.334 28.5 89.001c0 8 -1.66699 14.167 -5 18.5
s-7 6.83301 -11 7.5z" />
    <glyph glyph-name="f" unicode="f" horiz-adv-x="289" 
d="M63 238l13.998 39.001c30 84 54.167 147.833 72.5 191.5s28.5 69.167 30.5 76.5c6.66699 31.333 13.5 50.166 20.5 56.499s15.833 9.83301 26.5 10.5c12 0 19.167 -5 21.5 -15s-0.5 -23.667 -8.5 -41c-37.333 -80.667 -62.166 -135.834 -74.499 -165.501
s-22.833 -57.167 -31.5 -82.5l-22 -65c16.667 -2 31.834 -8 45.501 -18s24.167 -23.667 31.5 -41c14 10.667 26.833 22.834 38.5 36.501s21.834 27.5 30.501 41.5c2 4 4.5 7.5 7.5 10.5s11.833 4.5 26.5 4.5c2 -0.666992 3.66699 -2.33398 5 -5.00098s2 -6 2 -10
c0 -12 -10.5 -30.667 -31.5 -56s-42.167 -46 -63.5 -62c14 -75.333 2 -152.5 -36 -231.5s-79.333 -118.833 -124 -119.5c-16 0 -29 9.16699 -39 27.5s-15 42.5 -15 72.5c0 30.667 3.5 67.5 10.5 110.5s16.5 84.5 28.5 124.5c-6.66699 4.66699 -11.334 11.167 -14.001 19.5
s-4 17.833 -4 28.5c0 11.333 4.83301 22.833 14.5 34.5s22.167 20.834 37.5 27.501zM101.998 206.001l-16.001 -55c17.333 0 30.333 1 39 3s17.334 5.33301 26.001 10c-4 12.667 -10.5 22.667 -19.5 30s-18.833 11.333 -29.5 12zM71.9971 108.001
c-11.333 -30.667 -21.333 -66.667 -30 -108s-12.667 -75.666 -12 -102.999c-0.666992 -24 1.33301 -41.167 6 -51.5s11.334 -15.5 20.001 -15.5c25.333 0 51.166 31.333 77.499 94s36.5 129 30.5 199c-14.667 -6.66699 -29.667 -11.334 -45 -14.001s-31 -3 -47 -1z" />
    <glyph glyph-name="g" unicode="g" horiz-adv-x="344" 
d="M318 212l-0.99707 -43.001c-0.666992 -8 -4.33398 -23.333 -11.001 -46s-11.667 -44.667 -15 -66c-16.667 -90 -29.667 -148 -39 -174s-20 -47.667 -32 -65c-16 -22 -34.833 -39 -56.5 -51s-43.834 -18 -66.501 -18c-34 0 -62.667 9.83301 -86 29.5
s-35.333 47.167 -36 82.5c0.666992 18.667 3.33398 33.334 8.00098 44.001s10.667 16 18 16c6 0 11.333 -1.33301 16 -4s7 -6.66699 7 -12c0 -4 -0.333008 -8.33301 -1 -13s-1.66699 -10.667 -3 -18c-1.33301 -4.66699 -2 -9.33398 -2 -14.001s0.666992 -9.66699 2 -15
c3.33301 -16 11.5 -30 24.5 -42s29.5 -18 49.5 -18c43.333 0.666992 77.666 24.5 102.999 71.5s42 123.167 50 228.5c-22.667 -32.667 -47 -58 -73 -76s-50.667 -27 -74 -27c-24 0 -42.667 8.83301 -56 26.5s-20 41.167 -20 70.5
c-0.666992 66.667 21.666 132.334 66.999 197.001s93.333 97 144 97c34.667 0 59.5 -14.833 74.5 -44.5s17.833 -68.5 8.5 -116.5zM231.003 327.999c-33.333 0 -69.499 -29.667 -108.499 -89s-58.5 -114.333 -58.5 -165c0 -24.667 7 -41.834 21 -51.501s32 -8.16699 54 4.5
c19.333 11.333 39.166 29.833 59.499 55.5s32.833 49.834 37.5 72.501c4 22.667 8.5 37 13.5 43s11.5 11 19.5 15c2 10.667 3.83301 21.5 5.5 32.5s2.5 19.833 2.5 26.5c0 18.667 -3.66699 32.5 -11 41.5s-19 13.833 -35 14.5z" />
    <glyph glyph-name="h" unicode="h" horiz-adv-x="383" 
d="M81 120l25.999 36.998c35.333 50.667 63.5 87.167 84.5 109.5s38.167 33.5 51.5 33.5c8 0 14.333 -3 19 -9s7 -13.667 7 -23s-2.33301 -25.5 -7 -48.5s-11.667 -52.5 -21 -88.5c-8.66699 -32 -13.834 -52.667 -15.501 -62s-2.83398 -17.666 -3.50098 -24.999
c-0.666992 -2 -1 -3.5 -1 -4.5s0.333008 -1.83301 1 -2.5c0 -2.66699 0.333008 -4.66699 1 -6s1.66699 -1.66602 3 -0.999023c4.66699 0 10.334 3.66699 17.001 11s14 17.333 22 30c12 20.667 25.167 45.834 39.5 75.501s28.5 60.834 42.5 93.501
c6 14.667 11.167 24.167 15.5 28.5s9.5 6.83301 15.5 7.5c4 0 7.5 -1.5 10.5 -4.5s4.5 -6.83301 4.5 -11.5c0 -5.33301 -1.16699 -11.666 -3.5 -18.999s-6.16602 -17.333 -11.499 -30c-22 -52.667 -44.667 -98.334 -68 -137.001s-45.333 -65.667 -66 -81
c-19.333 -13.333 -35.833 -16.5 -49.5 -9.5s-20.5 20.5 -20.5 40.5c0 4 0.666992 9.66699 2 17s12.666 53.333 33.999 138c2.66699 10 5.33398 21 8.00098 33s4 19.333 4 22c0 1.33301 -0.333008 2.83301 -1 4.5l-1 2.5c-2 0 -6.33301 -4.16699 -13 -12.5
s-19.334 -25.166 -38.001 -50.499c-91.333 -120.667 -137.833 -181.334 -139.5 -182.001s-3.16699 -1 -4.5 -1c-5.33301 0 -9.66602 2.5 -12.999 7.5s-5 11.5 -5 19.5c-0.666992 0.666992 -1 0 -1 -2s9.66699 31.667 29 101c3.33301 13.333 8.5 31 15.5 53l43.5 132
c10.667 34 21.834 66.833 33.501 98.5s19.167 53.167 22.5 64.5c12.667 53.333 20.667 81.166 24 83.499s7 5.16602 11 8.49902c17.333 12 29.5 14.5 36.5 7.5s7.83301 -19.833 2.5 -38.5c-4 -12.667 -10.5 -29.5 -19.5 -50.5s-17.833 -42.833 -26.5 -65.5l-39.5 -109.5
c-11 -31 -19.167 -56.167 -24.5 -75.5z" />
    <glyph glyph-name="i" unicode="i" horiz-adv-x="236" 
d="M145 462c10.667 0 18.8311 -2.83398 24.498 -8.50098s8.5 -13.167 8.5 -22.5c0 -13.333 -4.66699 -24.666 -14 -33.999s-18.666 -14 -27.999 -14s-17.166 3.16699 -23.499 9.5s-9.5 14.5 -9.5 24.5c-0.666992 12 3.33301 22.5 12 31.5s18.667 13.5 30 13.5z
M123.997 325.999c6 0 11.335 -2.6709 16.002 -8.00391s7 -10.666 7 -15.999c0 -2.66699 -0.5 -5.5 -1.5 -8.5s-7.5 -17.167 -19.5 -42.5c-10.667 -21.333 -21.5 -47.166 -32.5 -77.499s-19.5 -57.833 -25.5 -82.5c-6.66699 -24.667 -7.83398 -42.167 -3.50098 -52.5
s14.166 -6.83301 29.499 10.5c4 4.66699 8.33301 10 13 16s33.334 57 86.001 153c3.33301 6.66699 7.66602 12.167 12.999 16.5s10.333 6.83301 15 7.5c7.33301 0 11.833 -4 13.5 -12s0.5 -18.333 -3.5 -31c-7.33301 -20.667 -20.5 -46 -39.5 -76s-36.833 -55 -53.5 -75
c-16 -18.667 -30.333 -32.667 -43 -42s-24.667 -14 -36 -14c-19.333 0 -31.5 12 -36.5 36s-1.83301 59.667 9.5 107c4.66699 22.667 11.5 47.834 20.5 75.501s18.167 51.834 27.5 72.501c6 14 12.833 24.5 20.5 31.5s15.5 10.833 23.5 11.5z" />
    <glyph glyph-name="j" unicode="j" horiz-adv-x="207" 
d="M205 462c12.667 0 23.167 -3.16699 31.5 -9.5s12.5 -13.833 12.5 -22.5c0 -13.333 -4.16699 -24.166 -12.5 -32.499s-19.5 -12.5 -33.5 -12.5c-13.333 0 -23.5 4 -30.5 12s-10.5 17.667 -10.5 29c0 9.33301 4 17.666 12 24.999s18.333 11 31 11zM166 315
c10.667 0 18.333 -3.33105 23 -9.99805s4 -15.334 -2 -26.001c-22 -38 -35.333 -63 -40 -75s-9.33398 -26 -14.001 -42c-15.333 -50 -27.5 -95.333 -36.5 -136s-17.833 -74 -26.5 -100c-27.333 -78.667 -63.666 -137.5 -108.999 -176.5s-93.666 -58.5 -144.999 -58.5
c-40 0 -72.667 12.667 -98 38s-38 55 -38 89c0 21.333 7.5 40.666 22.5 57.999s32.5 26 52.5 26c10 0 17.833 -2.66699 23.5 -8s8.5 -11.666 8.5 -18.999c0.666992 -6 -1 -11 -5 -15s-10 -6.33301 -18 -7c-1.33301 0 -3.5 0.166992 -6.5 0.5s-5.5 0.5 -7.5 0.5
c-6 0 -11.333 -3.16699 -16 -9.5s-7 -15.5 -7 -27.5c0 -24 8.33301 -44.5 25 -61.5s37.667 -25.5 63 -25.5c50.667 0 96.5 23.167 137.5 69.5s72.833 116.833 95.5 211.5c40.667 167.333 66.667 259.666 78 276.999s24.666 26.333 39.999 27z" />
    <glyph glyph-name="k" unicode="k" horiz-adv-x="478" 
d="M240 665c8.66699 0 15.332 -2.50195 19.999 -7.50195s7 -11.833 7 -20.5c0 -13.333 -17.667 -58 -53 -134s-67.333 -160.667 -96 -254c46.667 62.667 88.167 108 124.5 136s70.5 42.333 102.5 43c35.333 0 59.833 -15 73.5 -45s13.167 -68 -1.5 -114
c-12.667 -38 -33.334 -71.5 -62.001 -100.5s-59 -46.833 -91 -53.5c-6 -1.33301 -13 -2.5 -21 -3.5s-30.333 -2.16699 -67 -3.5c-2.66699 -34.667 9 -58.5 35 -71.5s56.667 -8.83301 92 12.5c28.667 17.333 43 25.833 43 25.5s28.333 44.834 85 135.501
c6 10 12.5 16.333 19.5 19s13.5 2.33398 19.5 -0.999023c6 -4.66699 8.5 -12.167 7.5 -22.5s-6.16699 -22.833 -15.5 -37.5c-31.333 -47.333 -60.666 -84.333 -87.999 -111s-55 -45.667 -83 -57c-46.667 -19.333 -85.167 -19 -115.5 1s-48.833 55.667 -55.5 107
c-5.33301 2 -9.66602 5 -12.999 9s-5.66602 9 -6.99902 15c-13.333 -22 -22.333 -50.5 -27 -85.5s-15.334 -52.5 -32.001 -52.5c-8.66699 0 -15.5 2.83301 -20.5 8.5s-7.5 13.834 -7.5 24.501c0 7.33301 2.5 22.666 7.5 45.999s13.5 55.333 25.5 96
c6 23.333 17.167 60 33.5 110s29.5 88.667 39.5 116c52 144.667 77 214 75 208s-2.33301 -7.66699 -1 -5c7.33301 27.333 14.5 45.333 21.5 54s15.5 13 25.5 13zM117.998 165.998c10 1.33301 19.999 0.500977 29.999 -2.49902s18.667 -8.16699 26 -15.5
c65.333 -6 116.5 9.66699 153.5 47s55.5 83 55.5 137c0 16 -4.16699 28.167 -12.5 36.5s-20.5 12.5 -36.5 12.5c-30 -0.666992 -67.167 -23.334 -111.5 -68.001s-79.166 -93.667 -104.499 -147z" />
    <glyph glyph-name="l" unicode="l" horiz-adv-x="321" 
d="M269 636c18 0 31.166 -5.33594 39.499 -16.0029s12.5 -25.667 12.5 -45c0 -16.667 -1.5 -33.667 -4.5 -51s-7.16699 -35.666 -12.5 -54.999c-19.333 -64 -47.333 -129 -84 -195s-79 -122.667 -127 -170c-4.66699 -37.333 -3.33398 -63.166 3.99902 -77.499
s21 -12.166 41 6.50098c18 16.667 38.333 43.5 61 80.5s41.667 73.5 57 109.5c4 10 8.16699 17.167 12.5 21.5s9.5 6.5 15.5 6.5c7.33301 0 12 -4.5 14 -13.5s-0.333008 -20.833 -7 -35.5c-14 -30 -30.667 -60.833 -50 -92.5s-36.666 -56.834 -51.999 -75.501
c-16.667 -20.667 -33.334 -36.167 -50.001 -46.5s-32 -15.5 -46 -15.5c-16 0 -29 8.66699 -39 26s-14 42.666 -12 75.999c-4.66699 2 -8 4.5 -10 7.5s-3 6.83301 -3 11.5c0 6.66699 1 13 3 19s5 11 9 15c3.33301 27.333 7.83301 54.833 13.5 82.5
s12.834 56.834 21.501 87.501c22 80 47.333 149.333 76 208s55.667 97.334 81 116.001c6.66699 4.66699 12.834 8.16699 18.501 10.5s11.5 3.83301 17.5 4.5zM267.999 588.997c-10 0 -22.3311 -11.167 -36.998 -33.5s-30.334 -52.833 -47.001 -91.5
c-25.333 -58.667 -45.333 -112.834 -60 -162.501s-24.334 -95.167 -29.001 -136.5c48 58.667 90.833 130 128.5 214s56.5 145 56.5 183c-0.666992 6.66699 -2 12.834 -4 18.501s-4.66699 8.5 -8 8.5z" />
    <glyph glyph-name="m" unicode="m" horiz-adv-x="587" 
d="M161 416c6.66699 0 12.333 -3.16699 17 -9.5s7 -14.833 7 -25.5c-0.666992 -10 -11.5 -37 -32.5 -81s-42.167 -92.333 -63.5 -145l29.5 43c9 12.667 28.167 37.667 57.5 75c19.333 24.667 36.333 42.167 51 52.5s29 15.833 43 16.5c10 0 18.167 -4.16699 24.5 -12.5
s9.5 -19.5 9.5 -33.5c0 -13.333 -3 -31.666 -9 -54.999s-13.667 -49 -23 -77c56 78 93.167 125.167 111.5 141.5s34.833 24.5 49.5 24.5c12.667 0 21.167 -4.5 25.5 -13.5s4.16602 -23.5 -0.500977 -43.5c-7.33301 -28.667 -15.166 -55.834 -23.499 -81.501
s-15.5 -54.167 -21.5 -85.5c-2.66699 -10 -4.33398 -18.833 -5.00098 -26.5s-1 -16.167 -1 -25.5c0 -3.33301 0.666992 -6.33301 2 -9s3.66602 -5 6.99902 -7c4.66699 -3.33301 9.33398 -3.5 14.001 -0.5s10.334 10.5 17.001 22.5c10.667 19.333 23.5 44.166 38.5 74.499
s32.5 62.5 52.5 96.5c4.66699 8 9.33398 13.667 14.001 17s10.667 5.33301 18 6c8.66699 -0.666992 13.834 -4.66699 15.501 -12s-0.166016 -16.333 -5.49902 -27c-28.667 -54 -48.667 -90.5 -60 -109.5l-34 -54.5c-14 -20.667 -27.833 -36 -41.5 -46
s-26.167 -15.333 -37.5 -16c-14 0 -25.667 6.66699 -35 20s-14 31 -14 53c0 10 1.16699 21.667 3.5 35s13.833 52.666 34.5 117.999l5 18.5c1.33301 5 2 10.167 2 15.5c0 0.666992 -0.666992 1.16699 -2 1.5s-2.66602 0.833008 -3.99902 1.5
c-4.66699 0 -15.834 -10.833 -33.501 -32.5s-37.834 -48.834 -60.501 -81.501c-64.667 -92 -97.834 -138.333 -99.501 -139s-2.83398 -1 -3.50098 -1c-5.33301 0 -10 3.66699 -14 11s-6 16.333 -6 27v6.5c0 2.33301 12.667 38.833 38 109.5c18 50.667 28.5 81.167 31.5 91.5
s4.5 18.833 4.5 25.5c0 4 -0.666992 7 -2 9s-3.33301 3 -6 3c-4.66699 0 -10 -2.33301 -16 -7s-12.667 -11.334 -20 -20.001c-24.667 -28 -48 -57.667 -70 -89s-43 -65.666 -63 -102.999c-22.667 -41.333 -36.167 -63.5 -40.5 -66.5s-8.83301 -4.5 -13.5 -4.5
c-6 0 -11.333 3.33301 -16 10s-7 15.334 -7 26.001c0 12 2.66699 27.333 8 46s14.666 43.667 27.999 75c13.333 33.333 23 56.833 29 70.5l21 47.5c7.33301 16.667 11.333 25.834 12 27.501s1.33398 2.83398 2.00098 3.50098c1.33301 3.33301 2.33301 6.33301 3 9s1 6 1 10
c2 22.667 3.5 36 4.5 40s2.16699 8 3.5 12c4 10 11.167 20.5 21.5 31.5s19.5 16.5 27.5 16.5z" />
    <glyph glyph-name="n" unicode="n" horiz-adv-x="411" 
d="M77 144l28.0068 42.0078c20 30.667 41.333 61 64 91s42.667 54.667 60 74c9.33301 10.667 16.666 17.667 21.999 21s11 5 17 5c15.333 0 25.166 -6.16699 29.499 -18.5s3.5 -31.5 -2.5 -57.5c-20.667 -84.667 -33 -138.5 -37 -161.5s-6.33301 -43.5 -7 -61.5
c-1.33301 -18.667 -0.666016 -32.167 2.00098 -40.5s7.66699 -12.5 15 -12.5c4 -0.666992 9.16699 1.66602 15.5 6.99902s12.166 11.666 17.499 18.999c12.667 18 25.334 43.333 38.001 76s20.334 51.667 23.001 57c4.66699 9.33301 9.66699 16.166 15 20.499
s11.666 6.5 18.999 6.5c7.33301 -0.666992 12 -4.5 14 -11.5s0.666992 -16.5 -4 -28.5c-14.667 -37.333 -32.334 -72.333 -53.001 -105s-40 -55.334 -58 -68.001c-12 -8 -23 -12.5 -33 -13.5s-19.667 1.16699 -29 6.5c-14.667 8 -24.334 20.833 -29.001 38.5
s-4.33398 46.5 0.999023 86.5c2.66699 23.333 7.16699 49.166 13.5 77.499s14.5 58.5 24.5 90.5c1.33301 6 1.66602 10.333 0.999023 13s-2.33398 4 -5.00098 4c-2 0 -4.66699 -1.5 -8 -4.5s-7.33301 -7.16699 -12 -12.5c-24.667 -28 -50.167 -62.833 -76.5 -104.5
s-51.833 -87.834 -76.5 -138.501c-6 -12 -12.167 -21 -18.5 -27s-12.833 -9 -19.5 -9c-5.33301 0 -9.66602 3.66699 -12.999 11s-5 16.666 -5 27.999c0 10 1.33301 22.833 4 38.5s7.66699 37.167 15 64.5c0.666992 4.66699 1.5 9 2.5 13s16.5 52 46.5 144
c5.33301 17.333 8.16602 31 8.49902 41s1.83301 19.333 4.5 28c2 10 7 18.5 15 25.5s16.667 10.833 26 11.5c11.333 0 18.833 -5.16699 22.5 -15.5s2.16699 -24.5 -4.5 -42.5c-3.33301 -8.66699 -12.833 -31.834 -28.5 -69.501s-25.834 -66.167 -30.501 -85.5z" />
    <glyph glyph-name="o" unicode="o" horiz-adv-x="386" 
d="M143 -20c-38 0 -67.5 12.666 -88.5 37.999s-31.5 60.333 -31.5 105c-0.666992 58 19.5 120.333 60.5 187s81.5 97 121.5 91c43.333 8.66699 80.833 -0.666016 112.5 -27.999s47.5 -71 47.5 -131c0 -70.667 -22.5 -132 -67.5 -184s-96.5 -78 -154.5 -78zM197 350.999
c-34 -14.667 -63.498 -46.001 -88.498 -94.001s-37.5 -94.333 -37.5 -139c0 -30 6.5 -53.167 19.5 -69.5s31.167 -24.5 54.5 -24.5c43.333 0 83 22 119 66s54 94.667 54 152c-0.666992 36.667 -8.33398 65.334 -23.001 86.001s-33.334 31 -56.001 31
c-8 0 -15.5 -0.666992 -22.5 -2s-13.5 -3.33301 -19.5 -6z" />
    <glyph glyph-name="p" unicode="p" horiz-adv-x="399" 
d="M71 31l-2.99805 2.99902c-18 -63.333 -31.333 -114.5 -40 -153.5s-13 -67.833 -13 -86.5c0 -2.66699 0.5 -7 1.5 -13s1.83301 -10.667 2.5 -14c0 -10 -3.16699 -18.5 -9.5 -25.5s-13.833 -10.5 -22.5 -10.5c-9.33301 0 -16.833 3.33301 -22.5 10s-8.5 15.334 -8.5 26.001
c0 20 11.167 72 33.5 156s44.166 160.333 65.499 229c38.667 124 63.167 196.5 73.5 217.5s22.166 31.5 35.499 31.5c7.33301 0 13.166 -2.16699 17.499 -6.5s6.5 -10.5 6.5 -18.5c0 -7.33301 -4.5 -18.833 -13.5 -34.5s-15.5 -31.167 -19.5 -46.5
c24 29.333 47.333 52 70 68s43.667 24.333 63 25c24 0 44.667 -12.833 62 -38.5s26 -61.167 26 -106.5c0 -70.667 -18.667 -133.5 -56 -188.5s-79.666 -82.5 -126.999 -82.5c-16 0 -35.5 5.16699 -58.5 15.5s-44.167 24.833 -63.5 43.5zM279.002 344.999
c-24.667 -0.666992 -58.167 -29.668 -100.5 -87.001s-74.5 -116 -96.5 -176c14 -17.333 33 -32.666 57 -45.999s44 -20 60 -20c30.667 0 60 21 88 63s42 93.333 42 154c0 33.333 -5.16699 60.333 -15.5 81s-21.833 31 -34.5 31z" />
    <glyph glyph-name="q" unicode="q" horiz-adv-x="360" 
d="M255 -69l-26.9971 -109.002c-4 -13.333 -3.5 -23.166 1.5 -29.499s7.5 -13.166 7.5 -20.499c0 -8 -4.33301 -15.833 -13 -23.5s-17.334 -11.5 -26.001 -11.5c-8 0 -13.667 3.5 -17 10.5s-5 17.167 -5 30.5c0 20 5.66699 52.5 17 97.5s28 99.5 50 163.5
c-22.667 -22.667 -46.834 -40.167 -72.501 -52.5s-48.5 -18.5 -68.5 -18.5c-26.667 0 -47.667 10 -63 30s-23 49 -23 87c0 70 23.333 143.167 70 219.5s99 114.5 157 114.5c42 -0.666992 70.667 -20.5 86 -59.5s19.333 -87.833 12 -146.5
c3.33301 -6.66699 5.16602 -12.5 5.49902 -17.5s-1.5 -12.167 -5.5 -21.5c-13.333 -28.667 -29 -68.167 -47 -118.5s-31 -91.833 -39 -124.5zM240.003 374.998c-36.667 0 -75.498 -32.5 -116.498 -97.5s-61.5 -128.833 -61.5 -191.5c0 -24.667 4.5 -43.5 13.5 -56.5
s20.833 -19.167 35.5 -18.5c9.33301 0 20.666 2.83301 33.999 8.5s25.666 12.834 36.999 21.501c30 22.667 55.667 55.167 77 97.5s32 86.166 32 131.499c0 35.333 -4.5 61.5 -13.5 78.5s-21.5 25.833 -37.5 26.5z" />
    <glyph glyph-name="r" unicode="r" horiz-adv-x="301" 
d="M150 276l-7 -20.001c-27.333 -77.333 -49.166 -132.5 -65.499 -165.5s-33.166 -59.167 -50.499 -78.5c-14.667 -16 -27.834 -23.167 -39.501 -21.5s-17.5 8.16699 -17.5 19.5v-1.5c0 -1 13.667 17.5 41 55.5c20.667 28.667 42.5 71.667 65.5 129
s37.833 103.666 44.5 138.999c2.66699 16.667 7 28.834 13 36.501s14 11.5 24 11.5c10.667 0 18.5 -4.33301 23.5 -13s6.16699 -20.334 3.5 -35.001c4 2.66699 8.5 5.16699 13.5 7.5s10.167 3.5 15.5 3.5c10.667 0 17.667 -3.83301 21 -11.5
s2.66602 -17.834 -2.00098 -30.501c-9.33301 -24 -19.833 -56.667 -31.5 -98s-19.167 -74.333 -22.5 -99c-3.33301 -21.333 -4.16602 -36.666 -2.49902 -45.999s6.5 -14 14.5 -14c3.33301 0 7 1.83301 11 5.5s8 8.5 12 14.5c4 7.33301 11.833 24.5 23.5 51.5
s20.167 47.833 25.5 62.5c2.66699 8.66699 6 15 10 19s8.66699 6.33301 14 7c7.33301 0 11.666 -4.66699 12.999 -14s-1.33398 -22.333 -8.00098 -39c-18.667 -43.333 -32.667 -73.5 -42 -90.5s-19.666 -31.167 -30.999 -42.5c-15.333 -14.667 -29.5 -22.334 -42.5 -23.001
s-24.5 6.33301 -34.5 21c-10.667 14.667 -14.5 37.334 -11.5 68.001s12.833 73.334 29.5 128.001l16 53c-6 -0.666992 -11.167 -0.166992 -15.5 1.5s-7.83301 4.83398 -10.5 9.50098z" />
    <glyph glyph-name="s" unicode="s" horiz-adv-x="323" 
d="M228 384c28 0 50.332 -7.99707 66.999 -23.9971s25 -39.333 25 -70c0 -22.667 -4.83301 -47.334 -14.5 -74.001s-21.167 -42.667 -34.5 -48c-4.66699 -2 -9.16699 -3 -13.5 -3s-8.16602 1 -11.499 3c-8 4 -12.5 9.83301 -13.5 17.5s2.16699 17.5 9.5 29.5
c14 24 22.667 45.167 26 63.5s1 33.166 -7 44.499c-12.667 15.333 -36.5 20.666 -71.5 15.999s-62.833 -18.334 -83.5 -41.001c-15.333 -17.333 -22.833 -35.333 -22.5 -54s8.16602 -36.667 23.499 -54c0.666992 -1.33301 0.333984 -1.33301 -0.999023 0
s32.334 -25.334 101.001 -80.001c16 -13.333 27.167 -25 33.5 -35s9.5 -20.333 9.5 -31c0 -18 -8.33301 -31 -25 -39s-39.667 -12 -69 -12c-43.333 0 -77.5 7.16699 -102.5 21.5s-37.5 32.5 -37.5 54.5c0 10.667 3.83301 20.667 11.5 30s16.5 14 26.5 14
c8 0 13.5 -2.66699 16.5 -8s1.5 -12.666 -4.5 -21.999c-6 -8.66699 -7.16699 -16.5 -3.5 -23.5s11.834 -13.167 24.501 -18.5c14 -7.33301 34 -11.833 60 -13.5s43.333 0.5 52 6.5c5.33301 3.33301 7.33301 7.83301 6 13.5s-6.33301 13.167 -15 22.5
c-4.66699 4 -9.83398 8.16699 -15.501 12.5l-44.5 32.5c-26 17.333 -45.167 32 -57.5 44s-20.833 23.667 -25.5 35c-6.66699 13.333 -9.83398 29 -9.50098 47s5.5 36 15.5 54c11.333 22 28.833 40.5 52.5 55.5s51.167 25.167 82.5 30.5
c6 0.666992 12.333 1.33398 19 2.00098s13.667 1 21 1z" />
    <glyph glyph-name="t" unicode="t" horiz-adv-x="283" 
d="M192 347c12.667 2 22.333 3.66797 29 5.00098s11.667 2 15 2c10.667 0 19 -2.16699 25 -6.5s9 -10.833 9 -19.5c0 -7.33301 -2.83301 -13.5 -8.5 -18.5s-11.167 -7.5 -16.5 -7.5c-4 0 -9.5 0.333008 -16.5 1s-12.5 1 -16.5 1c-8 0.666992 -15.5 0.833984 -22.5 0.500977
s-13.833 -1.16602 -20.5 -2.49902c-22 -50.667 -41 -100.334 -57 -149.001s-24 -82 -24 -100c0 -10 1 -18 3 -24s5 -9 9 -9c8 0 15.667 2 23 6s14.333 10.333 21 19c11.333 14.667 23.5 33.5 36.5 56.5s31.167 59.833 54.5 110.5c12.667 28 20.667 43 24 45s7 3.33301 11 4
c7.33301 0 11.5 -3.33301 12.5 -10s-0.5 -15.334 -4.5 -26.001c-16.667 -40 -34.834 -78 -54.501 -114s-37.834 -64.333 -54.501 -85c-12.667 -16 -26 -28.833 -40 -38.5s-26.333 -14.834 -37 -15.501c-12.667 0 -23.5 5.33301 -32.5 16s-13.5 26.667 -13.5 48
c0 24 5 54.5 15 91.5s29 95.167 57 174.5c-9.33301 -1.33301 -20.333 -2.16602 -33 -2.49902s-27.667 -0.5 -45 -0.5c-10 0 -17.5 1.66699 -22.5 5s-7.5 8.33301 -7.5 15c0 4.66699 2.16699 9 6.5 13s10.5 6.66699 18.5 8c2 0 4.5 0.166992 7.5 0.5
s13.833 0.166016 32.5 -0.500977c8.66699 -0.666992 18.334 -0.666992 29.001 0s21.334 1.66699 32.001 3c47.333 108 74 165 80 171s13.333 9 22 9c8 0 14.667 -2.16699 20 -6.5s8 -9.5 8 -15.5c-0.666992 -3.33301 -9 -19.333 -25 -48s-32.333 -64 -49 -106z" />
    <glyph glyph-name="u" unicode="u" horiz-adv-x="400" 
d="M149 337c4.66699 5.33301 9.33496 9.50098 14.002 12.501s10.334 4.5 17.001 4.5c12.667 0 20.667 -5.33301 24 -16s-0.666992 -23.667 -12 -39c-20 -26.667 -38 -54 -54 -82s-29 -54.667 -39 -80c-6.66699 -16 -11.5 -31.5 -14.5 -46.5s-4.5 -28.167 -4.5 -39.5
c-0.666992 -8 0.333008 -14.333 3 -19s6 -7 10 -7c6 -0.666992 13.667 2.83301 23 10.5s21.666 20.167 36.999 37.5c18 20.667 33.167 41.167 45.5 61.5s29.166 54.833 50.499 103.5c6 14 12.333 24.667 19 32s14 11 22 11c13.333 0 21.333 -6.16699 24 -18.5
s-3 -29.166 -17 -50.499c-15.333 -22.667 -27 -42.834 -35 -60.501s-13.667 -34.834 -17 -51.501c-4.66699 -19.333 -5.83398 -33.833 -3.50098 -43.5s6.83301 -14.5 13.5 -14.5c2.66699 0 6.16699 1.66699 10.5 5s9.83301 8.66602 16.5 15.999
c9.33301 10.667 18.5 22.667 27.5 36s23.5 41.333 43.5 84c4.66699 10.667 9.5 18.167 14.5 22.5s10.167 6.5 15.5 6.5c7.33301 0 12.333 -3.5 15 -10.5s1.66699 -16.167 -3 -27.5c-12 -28 -30 -59 -54 -93s-45.333 -58.667 -64 -74c-14 -10.667 -25.667 -16.167 -35 -16.5
s-18 4.83398 -26 15.501c-6 6.66699 -10.333 16.334 -13 29.001s-3.33398 25.667 -2.00098 39c-17.333 -22.667 -33.333 -40.834 -48 -54.501s-29 -24.167 -43 -31.5c-13.333 -6 -25 -7.83301 -35 -5.5s-18.667 8.16602 -26 17.499c-10 12 -15.167 29.333 -15.5 52
s2.83398 47 9.50098 73c8 31.333 22.5 68.333 43.5 111s41.833 76.334 62.5 101.001z" />
    <glyph glyph-name="v" unicode="v" horiz-adv-x="280" 
d="M250 209l-12.001 -10.9961c-3.33301 -5.33301 -6 -10.166 -8 -14.499s-9.33301 -21.166 -22 -50.499c-18 -41.333 -35.833 -75 -53.5 -101s-33.834 -43.333 -48.501 -52c-26.667 -14.667 -47.167 -10.834 -61.5 11.499s-18.5 57.166 -12.5 104.499
c0.666992 9.33301 2.16699 20.833 4.5 34.5l19.5 113.5c6.66699 41.333 12.667 66 18 74s13.333 12 24 12c12.667 0 20.167 -6.5 22.5 -19.5s-1.16699 -34.167 -10.5 -63.5c-6 -16.667 -12.333 -37.834 -19 -63.501s-11.667 -47.834 -15 -66.501
c-6.66699 -33.333 -8.83398 -58.833 -6.50098 -76.5s7.5 -26.5 15.5 -26.5c2.66699 0 6 1.33301 10 4s8 6.33398 12 11.001c8.66699 10.667 22 34.167 40 70.5s31 65.833 39 88.5l11 32c0.666992 13.333 0.833984 32.166 0.500977 56.499s0.833984 43.166 3.50098 56.499
c2 12 5.83301 21.833 11.5 29.5s11.834 11.5 18.501 11.5c12 0 20.667 -5.5 26 -16.5s7 -26.167 5 -45.5c-1.33301 -8 -4 -18.167 -8 -30.5s-5.66699 -21.5 -5 -27.5c2 -28.667 2.66699 -43.334 2 -44.001z" />
    <glyph glyph-name="w" unicode="w" horiz-adv-x="426" 
d="M185 134l-14.9961 -26.001c-17.333 -30 -33.333 -53.333 -48 -70s-31 -30.667 -49 -42c-12 -6.66699 -22 -9.83398 -30 -9.50098s-15 4.5 -21 12.5c-6.66699 7.33301 -9.83398 18.166 -9.50098 32.499s3.83301 32.833 10.5 55.5l4.5 16c1.66699 6 32.5 79.667 92.5 221
c5.33301 12.667 10.833 21.834 16.5 27.501s12.834 8.5 21.501 8.5c7.33301 0 13.5 -2.83301 18.5 -8.5s7.5 -11.5 7.5 -17.5c0 -3.33301 -0.666992 -6.66602 -2 -9.99902s-7.33301 -14.333 -18 -33c-24 -41.333 -41.667 -73.333 -53 -96s-24.333 -53 -39 -91
c-8 -20 -13.167 -34.333 -15.5 -43s-3.5 -16 -3.5 -22c0 -4.66699 0.666992 -7.83398 2 -9.50098s3.33301 -2.5 6 -2.5c3.33301 -0.666992 8.16602 2.33301 14.499 9s14.5 17 24.5 31c12 17.333 25.5 39.166 40.5 65.499s26.833 48.833 35.5 67.5
c9.33301 22 17.5 36.5 24.5 43.5s14.5 10.5 22.5 10.5s13.333 -4.33301 16 -13s2.66699 -21.667 0 -39c-10.667 -70 -15.834 -110.667 -15.501 -122s1.5 -21.666 3.5 -30.999c1.33301 -8.66699 3.66602 -15.667 6.99902 -21s7 -8 11 -8c6 0 12.167 2.66699 18.5 8
s12.833 13.333 19.5 24c16.667 26 30.667 50.833 42 74.5s20.333 45.834 27 66.501l6 19c-2.66699 10 -4.5 17.333 -5.5 22s-1.83301 9 -2.5 13c-6 20.667 -9 31.167 -9 31.5v1.5c-2.66699 12.667 -3.16699 25.667 -1.5 39s5.5 23.333 11.5 30c8 8.66699 17.5 11.667 28.5 9
s19.5 -12 25.5 -28c6.66699 -20 9 -41.833 7 -65.5s-2.66699 -38.167 -2 -43.5c0.666992 -17.333 -0.333008 -28.666 -3 -33.999s-7.33398 -10 -14.001 -14l-28 -60c-10 -20.667 -23.333 -42.334 -40 -65.001s-30.667 -38.334 -42 -47.001
c-20.667 -15.333 -40 -20.166 -58 -14.499s-30 19.834 -36 42.501c-4 13.333 -6.5 29.5 -7.5 48.5s0.166992 37.833 3.5 56.5z" />
    <glyph glyph-name="x" unicode="x" horiz-adv-x="317" 
d="M111 330c18 0 31.8311 -9.83105 41.498 -29.498s14.834 -50.167 15.501 -91.5c89.333 83.333 136.833 126.5 142.5 129.5s10.834 4.5 15.501 4.5c6 0 11 -2 15 -6s6 -8.33301 6 -13c0 -4 -1 -7.5 -3 -10.5s-21.333 -19.833 -58 -50.5
c-25.333 -21.333 -47.833 -42 -67.5 -62s-36.167 -38.667 -49.5 -56c-1.33301 -34 2.33398 -61.667 11.001 -83s22.667 -32 42 -32c1.33301 -0.666992 2.83301 -0.833984 4.5 -0.500977s3.5 0.833008 5.5 1.5c2 0 6 1.33301 12 4s11.333 4 16 4
c4.66699 -0.666992 8.5 -2.66699 11.5 -6s4.5 -8.33301 4.5 -15c0 -9.33301 -6.33301 -16.833 -19 -22.5s-25.667 -8.5 -39 -8.5c-24.667 0 -45.334 10.167 -62.001 30.5s-26 45.833 -28 76.5c-24 -32 -44 -56.167 -60 -72.5s-28.333 -24.5 -37 -24.5
c-4.66699 0 -8.83398 1.66699 -12.501 5s-5.5 8.33301 -5.5 15v2c0 0.666992 19.333 24.667 58 72c8.66699 10.667 17.5 22.167 26.5 34.5s17.833 25.166 26.5 38.499c-0.666992 27.333 -2.66699 52.333 -6 75s-7.66602 34 -12.999 34c-2 0 -3.83301 -0.666992 -5.5 -2
s-3.5 -3.33301 -5.5 -6c-6 -7.33301 -10.667 -11.833 -14 -13.5s-6.33301 -2.5 -9 -2.5c-6 0 -11.167 2 -15.5 6s-6.5 9.33301 -6.5 16c0 11.333 6.83301 24 20.5 38s27.5 21 41.5 21z" />
    <glyph glyph-name="y" unicode="y" horiz-adv-x="324" 
d="M216 91c-7.33301 -10.667 -15.166 -21.502 -23.499 -32.502s-16.166 -20.5 -23.499 -28.5c-15.333 -16.667 -30 -29.167 -44 -37.5s-28 -12.5 -42 -12.5s-25.5 7.16699 -34.5 21.5s-13.5 33.5 -13.5 57.5c0 56.667 13.833 119.667 41.5 189s55.5 104 83.5 104
c7.33301 -0.666992 13.166 -3.16699 17.499 -7.5s6.5 -10.166 6.5 -17.499c0 -8.66699 -8.33301 -21.667 -25 -39s-29.334 -36 -38.001 -56c-12.667 -28.667 -22.834 -57.667 -30.501 -87s-11.5 -53.333 -11.5 -72c0 -14 1.66699 -25.333 5 -34s7.33301 -13 12 -13
c6.66699 0 14 3 22 9s16 14.333 24 25c26.667 35.333 47.667 66.5 63 93.5s27.666 53.833 36.999 80.5c14.667 44 23.334 66.333 26.001 67s6 1 10 1c8.66699 0 14.834 -2 18.501 -6s5.83398 -11.333 6.50098 -22c0 -5.33301 -1.33301 -12.666 -4 -21.999
s-7.33398 -22.333 -14.001 -39c-48 -242 -75 -368.833 -81 -380.5s-12.333 -22.5 -19 -32.5c-16 -22.667 -33 -39.5 -51 -50.5s-36.667 -16.5 -56 -16.5c-32 0.666992 -58.167 16.667 -78.5 48s-30.5 71.666 -30.5 120.999c0.666992 14.667 3.66699 26 9 34
s12.333 11.667 21 11c12.667 0 20.667 -6 24 -18s-0.333984 -23.333 -11.001 -34c-6 -30 -1.66699 -57.333 13 -82s32.334 -37 53.001 -37c36.667 0 69.167 33.833 97.5 101.5s41.833 138.834 40.5 213.501z" />
    <glyph glyph-name="z" unicode="z" horiz-adv-x="317" 
d="M31 282c0 10.667 4.83398 17.999 14.501 21.999s25.167 4.66699 46.5 2c15.333 -2.66699 26.666 -4 33.999 -4s15.333 0.333008 24 1c66 5.33301 99.833 8 101.5 8h6.5c13.333 -0.666992 24 -2.66699 32 -6s14.667 -8.33301 20 -15c4 -6.66699 6.16699 -14.667 6.5 -24
s-1.83398 -18.333 -6.50098 -27c-7.33301 -13.333 -32.166 -33.666 -74.499 -60.999s-83.833 -58 -124.5 -92c-14 -11.333 -24.333 -20.666 -31 -27.999s-10 -12.333 -10 -15c0 -1.33301 1 -2.33301 3 -3s4.66699 -1 8 -1c0 -0.666992 -0.166992 -1 -0.5 -1
s12.167 1.66699 37.5 5c32.667 3.33301 57.667 4.83301 75 4.5s30.666 -2.16602 39.999 -5.49902c6.66699 -3.33301 11.5 -7.16602 14.5 -11.499s4.83301 -9.5 5.5 -15.5c-0.666992 -6.66699 -3.33398 -12 -8.00098 -16s-9.66699 -6 -15 -6c-10.667 0 -18.667 1.66699 -24 5
s-15.333 5.33301 -30 6c-114.667 3.33301 -170.5 4 -167.5 2s4.16699 -2.33301 3.5 -1c-9.33301 7.33301 -13.166 16.666 -11.499 27.999s9.83398 24.666 24.501 39.999c26.667 27.333 64.334 57.666 113.001 90.999s86.667 61.666 114 84.999
c4.66699 4 6.66699 8.33301 6 13s-4.33398 7.33398 -11.001 8.00098h-6c-2 0 -23.333 -2.33301 -64 -7c-70.667 -8.66699 -109.667 -12.167 -117 -10.5s-13 4.5 -17 8.5c-4 2 -7 5 -9 9s-3 8 -3 12z" />
    <glyph glyph-name="braceleft" unicode="{" horiz-adv-x="383" 
d="M344 725c5.33301 0 10.498 -1.6709 15.498 -5.00391s7.5 -7 7.5 -11c0 -8 -2.16699 -14.667 -6.5 -20s-16.5 -10.333 -36.5 -15c-34.667 -9.33301 -69.667 -41 -105 -95s-64 -115 -86 -183c-10.667 -32.667 -20.667 -54.5 -30 -65.5s-22 -20.833 -38 -29.5
c8 -4 13.667 -9.16699 17 -15.5s5 -15.5 5 -27.5c0 -11.333 -2.83301 -30.666 -8.5 -57.999s-8.5 -53.666 -8.5 -78.999c0 -40.667 6 -76.167 18 -106.5s28.333 -52.166 49 -65.499c4.66699 -2.66699 16.334 -6.16699 35.001 -10.5s28 -11.166 28 -20.499
c0 -13.333 -12 -19.833 -36 -19.5s-47.667 10.5 -71 30.5c-30 25.333 -49.833 61.5 -59.5 108.5s-9.16699 109.167 1.5 186.5c1.33301 12 2.16602 20.833 2.49902 26.5s0.166016 10.5 -0.500977 14.5c-1.33301 6 -5.66602 14 -12.999 24s-11 17 -11 21
c0 0.666992 -0.166992 1 -0.5 1s11.834 9.66699 36.501 29c8 6.66699 14.667 14.5 20 23.5s13 27.167 23 54.5c23.333 65.333 49.333 121.666 78 168.999s58.334 82.333 89.001 105c12 8.66699 26.333 16.334 43 23.001s30.667 10 42 10z" />
    <glyph glyph-name="bar" unicode="|" horiz-adv-x="163" 
d="M56 736l1.50098 0.500977c1 0.333008 7.5 0.5 19.5 0.5c7.33301 0 12.833 -5.33301 16.5 -16s5.16699 -27.667 4.5 -51c-3.33301 -74.667 -9.83301 -177 -19.5 -307s-14.5 -252 -14.5 -366c0 -27.333 0.333008 -52.5 1 -75.5s4.66699 -75.167 12 -156.5
c3.33301 -40.667 4.83301 -62.167 4.5 -64.5s-0.833008 -4.5 -1.5 -6.5c-3.33301 -6.66699 -8.5 -11.834 -15.5 -15.501s-14.167 -4.5 -21.5 -2.5c-6.66699 2.66699 -11.5 6.5 -14.5 11.5s-4.5 13.833 -4.5 26.5c-0.666992 2 -3.5 38.833 -8.5 110.5s-5.5 165.5 -1.5 281.5
c4 128 10.667 248.5 20 361.5s11.666 180.167 6.99902 201.5c-6.66699 26 -8.16699 42.667 -4.5 50s10.167 13 19.5 17z" />
    <glyph glyph-name="braceright" unicode="}" horiz-adv-x="390" 
d="M111 707c-0.666992 11.333 1.83105 18.998 7.49805 22.998s13.834 6 24.501 6c20.667 0 40.334 -5 59.001 -15s35.334 -23.667 50.001 -41c20.667 -26 36.5 -58.667 47.5 -98s15.5 -79.333 13.5 -120c-2 -33.333 -2.33301 -54.166 -1 -62.499s4 -15.833 8 -22.5
c2 -3.33301 6.83301 -8.5 14.5 -15.5s11.5 -11.833 11.5 -14.5s-4.33301 -8.66699 -13 -18s-15.334 -17.666 -20.001 -24.999c-7.33301 -10.667 -13.833 -23.667 -19.5 -39s-14.5 -46.333 -26.5 -93c-12 -46 -23.167 -81.833 -33.5 -107.5s-21.833 -48.5 -34.5 -68.5
c-20 -29.333 -41.833 -53.666 -65.5 -72.999s-44.5 -29.333 -62.5 -30c-10 0.666992 -17.167 2.5 -21.5 5.5s-6.5 9.5 -6.5 19.5c0 5.33301 12.833 15 38.5 29s47.834 34.333 66.501 61c15.333 23.333 28.666 49.166 39.999 77.499s27.666 84.5 48.999 168.5
c6.66699 28 14.334 48.333 23.001 61s20 22.667 34 30c-12.667 6 -22 13.833 -28 23.5s-6.66699 28.834 -2 57.501c6.66699 48 1.66699 100.667 -15 158s-42.667 91.666 -78 102.999l-61 18z" />
    <glyph glyph-name="asciitilde" unicode="~" horiz-adv-x="569" 
d="M483 185c0 -10.667 -6.83301 -19.498 -20.5 -26.498s-31.834 -10.5 -54.501 -10.5c-16 -0.666992 -33.167 1.66602 -51.5 6.99902s-46.166 16.333 -83.499 33c-25.333 12 -45 20.333 -59 25s-26 7 -36 7c-13.333 0 -26 -3.5 -38 -10.5s-23 -17.833 -33 -32.5
c-7.33301 -10.667 -13 -17 -17 -19s-9.33301 -3 -16 -3c-12.667 0 -20 4.5 -22 13.5s1.66699 20.5 11 34.5c19.333 28 45.5 45.833 78.5 53.5s68.5 5.16699 106.5 -7.5c104 -37.333 156.167 -56 156.5 -56s6.83301 2.33301 19.5 7c17.333 6 31.5 7.66699 42.5 5
s16.5 -9.33398 16.5 -20.001z" />
    <glyph glyph-name="exclamdown" unicode="&#xa1;" horiz-adv-x="362" 
d="M188 441c6.66699 0 13.332 -1.66797 19.999 -5.00098s12 -7.33301 16 -12c6 -9.33301 7.66699 -20.833 5 -34.5s-9 -25.167 -19 -34.5c-14 -12.667 -28 -18.167 -42 -16.5s-24.333 9.83398 -31 24.501c-5.33301 10.667 -6.16602 22.667 -2.49902 36s11.167 24 22.5 32
c4 2.66699 8.66699 5 14 7s11 3 17 3zM149.998 284.999c13.333 0 21.501 -6.50098 24.501 -19.501s1.5 -30.5 -4.5 -52.5c-15.333 -55.333 -35.833 -112.333 -61.5 -171s-49.5 -122 -71.5 -190c-17.333 -50.667 -27.5 -79.167 -30.5 -85.5s-6.5 -11.5 -10.5 -15.5
c-6 -6 -12.833 -8.83301 -20.5 -8.5s-13.834 2.83301 -18.501 7.5c-4 5.33301 -5.83301 12.333 -5.5 21s17.166 57.667 50.499 147l110 295l3 30c1.33301 16.667 4.83301 27.834 10.5 33.501s13.834 8.5 24.501 8.5z" />
    <glyph glyph-name="cent" unicode="&#xa2;" horiz-adv-x="430" 
d="M335 649c12 0 20.002 -4.50293 24.002 -13.5029s2 -20.167 -6 -33.5c-14 -22.667 -23.833 -40.667 -29.5 -54s-10.5 -28 -14.5 -44c16.667 -4.66699 31.667 -11.667 45 -21s24 -19.666 32 -30.999c11.333 -18.667 11 -32.167 -1 -40.5s-24 -8.16602 -36 0.500977
c-52.667 34.667 -79.334 52.167 -80.001 52.5s-2.33398 0.5 -5.00098 0.5c-40 0 -76.333 -20.667 -109 -62s-49 -83 -49 -125c0 -27.333 9.5 -49.333 28.5 -66s44.167 -25 75.5 -25c20 0 38.333 2.83301 55 8.5s37.667 17.834 63 36.501c11.333 8 20.5 12.167 27.5 12.5
s12.833 -1.83398 17.5 -6.50098c4 -4.66699 5.66699 -9.66699 5 -15s-4.33398 -11 -11.001 -17c-20.667 -18 -43.667 -32.167 -69 -42.5s-51.333 -15.5 -78 -15.5c-6.66699 -10.667 -13 -24.834 -19 -42.501s-9 -31.167 -9 -40.5c0 -3.33301 1 -7.66602 3 -12.999
s3 -9.33301 3 -12c0 -9.33301 -2.5 -16.666 -7.5 -21.999s-11.167 -8 -18.5 -8c-10.667 0 -18.5 3.5 -23.5 10.5s-7.5 16.5 -7.5 28.5c0 9.33301 1.83301 21.333 5.5 36s10.834 37 21.501 67c-34 3.33301 -61.333 16.333 -82 39s-31 51.667 -31 87
c0 49.333 19.667 98.5 59 147.5s88.333 75.833 147 80.5c29.333 85.333 47 130.5 53 135.5s13 7.5 21 7.5z" />
    <glyph glyph-name="sterling" unicode="&#xa3;" horiz-adv-x="598" 
d="M510 610c28.667 0 51.9941 -10.499 69.9941 -31.499s27.333 -48.5 28 -82.5c0 -25.333 -4.16699 -50.333 -12.5 -75s-19.166 -47.334 -32.499 -68.001c-9.33301 -13.333 -17.833 -21.166 -25.5 -23.499s-14.167 1.5 -19.5 11.5l-6 9l29 46
c7.33301 11.333 13.333 25.5 18 42.5s7 32.5 7 46.5c0 23.333 -5.66699 42.833 -17 58.5s-25.666 23.5 -42.999 23.5c-30.667 0 -62.167 -23.5 -94.5 -70.5s-60.166 -116.5 -83.499 -208.5c40.667 7.33301 74.334 8 101.001 2s40.334 -16.667 41.001 -32
c0 -9.33301 -4.66699 -15.833 -14 -19.5s-20 -2.16699 -32 4.5c-14 3.33301 -30.167 4.33301 -48.5 3s-38.833 -4.33301 -61.5 -9c-5.33301 -20 -11.833 -40.833 -19.5 -62.5s-16.167 -43.5 -25.5 -65.5c68 -51.333 115 -81.833 141 -91.5s50.333 -11.5 73 -5.5
c45.333 11.333 66.666 18 63.999 20s-3.33398 2.66699 -2.00098 2c7.33301 -8.66699 6 -18.5 -4 -29.5s-26.333 -20.167 -49 -27.5c-33.333 -9.33301 -65.5 -8.5 -96.5 2.5s-79.5 39.5 -145.5 85.5c-12.667 -26.667 -28.5 -47.5 -47.5 -62.5s-40.833 -22.5 -65.5 -22.5
c-35.333 0 -69.166 14.5 -101.499 43.5s-48.5 60.833 -48.5 95.5c0 20.667 8.66699 37.5 26 50.5s40 19.5 68 19.5c20.667 0 43.5 -4.66699 68.5 -14s49.833 -21.333 74.5 -36c6.66699 15.333 12.667 30.833 18 46.5s10.333 31.5 15 47.5c-54 -4 -96.333 -0.833008 -127 9.5
s-45.667 24.833 -45 43.5c-0.666992 9.33301 4 18 14 26s23.333 12 40 12c10 0 17.5 -2 22.5 -6s7.83301 -9.33301 8.5 -16c0 -14.667 -0.166992 -21.667 -0.5 -21s-0.166016 1 0.500977 1c3.33301 -5.33301 15.666 -8.5 36.999 -9.5s42 0.5 62 4.5
c24.667 103.333 57.834 184.666 99.501 243.999s88.834 89 141.501 89zM72.9941 142.001c-12.667 0 -22.335 -2.16895 -29.002 -6.50195s-10 -10.166 -10 -17.499c-0.666992 -9.33301 1.83301 -19 7.5 -29s13.167 -19.333 22.5 -28c13.333 -14 25.5 -24 36.5 -30
s21.833 -8.66699 32.5 -8c14.667 0 28.334 6.16699 41.001 18.5s23.334 28.833 32.001 49.5c-20 14.667 -42.167 26.834 -66.5 36.501s-46.5 14.5 -66.5 14.5z" />
    <glyph glyph-name="currency" unicode="&#xa4;" horiz-adv-x="595" 
d="M190 577l34.0039 -55.001c37.333 16.667 76 24 116 22s79.333 -14.333 118 -37c7.33301 10 13.166 19.333 17.499 28s12.833 22.667 25.5 42c4 6.66699 8.83301 11.834 14.5 15.501s12.5 5.5 20.5 5.5c2.66699 -0.666992 5.66699 -2 9 -4s5 -4 5 -6
c0 -6 -1.16699 -12.5 -3.5 -19.5s-5.5 -13.833 -9.5 -20.5l-40 -70c45.333 -54 65.5 -111.333 60.5 -172s-35.167 -112.334 -90.5 -155.001l29 -51c4 -7.33301 7.16699 -14.5 9.5 -21.5s3.5 -13.167 3.5 -18.5c0 -3.33301 -1.83301 -6.16602 -5.5 -8.49902
s-7.83398 -3.16602 -12.501 -2.49902c-6 0 -11.667 1.83301 -17 5.5s-10 9.16699 -14 16.5l-34 55c-41.333 -16.667 -82 -23.334 -122 -20.001s-76 14 -108 32l-40 -66l-15 -17c-4.66699 -5.33301 -11.5 -7 -20.5 -5s-13.5 5.66699 -13.5 11s1.16699 11.5 3.5 18.5
s5.5 14.167 9.5 21.5l38 66c-21.333 18.667 -37.333 41 -48 67s-16 54.333 -16 85c0 34 7 65.667 21 95s36.667 57 68 83l-29 51c-4.66699 6.66699 -8 13.5 -10 20.5s-3 13.5 -3 19.5c0 2.66699 1.66699 5.16699 5 7.5s7.66602 3.5 12.999 3.5s10.666 -2 15.999 -6
s10.333 -9.33301 15 -16zM328.004 500.999c-49.333 0 -93.333 -15.833 -132 -47.5s-58 -72.834 -58 -123.501c0 -52 16 -95 48 -129s78.333 -51 139 -51c57.333 0 103.333 18 138 54s52 77 52 123c0 48.667 -18 89.834 -54 123.501s-80.333 50.5 -133 50.5z" />
    <glyph glyph-name="yen" unicode="&#xa5;" horiz-adv-x="736" 
d="M309 51l114.999 -0.00488281c6 22.667 18 74.667 36 156s40.667 166 68 254c-128 -193.333 -205.333 -301.833 -232 -325.5s-51.334 -35.167 -74.001 -34.5c-30.667 -0.666992 -51.5 14.5 -62.5 45.5s-5.83301 74.167 15.5 129.5c76.667 199.333 115 297.333 115 294
s0 -3 0 1c0 28 -7.83301 52.333 -23.5 73s-33.5 33.334 -53.5 38.001c-20.667 4 -33 7.83301 -37 11.5s-5.66699 8.83398 -5 15.501c0 12 10.667 18 32 18s43 -6 65 -18c22.667 -13.333 40.5 -31.333 53.5 -54s19.5 -47 19.5 -73c0 -24.667 -4.5 -50.5 -13.5 -77.5
s-25.5 -63.833 -49.5 -110.5c-26 -49.333 -44.833 -90.166 -56.5 -122.499s-17.834 -59.833 -18.501 -82.5c-0.666992 -14 1.33301 -24.5 6 -31.5s12 -10.5 22 -10.5c18.667 0 47.834 24.667 87.501 74s80.167 108.666 121.5 177.999c31.333 53.333 55.5 96.833 72.5 130.5
s36.167 74.834 57.5 123.501c7.33301 16.667 15 29.167 23 37.5s16.667 12.5 26 12.5c12.667 0 20 -8.16699 22 -24.5s-2 -39.5 -12 -69.5c-44.667 -128.667 -77.334 -232.334 -98.001 -311.001s-38.667 -160.667 -54 -246l44 4c18.667 1.33301 33.334 -1.66699 44.001 -9
s16.334 -15.666 17.001 -24.999c0 -7.33301 -5 -12.666 -15 -15.999s-23.667 -2.66602 -41 2.00098c-9.33301 2 -19.5 3.33301 -30.5 4s-21.167 0.666992 -30.5 0c-17.333 -122 -26 -183.167 -26 -183.5s0.666992 -3.5 2 -9.5c5.33301 -26 5.5 -41.833 0.5 -47.5
s-12.833 -8.83398 -23.5 -9.50098c-12 0.666992 -21 5.33398 -27 14.001s-8.66699 21 -8 37c0 12 3.33301 35.833 10 71.5s13.334 77.167 20.001 124.5l-86 -7c-14.667 -1.33301 -27.167 0.666992 -37.5 6s-15.5 12.333 -15.5 21c0 6.66699 2.16699 12 6.5 16
s13.833 6 28.5 6z" />
    <glyph glyph-name="brokenbar" unicode="&#xa6;" horiz-adv-x="206" 
d="M108 740c10 0 17.8311 -4.66992 23.498 -14.0029s8.83398 -24 9.50098 -44v-14.5c0 -5 -2 -84.5 -6 -238.5c-1.33301 -28 -2.66602 -50.667 -3.99902 -68s-3.33301 -31.666 -6 -42.999c-3.33301 -11.333 -7.33301 -18.666 -12 -21.999s-10.667 -5 -18 -5
c-8.66699 0 -15.5 2.5 -20.5 7.5s-7.5 13.167 -7.5 24.5c-0.666992 2.66699 1.5 16.834 6.5 42.501s8.16699 61.5 9.5 107.5c1.33301 66.667 1.83301 115.167 1.5 145.5s-1.83301 52.833 -4.5 67.5c-4 16 -3.33301 29 2 39s14 15 26 15zM88.998 -326.003
c-14 0 -24.167 5.66406 -30.5 16.9971s-8.5 28.333 -6.5 51c0.666992 12.667 1.66699 33.167 3 61.5s2.66602 49.833 3.99902 64.5c2.66699 42.667 4 65 4 67s0.333008 4 1 6v29.5v32.5c-0.666992 10.667 -1.16699 21.5 -1.5 32.5s-0.166016 23.167 0.500977 36.5
c0 26.667 6.66699 43.834 20 51.501s25.666 5.5 36.999 -6.5c6 -7.33301 9.16699 -19.166 9.5 -35.499s-2.16699 -54.166 -7.5 -113.499c-4 -37.333 -6.66699 -78 -8 -122s-0.666016 -75.667 2.00098 -95c3.33301 -30.667 2.5 -51.167 -2.5 -61.5s-13.167 -15.5 -24.5 -15.5
z" />
    <glyph glyph-name="section" unicode="&#xa7;" horiz-adv-x="630" 
d="M418 771c66 0 119.997 -14.8311 161.997 -44.498s63 -66.834 63 -111.501c0 -17.333 -3.66699 -31.166 -11 -41.499s-15.333 -15.5 -24 -15.5c-8 0 -15 2 -21 6s-9 9.33301 -9 16c0 3.33301 2 8.66602 6 15.999s6.33301 15.666 7 24.999
c0 27.333 -16.5 51.666 -49.5 72.999s-75.833 32 -128.5 32c-66 0 -122 -13.167 -168 -39.5s-69 -57.5 -69 -93.5c0 -14 5.66699 -28 17 -42s61 -44 149 -90c85.333 -46 144 -86.333 176 -121s48 -72 48 -112c0 -22.667 -6.33301 -44.167 -19 -64.5s-31 -36.166 -55 -47.499
c2.66699 -8 4.83398 -16.833 6.50098 -26.5s2.5 -18.834 2.5 -27.501c-0.666992 -52.667 -30.5 -97.834 -89.5 -135.501s-131.167 -56.5 -216.5 -56.5c-54.667 0 -98.167 13.833 -130.5 41.5s-48.5 61.834 -48.5 102.501c0 30 7 55.667 21 77s31 32.333 51 33
c8.66699 0 16.5 -2.5 23.5 -7.5s10.5 -10.5 10.5 -16.5c-0.666992 -5.33301 -2.5 -10 -5.5 -14s-14.167 -12.333 -33.5 -25c-6 -8 -10.333 -16.667 -13 -26s-4 -18 -4 -26c0 -27.333 11.833 -50 35.5 -68s57.167 -27 100.5 -27c65.333 0 122.333 15 171 45s73 65.667 73 107
c0 24 -10.167 47.333 -30.5 70s-82.166 59.667 -185.499 111c-83.333 40 -132.166 69.667 -146.499 89s-21.5 41 -21.5 65s8.66699 46.667 26 68s41.333 38 72 50c-12 9.33301 -21 20.333 -27 33s-9 25.334 -9 38.001c0 44 27 85 81 123s125 57.333 213 58zM194.997 491.002
c-37.333 -4.66699 -62.499 -21.334 -75.499 -50.001s-9.5 -54.667 10.5 -78c1.33301 -2 -1.5 0.5 -8.5 7.5s80.167 -42.5 261.5 -148.5c22 -13.333 39.333 -25.166 52 -35.499s25 -21.833 37 -34.5c12.667 9.33301 22.667 21 30 35s11 29 11 45c0 25.333 -11.333 51 -34 77
s-117.334 86.667 -284.001 182z" />
    <glyph glyph-name="dieresis" unicode="&#xa8;" horiz-adv-x="403" 
d="M179 527c2.66699 0 5.49902 -0.666992 8.49902 -2s5.83301 -3 8.5 -5c6 -6.66699 8.66699 -16.167 8 -28.5s-4.33398 -21.833 -11.001 -28.5c-5.33301 -5.33301 -11.333 -8.5 -18 -9.5s-12.667 0.833008 -18 5.5c-4 2.66699 -7.16699 6.5 -9.5 11.5
s-3.16602 11.167 -2.49902 18.5c0 4.66699 1 9.66699 3 15s5.33301 10 10 14c2.66699 2.66699 5.83398 4.66699 9.50098 6s7.5 2.33301 11.5 3zM297.999 527c2.66699 -0.666992 5.50195 -1.49902 8.50195 -2.49902s5.83301 -2.16699 8.5 -3.5
c7.33301 -8 9.16602 -19.5 5.49902 -34.5s-10.5 -24.833 -20.5 -29.5c-5.33301 -3.33301 -11 -4.5 -17 -3.5s-10.667 3.16699 -14 6.5c-4.66699 4 -7.33398 10 -8.00098 18s0.666016 16.333 3.99902 25c2.66699 7.33301 6.83398 13.166 12.501 17.499s12.5 6.5 20.5 6.5z
" />
    <glyph glyph-name="copyright" unicode="&#xa9;" horiz-adv-x="625" 
d="M208 -26c-64 0 -114.667 16.167 -152 48.5s-56 78.5 -56 138.5c-0 88.667 41.333 182.167 124 280.5s164.667 147.5 246 147.5c13.333 0 24.833 -1.66699 34.5 -5s18.167 -9 25.5 -17c53.333 -24 94.333 -57.333 123 -100s43 -90 43 -142
c0 -92 -39.333 -173.5 -118 -244.5s-168.667 -106.5 -270 -106.5zM315 530l-44 -18.001c-28.667 -12 -62.5 -40.167 -101.5 -84.5s-69.167 -86.5 -90.5 -126.5c-27.333 -50 -41.166 -96.167 -41.499 -138.5s12.5 -77.833 38.5 -106.5c14.667 -17.333 33.167 -30 55.5 -38
s50.5 -12 84.5 -12c38 0 75.167 7.5 111.5 22.5s74.833 40.5 115.5 76.5c53.333 46.667 87.166 99.834 101.499 159.501s6.5 118.167 -23.5 175.5c-10 17.333 -19.833 31 -29.5 41s-30.5 25.333 -62.5 46c-9.33301 -2 -18.166 -2.33301 -26.499 -1s-16.166 5 -23.499 11
c-10.667 -1.33301 -21.334 -2.5 -32.001 -3.5s-21.334 -2.16699 -32.001 -3.5zM325 435.999c20 0 36.334 -6.33301 49.001 -19s20.334 -29.334 23.001 -50.001c3.33301 -2 6.16602 -4.16699 8.49902 -6.5s3.5 -4.83301 3.5 -7.5
c-0.666992 -9.33301 -5.33398 -19.166 -14.001 -29.499s-17.667 -15.5 -27 -15.5c-5.33301 0 -9.33301 1.16699 -12 3.5s-4 5.83301 -4 10.5c0 4 1.83301 8.66699 5.5 14s5.5 11.666 5.5 18.999c0 14 -4.16699 25.667 -12.5 35s-18.5 14 -30.5 14c-24 0 -50 -21 -78 -63
s-42 -81 -42 -117c-0.666992 -20.667 4 -35.834 14 -45.501s25.333 -14.5 46 -14.5c17.333 0 35.166 5.16699 53.499 15.5s34.5 24.833 48.5 43.5c4.66699 6.66699 9 11.5 13 14.5s8.33301 4.5 13 4.5c2.66699 0 5.33398 -1.16699 8.00098 -3.5s4 -4.83301 4 -7.5
c0 -17.333 -15.5 -37.666 -46.5 -60.999s-63.5 -34.666 -97.5 -33.999c-28.667 0 -51.167 8.5 -67.5 25.5s-24.5 39.833 -24.5 68.5c0 44 17 89.333 51 136s70.667 70 110 70z" />
    <glyph glyph-name="ordfeminine" unicode="&#xaa;" horiz-adv-x="251" 
d="M168 601c16 0 28.3301 -7.16992 36.9971 -21.5029s11.667 -34.833 9 -61.5c1.33301 -4.66699 1.66602 -9.33398 0.999023 -14.001s-4.66699 -15.667 -12 -33c-4.66699 -10.667 -9.16699 -22.167 -13.5 -34.5s-7.5 -24.5 -9.5 -36.5
c-0.666992 -3.33301 -1 -5.83301 -1 -7.5s0.333008 -3.16699 1 -4.5c0.666992 -2 1.33398 -3.33301 2.00098 -4s1.33398 -1 2.00098 -1s2.5 1 5.5 3s5.5 3 7.5 3c2.66699 0 5 -1.16699 7 -3.5s3 -5.16602 3 -8.49902c-0.666992 -6 -3.83398 -11.333 -9.50098 -16
s-12.5 -7 -20.5 -7c-11.333 0 -20 4.33301 -26 13s-7.66699 19.334 -5 32.001c-18 -20 -32.167 -33.333 -42.5 -40s-20.166 -10 -29.499 -10c-13.333 0 -24.166 6.33301 -32.499 19s-12.5 28.334 -12.5 47.001c0 27.333 11 59.333 33 96s44.333 62.334 67 77.001
c6.66699 4 13.334 7.16699 20.001 9.5s13 3.5 19 3.5zM142.997 558.997c-20.667 -14.667 -39.498 -37.168 -56.498 -67.501s-25.5 -57.166 -25.5 -80.499c-0.666992 -11.333 2.16602 -20 8.49902 -26s14.5 -6 24.5 0c7.33301 4 18.666 16.833 33.999 38.5
s27.333 40.5 36 56.5c-0.666992 2 -1 3.83301 -1 5.5s4.33301 9.5 13 23.5c1.33301 2.66699 2.5 7.16699 3.5 13.5s1.83301 13.5 2.5 21.5c0 6.66699 -1.5 12.167 -4.5 16.5s-7.5 6.5 -13.5 6.5c-3.33301 0 -6.83301 -0.666992 -10.5 -2s-7.16699 -3.33301 -10.5 -6z" />
    <glyph glyph-name="guillemotleft" unicode="&#xab;" horiz-adv-x="406" 
d="M99 139l4.99902 -11.001c7.33301 -18 18.5 -35.5 33.5 -52.5s23.5 -26.5 25.5 -28.5c4 -7.33301 5.66699 -14.166 5 -20.499s-3.66699 -11.833 -9 -16.5c-7.33301 -6 -15 -8 -23 -6s-17 9.33301 -27 22c-9.33301 10 -20.833 25.5 -34.5 46.5s-22.834 38.167 -27.501 51.5
c-2.66699 5.33301 -3.66699 9.83301 -3 13.5s6.33398 13.5 17.001 29.5c11.333 17.333 28 37.666 50 60.999s41 40 57 50c10 6 18.833 7.66699 26.5 5s11.834 -8.66699 12.501 -18c0 -1.33301 0.333008 -0.166016 1 3.50098s-27 -28.833 -83 -97.5zM228.999 141.999
l8.00391 -14.002c6.66699 -12 13.167 -22.833 19.5 -32.5s18.5 -24.5 36.5 -44.5c6 -7.33301 9.33301 -14.333 10 -21s-2 -12.667 -8 -18s-13 -8.16602 -21 -8.49902s-16.333 2.83398 -25 9.50098c-10 6.66699 -21.333 20.5 -34 41.5s-24 43.5 -34 67.5
c-2.66699 4.66699 -4.33398 8.5 -5.00098 11.5s-1 5.5 -1 7.5c0 3.33301 1.5 7.83301 4.5 13.5s8.5 12.834 16.5 21.501c19.333 22 42.166 44.667 68.499 68s47.5 39.333 63.5 48c16 8 27.667 7.16699 35 -2.5s4.66602 -21.167 -8.00098 -34.5
c-3.33301 -3.33301 -6.5 -6.33301 -9.5 -9s-15.833 -13.334 -38.5 -32.001c-14.667 -11.333 -26.334 -21 -35.001 -29l-23 -22z" />
    <glyph glyph-name="logicalnot" unicode="&#xac;" horiz-adv-x="453" 
d="M335 163c-27.333 0.666992 -65.835 0.333008 -115.502 -1s-88.834 -3.33301 -117.501 -6c-21.333 -2 -36.166 0.833008 -44.499 8.5s-9.16602 18.5 -2.49902 32.5c1.33301 4 3.5 7 6.5 9s7.83301 3 14.5 3c2.66699 0 10.334 -0.666992 23.001 -2s23.667 -2 33 -2
c34 -2 65.5 -2.66699 94.5 -2s55.833 2.66699 80.5 6c16.667 2 28.334 3.33301 35.001 4s12.667 1 18 1c15.333 -0.666992 25.833 -5.5 31.5 -14.5s4.5 -18.5 -3.5 -28.5c-6 -17.333 -13 -35.5 -21 -54.5s-15.333 -35.5 -22 -49.5s-14 -23.5 -22 -28.5s-15.333 -4.5 -22 1.5
c-4.66699 3.33301 -7.33398 7.66602 -8.00098 12.999s0.666016 12.333 3.99902 21c0.666992 1.33301 1.33398 2.83301 2.00098 4.5s12.667 29.834 36 84.501z" />
    <glyph glyph-name="hyphen" unicode="&#xad;" horiz-adv-x="307" 
d="M194 244c2 -0.666992 4.50195 -1.16602 7.50195 -1.49902s6.83301 -0.833008 11.5 -1.5c11.333 -3.33301 18.333 -9.66602 21 -18.999s1.33398 -17 -3.99902 -23c-4 -4 -8.33301 -6.83301 -13 -8.5s-12.667 -1.5 -24 0.5c-5.33301 0 -10.5 0.166992 -15.5 0.5
s-13.5 0.166016 -25.5 -0.500977c-53.333 -3.33301 -82.666 -4.5 -87.999 -3.5s-9.33301 2.83301 -12 5.5c-4.66699 3.33301 -7.33398 8 -8.00098 14s0.666016 11.667 3.99902 17s7.66602 9.16602 12.999 11.499s14 3.5 26 3.5c18 -0.666992 28.5 -1 31.5 -1
s5.83301 0.333008 8.5 1c11.333 0 23.666 0.833008 36.999 2.5s23.333 2.5 30 2.5z" />
    <glyph glyph-name="registered" unicode="&#xae;" horiz-adv-x="619" 
d="M208 -26c-64 0 -114.667 16.167 -152 48.5s-56 78.5 -56 138.5c-0 88.667 41.333 182.167 124 280.5s164.667 147.5 246 147.5c13.333 0 24.833 -1.66699 34.5 -5s18.167 -9 25.5 -17c53.333 -24 94.333 -57.333 123 -100s43 -90 43 -142
c0 -92 -39.333 -173.5 -118 -244.5s-168.667 -106.5 -270 -106.5zM315 530l-44 -18.001c-28.667 -12 -62.5 -40.167 -101.5 -84.5s-69.167 -86.5 -90.5 -126.5c-27.333 -50 -41.166 -96.167 -41.499 -138.5s12.5 -77.833 38.5 -106.5c14.667 -17.333 33.167 -30 55.5 -38
s50.5 -12 84.5 -12c38 0 75.167 7.5 111.5 22.5s74.833 40.5 115.5 76.5c53.333 46.667 87.166 99.834 101.499 159.501s6.5 118.167 -23.5 175.5c-10 17.333 -19.833 31 -29.5 41s-30.5 25.333 -62.5 46c-9.33301 -2 -18.166 -2.33301 -26.499 -1s-16.166 5 -23.499 11
c-10.667 -1.33301 -21.334 -2.5 -32.001 -3.5s-21.334 -2.16699 -32.001 -3.5zM176 305.999c18.667 60 31.9961 97.6689 39.9961 113.002s17 23 27 23c5.33301 0 9.66602 -1.66699 12.999 -5s5 -8 5 -14c0 -1.33301 -0.166992 -2 -0.5 -2s-4.16602 -9 -11.499 -27
c14 12 30.333 22 49 30s36.334 12 53.001 12c18.667 0 32.834 -5.16699 42.501 -15.5s14.5 -25.166 14.5 -44.499c0 -32.667 -15.5 -64.834 -46.5 -96.501s-67.5 -48.834 -109.5 -51.501c10.667 -9.33301 20.334 -17.166 29.001 -23.499s40.667 -25.5 96 -57.5
c14 0.666992 23.5 -0.5 28.5 -3.5s7.83301 -7.83301 8.5 -14.5c0 -11.333 -5.33301 -18.333 -16 -21s-24 0.666016 -40 9.99902c-20.667 10.667 -42.167 24 -64.5 40s-42.833 32.333 -61.5 49c-8.66699 0.666992 -16.667 3.16699 -24 7.5s-14 9.5 -20 15.5
c-25.333 -76.667 -37.5 -114.834 -36.5 -114.501s0.833008 0.5 -0.5 0.5c-7.33301 0 -12.833 1.83301 -16.5 5.5s-5.5 9.5 -5.5 17.5c-0.666992 6.66699 2.33301 21.667 9 45s19.334 64 38.001 122zM343.996 399.001c-30.667 0 -60.5 -12.5 -89.5 -37.5
s-47.833 -56.5 -56.5 -94.5c8 0.666992 15 0 21 -2s11 -5.66699 15 -11c27.333 -3.33301 57.333 8 90 34s49 52.667 49 80c0 10 -2.66699 17.667 -8 23s-12.333 8 -21 8z" />
    <glyph glyph-name="Macron" unicode="&#xaf;" horiz-adv-x="569" 
d="M590 825c0 -4 -1.16699 -7.82812 -3.5 -11.4951s-5.5 -6.83398 -9.5 -9.50098c-6.66699 -5.33301 -16.834 -8.66602 -30.501 -9.99902s-30.167 -1 -49.5 1c-89.333 6 -139.833 8.83301 -151.5 8.5s-22.5 -0.833008 -32.5 -1.5c-30 -3.33301 -48.5 -3 -55.5 1
s-10.5 10.333 -10.5 19c0 7.33301 2.66699 13.666 8 18.999s13.333 9.66602 24 12.999c12.667 3.33301 28.334 5.66602 47.001 6.99902s53.334 -0.333984 104.001 -5.00098c20 -2 39.333 -3.83301 58 -5.5s31.667 -2.16699 39 -1.5c31.333 0 49.666 -1.83301 54.999 -5.5
s8 -9.83398 8 -18.501z" />
    <glyph glyph-name="degree" unicode="&#xb0;" horiz-adv-x="491" 
d="M242 674c43.333 0 80 -13.499 110 -40.499s45 -61.5 45 -103.5c0 -38.667 -14.667 -71.834 -44 -99.501s-64 -41.5 -104 -41.5c-45.333 0 -82.5 13.167 -111.5 39.5s-43.5 59.166 -43.5 98.499c0 40.667 14.667 75.334 44 104.001s64 43 104 43zM246 626.001
c-26 0 -49.333 -8.66699 -70 -26s-31 -40 -31 -68c0 -29.333 8.16699 -52.833 24.5 -70.5s39.833 -26.5 70.5 -26.5c30 0 55.167 8.83301 75.5 26.5s30.5 40.5 30.5 68.5c-0.666992 26.667 -10.5 49.167 -29.5 67.5s-42.5 27.833 -70.5 28.5z" />
    <glyph glyph-name="plusminus" unicode="&#xb1;" horiz-adv-x="473" 
d="M297 544c6.66699 0 10.502 -3.33008 11.502 -9.99707s-1.5 -16.334 -7.5 -29.001c-6.66699 -14 -14.5 -35 -23.5 -63s-15.5 -51.333 -19.5 -70c8 0 21 0.833008 39 2.5s32 2.5 42 2.5c30.667 0 49.334 -2 56.001 -6s10 -9.66699 10 -17c0 -8.66699 -2.66699 -15 -8 -19
s-14 -6 -26 -6c-7.33301 0 -16.833 0.166992 -28.5 0.5s-20.167 0.5 -25.5 0.5c-22 -0.666992 -38 -1 -48 -1h-23c-22.667 -66.667 -35.334 -102 -38.001 -106s-5.66699 -7.66699 -9 -11c-4.66699 -4.66699 -9.33398 -8.33398 -14.001 -11.001s-9.33398 -4 -14.001 -4
c-3.33301 0 -6.16602 0.833008 -8.49902 2.5s-3.83301 4.5 -4.5 8.5c-0.666992 2 -1.16699 4.16699 -1.5 6.5s0.166992 5.16602 1.5 8.49902c0.666992 4 5.5 14.5 14.5 31.5s18.5 41.833 28.5 74.5c-21.333 -2.66699 -39.833 -4.5 -55.5 -5.5s-28.5 -1.5 -38.5 -1.5
c-18 0 -31.167 2.16699 -39.5 6.5s-12.5 10.5 -12.5 18.5c0 7.33301 2.66699 13.5 8 18.5s12.333 7.83301 21 8.5c5.33301 0 15.5 -1 30.5 -3s47.5 -1.66699 97.5 1c30.667 98 50.167 151.167 58.5 159.5s17.166 12.5 26.499 12.5zM44.002 178.003l1.00098 0.499023
c0.666992 0.333008 13 0.5 37 0.5c6 0 15 -0.333008 27 -1s21 -1 27 -1c47.333 0 85 1 113 3s46.667 3 56 3c10.667 0 18.834 -2.33301 24.501 -7s8.5 -10.667 8.5 -18c-0.666992 -8.66699 -3.83398 -15 -9.50098 -19s-21.834 -5.66699 -48.501 -5
c-7.33301 0 -17.333 0.166992 -30 0.5s-21.667 0.5 -27 0.5c-49.333 0 -89.5 -1.16699 -120.5 -3.5s-45.167 -3.5 -42.5 -3.5c-10.667 0 -19.167 1.83301 -25.5 5.5s-9.16602 9.83398 -8.49902 18.501c0 4.66699 1.66699 9.5 5 14.5s7.66602 8.83301 12.999 11.5z" />
    <glyph glyph-name="twosuperior" unicode="&#xb2;" horiz-adv-x="420" 
d="M165 571c20 6.66699 40.498 12 61.498 16s40.833 6 59.5 6c37.333 0 65.5 -7.5 84.5 -22.5s28.5 -33.833 28.5 -56.5c0 -33.333 -16.833 -69.5 -50.5 -108.5s-90.5 -87.5 -170.5 -145.5c26 2.66699 49.833 0.333984 71.5 -6.99902s32.5 -17 32.5 -29
c0 -10.667 -4 -17.667 -12 -21s-16.667 -1.33301 -26 6c-13.333 9.33301 -23.5 14.833 -30.5 16.5s-16.167 2.5 -27.5 2.5c-26 -0.666992 -48.833 -3 -68.5 -7s-39.5 -10.333 -59.5 -19c-16 -7.33301 -28.667 -10 -38 -8s-14 8.66699 -14 20c0 12.667 -0.166992 19 -0.5 19
s22.5 6.33301 68.5 19c12 2.66699 26.667 8.83398 44 18.501s40.333 24.167 69 43.5c40 27.333 78.667 60.333 116 99s56 70 56 94c-0.666992 15.333 -6.5 27.5 -17.5 36.5s-26.833 13.5 -47.5 13.5c-64.667 0 -119.667 -13.833 -165 -41.5s-67.666 -55.167 -66.999 -82.5
c0 -12.667 4.33301 -23.167 13 -31.5s20.334 -12.5 35.001 -12.5c4 0 10 0.666992 18 2s14.333 2.33301 19 3c6.66699 0 12.167 -1.83301 16.5 -5.5s6.5 -7.83398 6.5 -12.501c0 -6.66699 -4 -12.334 -12 -17.001s-19 -7 -33 -7c-32 0 -57.5 7.33301 -76.5 22
s-28.5 34 -28.5 58c0 26 14 52 42 78s62.333 46.333 103 61z" />
    <glyph glyph-name="threesuperior" unicode="&#xb3;" horiz-adv-x="400" 
d="M280 412c26.667 -2 49.9951 -11.167 69.9951 -27.5s30 -35.5 30 -57.5c0 -33.333 -22.167 -63 -66.5 -89s-99.166 -39 -164.499 -39c-49.333 0 -89.166 9.16699 -119.499 27.5s-45.5 41.166 -45.5 68.499c0 12.667 4.33301 25.334 13 38.001s19.334 19 32.001 19
c4.66699 0 8.83398 -1 12.501 -3s6.5 -4.66699 8.5 -8c1.33301 -3.33301 1.66602 -6.66602 0.999023 -9.99902s-5 -9 -13 -17c-18.667 -19.333 -16.167 -37.166 7.5 -53.499s57.5 -24.5 101.5 -24.5c50 -0.666992 94 7.66602 132 24.999s57 38 57 62
c0 21.333 -14.167 37.5 -42.5 48.5s-67.166 12.5 -116.499 4.5c-28.667 -5.33301 -46.834 -5.83301 -54.501 -1.5s-11.167 11.5 -10.5 21.5v3.5c0 1 32.667 9.5 98 25.5c33.333 8 66 23.5 98 46.5s48 44.167 48 63.5c0 12.667 -7.83301 23.667 -23.5 33s-34.167 14 -55.5 14
c-65.333 0 -117 -14.167 -155 -42.5s-44.667 -48.5 -20 -60.5c34.667 -18.667 52 -27.5 52 -26.5s0 1.16699 0 0.5c0 -6.66699 -2.16699 -11.334 -6.5 -14.001s-11.166 -4 -20.499 -4c-23.333 0 -43.166 6.16699 -59.499 18.5s-24.5 26.833 -24.5 43.5
c0 26 24.5 52.5 73.5 79.5s99.833 40.5 152.5 40.5c41.333 0 73.5 -8.16699 96.5 -24.5s34.5 -34.833 34.5 -55.5c0 -20 -12 -42 -36 -66s-52 -43.667 -84 -59z" />
    <glyph glyph-name="acute" unicode="&#xb4;" horiz-adv-x="578" 
d="M474 569c9.33301 0 15.668 -5.16797 19.001 -15.501s0.666016 -21.5 -8.00098 -33.5c-6 -8.66699 -17.833 -20.167 -35.5 -34.5s-33.5 -26.166 -47.5 -35.499c-14.667 -10 -27.334 -13.5 -38.001 -10.5s-16 10.167 -16 21.5c0 6.66699 1.66699 12.167 5 16.5
s11.333 9.16602 24 14.499c11.333 4 21.833 9.5 31.5 16.5s25.834 23.167 48.501 48.5c4 4.66699 7.16699 7.83398 9.5 9.50098s4.83301 2.5 7.5 2.5z" />
    <glyph glyph-name="mu1" unicode="&#xb5;" horiz-adv-x="557" 
d="M227 154l22.0029 30.998c16 22.667 38.167 49 66.5 79s50.833 50 67.5 60c18.667 11.333 33 12.833 43 4.5s13 -24.5 9 -48.5c-0.666992 -1.33301 -0.666992 -0.5 0 2.5s-13 -54.167 -41 -171.5c-3.33301 -12 -5.5 -22 -6.5 -30s-1.5 -17.667 -1.5 -29
c0 -5.33301 2.16699 -7.83301 6.5 -7.5s9.5 2.83301 15.5 7.5c23.333 18 43.833 40.667 61.5 68s30.834 57 39.501 89c2.66699 10.667 6.16699 18.167 10.5 22.5s9.83301 6.5 16.5 6.5c6 0 11 -1.83301 15 -5.5s6 -9.16699 6 -16.5
c-0.666992 -6 -2.83398 -14.833 -6.50098 -26.5s-7.83398 -22.834 -12.501 -33.501c-10 -22 -26.667 -48.167 -50 -78.5s-45.666 -53.166 -66.999 -68.499s-38.333 -23.666 -51 -24.999s-22.334 3.66699 -29.001 15c-6 8.66699 -9 20.334 -9 35.001s3 34.334 9 59.001
c3.33301 16.667 8.33301 38.5 15 65.5s12.334 47.833 17.001 62.5c2.66699 10 4.33398 17.667 5.00098 23s0.666992 9.33301 0 12c-2 2.66699 -4.5 3.5 -7.5 2.5s-11.5 -9.16699 -25.5 -24.5c-22 -24 -36.833 -41 -44.5 -51s-40.5 -57.667 -98.5 -143
c-10.667 -16 -19.167 -26.833 -25.5 -32.5s-11.833 -8.5 -16.5 -8.5c-6.66699 0 -10.834 3.5 -12.501 10.5s1.16602 27.833 8.49902 62.5c2 10.667 5.5 27.667 10.5 51l11.5 54l5.5 31c2.33301 13.333 4.16602 22.666 5.49902 27.999c3.33301 18.667 4.5 30 3.5 34
s-3.16699 6 -6.5 6s-7.5 -2 -12.5 -6s-10.5 -9.33301 -16.5 -16c-27.333 -31.333 -50.833 -68.5 -70.5 -111.5s-33.5 -86.167 -41.5 -129.5c-9.33301 -44.667 -11.833 -79.667 -7.5 -105s6.5 -41 6.5 -47c-0.666992 -10 -4 -18.167 -10 -24.5s-14 -9.5 -24 -9.5
c-8 0 -15 5.83301 -21 17.5s-9 27.5 -9 47.5c0 17.333 1.5 35.333 4.5 54s8.5 43.667 16.5 75c16 61.333 36.5 116.333 61.5 165s54.167 90 87.5 124c13.333 13.333 26.333 24.166 39 32.499s24 12.5 34 12.5c11.333 0 19.666 -5.16699 24.999 -15.5
s6.33301 -27.166 3 -50.499c-0.666992 -1.33301 -0.5 0.666992 0.5 6s-7.16699 -41.667 -24.5 -141z" />
    <glyph glyph-name="paragraph" unicode="&#xb6;" horiz-adv-x="899" 
d="M467 602l-68.999 -16.001c-47.333 -11.333 -91.833 -31.833 -133.5 -61.5s-77.5 -68.834 -107.5 -117.501c-52.667 -85.333 -56.167 -147.666 -10.5 -186.999s99.5 -42.666 161.5 -9.99902c3.33301 8.66699 5.16602 13.167 5.49902 13.5s20.5 52.5 60.5 156.5
c6 16 13.667 35 23 57zM291.001 155.999c-87.333 -20.667 -152.331 -8.8291 -194.998 35.5039s-47.667 105.5 -15 183.5c16 38.667 40.333 76.334 73 113.001s71.334 68 116.001 94c30.667 17.333 64.334 32.166 101.001 44.499s74 21.166 112 26.499
c8.66699 7.33301 17.5 11.166 26.5 11.499s18.167 -3.5 27.5 -11.5c28.667 1.33301 57.167 2.16602 85.5 2.49902s56.166 0.5 83.499 0.5c8.66699 6 17.167 9 25.5 9s16.5 -2.66699 24.5 -8c33.333 0 63.333 -2 90 -6s43 -9.66699 49 -17
c7.33301 -11.333 6.66602 -22.166 -2.00098 -32.499s-23.334 -12.5 -44.001 -6.5c-26 6.66699 -45.333 10.667 -58 12s-26.334 1.66602 -41.001 0.999023c-6 -13.333 -11.333 -25.833 -16 -37.5l-67 -160.5l-22.5 -53.5c-7 -17 -24.5 -66.5 -52.5 -148.5
c-27.333 -78 -43.166 -125.667 -47.499 -143s-6.5 -30.333 -6.5 -39s2.16699 -17.834 6.5 -27.501s3.5 -18.5 -2.5 -26.5c-6 -6.66699 -14.833 -10.167 -26.5 -10.5s-20.834 3.16699 -27.501 10.5c-1.33301 1.33301 -8 11.5 -20 30.5s62.333 220.833 223 605.5
c-28.667 0 -56.5 -0.166992 -83.5 -0.5s-53.5 -1.16602 -79.5 -2.49902c-38 -81.333 -83 -190.166 -135 -326.499s-78 -220.5 -78 -252.5c0 -8.66699 2.16699 -17.834 6.5 -27.501s3.5 -18.5 -2.5 -26.5c-6 -6.66699 -14.833 -10.167 -26.5 -10.5
s-20.834 3.16699 -27.501 10.5c-8.66699 9.33301 -12.167 25.166 -10.5 47.499s13.834 67.833 36.501 136.5z" />
    <glyph glyph-name="cedilla" unicode="&#xb8;" horiz-adv-x="125" 
d="M72 0l48.001 -0.000976562c-1.33301 -2 -1.83301 -2.66699 -1.5 -2s0.5 -26.333 0.5 -81c-0.666992 -19.333 -7.83398 -37 -21.501 -53s-29.167 -24 -46.5 -24c-8 0 -14.333 1.83301 -19 5.5s-7 7.83398 -7 12.501c0 10.667 8.16699 20 24.5 28s24.5 19.333 24.5 34
c0 2 -2 11.5 -6 28.5s-2.66699 34.167 4 51.5z" />
    <glyph glyph-name="onesuperior" unicode="&#xb9;" horiz-adv-x="420" 
d="M273 571c2 1.33301 4.33301 2.5 7 3.5s5.66699 1.5 9 1.5c10.667 0 17.5 -4.5 20.5 -13.5s0.833008 -22.833 -6.5 -41.5c-54.667 -140 -84.5 -219.333 -89.5 -238s-7.83301 -33.667 -8.5 -45c-2 -20 -5 -32.5 -9 -37.5s-9.66699 -7.5 -17 -7.5
c-12.667 -0.666992 -20 4.5 -22 15.5s0.333008 26.5 7 46.5c49.333 146.667 73.166 218.167 71.499 214.5s-1.16699 -2.83398 1.5 2.49902c-12 -10 -23.333 -18 -34 -24s-19.667 -8.66699 -27 -8c-6 0 -10.667 1.5 -14 4.5s-5 7.16699 -5 12.5c0 6.66699 1.83301 12 5.5 16
s11.5 8 23.5 12c10 2.66699 22.5 10.334 37.5 23.001s25.833 24.667 32.5 36c8.66699 15.333 13.334 23.5 14.001 24.5s1.66699 1.83301 3 2.5z" />
    <glyph glyph-name="ordmasculine" unicode="&#xba;" horiz-adv-x="198" 
d="M118 566c19.333 -0.666992 35.335 -9.16797 48.002 -25.501s19 -36.166 19 -59.499c0 -34.667 -11.333 -64.667 -34 -90s-47.334 -38 -74.001 -38c-20 0 -36.167 6.33301 -48.5 19s-18.5 30 -18.5 52c0 31.333 11.667 62.833 35 94.5s47.666 47.5 72.999 47.5z
M117.002 535.999h-4c-4.66699 -9.33301 -17.334 -20.333 -38.001 -33s-31 -38.667 -31 -78c-0.666992 -14.667 2.33301 -26 9 -34s15.334 -12 26.001 -12c17.333 0 33.5 9.5 48.5 28.5s22.5 43.5 22.5 73.5c0 16 -2.5 28.333 -7.5 37s-13.5 14.667 -25.5 18z" />
    <glyph glyph-name="guillemotright" unicode="&#xbb;" horiz-adv-x="385" 
d="M291 163l-9.00391 15.998c-10 16.667 -17.167 28.334 -21.5 35.001s-12.166 16.334 -23.499 29.001c-10 10 -15.5 19 -16.5 27s2.5 15.333 10.5 22c6.66699 5.33301 14 7 22 5s17.333 -9 28 -21c8.66699 -10.667 19.834 -26.5 33.501 -47.5s23.167 -37.833 28.5 -50.5
c2 -6 2.66699 -10.833 2 -14.5s-6 -13.167 -16 -28.5c-9.33301 -14 -20.666 -28.5 -33.999 -43.5s-28 -29.833 -44 -44.5c-17.333 -16 -30.666 -25.667 -39.999 -29s-16.666 -2 -21.999 4c-4.66699 3.33301 -6.83398 7.83301 -6.50098 13.5s3.5 12.5 9.5 20.5l6 8l35 33
l18.5 18.5c5 5 9.5 10.167 13.5 15.5zM160.996 159.998l-8.00195 13.999l-20.5 31.5c-6.33301 9.66699 -18.166 24.834 -35.499 45.501c-6.66699 6.66699 -10.334 13.334 -11.001 20.001s2.33301 13 9 19c5.33301 4.66699 12 7.16699 20 7.5s16.667 -2.5 26 -8.5
c9.33301 -7.33301 20.333 -21.5 33 -42.5s24.334 -43.167 35.001 -66.5c2 -5.33301 3.5 -9.5 4.5 -12.5s1.5 -5.16699 1.5 -6.5c0 -4 -1.66699 -8.83301 -5 -14.5s-8.66602 -12.5 -15.999 -20.5c-20 -22.667 -43.167 -45.667 -69.5 -69s-47.166 -39 -62.499 -47
c-7.33301 -4 -13.833 -6.16699 -19.5 -6.5s-10.167 1.5 -13.5 5.5c-7.33301 6 -9.16602 13.333 -5.49902 22s16.167 21.667 37.5 39c27.333 22 45.666 37.167 54.999 45.5s17.666 16.166 24.999 23.499z" />
    <glyph glyph-name="onequarter" unicode="&#xbc;" horiz-adv-x="754" 
d="M657 398c14 0 22.6709 -5.50195 26.0039 -16.502s2 -25.833 -4 -44.5c-8 -24.667 -20.333 -58.667 -37 -102s-32.334 -82 -47.001 -116l35.5 2.5c14.333 1 25.833 1.5 34.5 1.5c11.333 0 20.666 -1.5 27.999 -4.5s11 -6.83301 11 -11.5c0 -8 -2.33301 -14 -7 -18
s-11.334 -6 -20.001 -6c-11.333 -0.666992 -23.833 -0.166992 -37.5 1.5s-32.834 0.833984 -57.501 -2.49902c-11.333 -23.333 -16.833 -35 -16.5 -35h0.5v-13c0 -3.33301 1.66699 -9.66602 5 -18.999c1.33301 -7.33301 -0.666992 -14.333 -6 -21s-12 -10 -20 -10
c-7.33301 0 -13.5 3.33301 -18.5 10s-7.5 15.667 -7.5 27c-0.666992 7.33301 0.5 15.833 3.5 25.5s7.16699 19.167 12.5 28.5c-40 -2 -71.167 -3.16699 -93.5 -3.5s-41.5 -0.5 -57.5 -0.5c-21.333 0 -36.833 3.5 -46.5 10.5s-14.5 18.5 -14.5 34.5
c0 11.333 4.16699 23.833 12.5 37.5s22.5 29.5 42.5 47.5c42 38 77.333 68.333 106 91s72.667 52.667 132 90c9.33301 6 17 10.167 23 12.5s12 3.5 18 3.5zM641.004 349.998c-28 -14 -63.332 -37.5 -105.999 -70.5s-84.334 -68.167 -125.001 -105.5
c-14.667 -14 -25.667 -25.5 -33 -34.5s-11 -15.833 -11 -20.5c0 -3.33301 3.66699 -5.83301 11 -7.5s17.333 -2.5 30 -2.5c27.333 -0.666992 51 -0.5 71 0.5s43 2.83301 69 5.5c39.333 93.333 63 150.333 71 171s15.667 42 23 64zM181.005 577.998
c6 0 11.0049 -2.16797 15.0049 -6.50098s6.33301 -8.83301 7 -13.5c-0.666992 -4.66699 -2.16699 -11 -4.5 -19s-9.16602 -25 -20.499 -51s-27.833 -72.167 -49.5 -138.5s-32.5 -106.5 -32.5 -120.5c-0.666992 -14 -3.16699 -23.5 -7.5 -28.5s-10.833 -7.5 -19.5 -7.5
c-10.667 0 -16.834 5.33301 -18.501 16s1.16602 27 8.49902 49c7.33301 23.333 12.666 41.5 15.999 54.5s10.333 34.167 21 63.5c9.33301 27.333 15.666 46.333 18.999 57l13 41c-8.66699 -8.66699 -18.5 -15.834 -29.5 -21.501s-20.5 -8.5 -28.5 -8.5
c-7.33301 0 -12.5 1.33301 -15.5 4s-4.5 7.33398 -4.5 14.001c0 4.66699 1 8.66699 3 12s9 7.33301 21 12c13.333 4.66699 28.5 13.667 45.5 27s27.833 25 32.5 35c7.33301 16.667 12.666 25.834 15.999 27.501s7.66602 2.5 12.999 2.5zM476.01 539.997
c5.33301 0 9.5 -1.33301 12.5 -4s4.5 -6.66699 4.5 -12c-0.666992 -6.66699 -2.16699 -13 -4.5 -19s-6.16602 -12.333 -11.499 -19c9.33301 11.333 -6 -4.83398 -46 -48.501s-98 -114.5 -174 -212.5l-53 -69.5l-50 -65.5c-8 -9.33301 -14.333 -17.5 -19 -24.5
s-10 -24.167 -16 -51.5c-3.33301 -12 -8.5 -21.167 -15.5 -27.5s-14.5 -9.5 -22.5 -9.5c-12 0.666992 -20 6.33398 -24 17.001s-1.66699 24 7 40c14 26 65.667 96.5 155 211.5l203 255.5c12 14 22.167 24 30.5 30s16.166 9 23.499 9z" />
    <glyph glyph-name="onehalf" unicode="&#xbd;" horiz-adv-x="796" 
d="M181 578c6 0 11.0049 -2.16797 15.0049 -6.50098s6.33301 -8.83301 7 -13.5c-0.666992 -4.66699 -2.16699 -11 -4.5 -19s-9.16602 -25 -20.499 -51s-27.833 -72.167 -49.5 -138.5s-32.5 -106.5 -32.5 -120.5c-0.666992 -14 -3.16699 -23.5 -7.5 -28.5
s-10.833 -7.5 -19.5 -7.5c-10.667 0 -16.834 5.33301 -18.501 16s1.16602 27 8.49902 49c7.33301 23.333 12.666 41.5 15.999 54.5s10.333 34.167 21 63.5c9.33301 27.333 15.666 46.333 18.999 57l13 41c-8.66699 -8.66699 -18.5 -15.834 -29.5 -21.501
s-20.5 -8.5 -28.5 -8.5c-7.33301 0 -12.5 1.33301 -15.5 4s-4.5 7.33398 -4.5 14.001c0 4.66699 1 8.66699 3 12s9 7.33301 21 12c13.333 4.66699 28.5 13.667 45.5 27s27.833 25 32.5 35c7.33301 16.667 12.666 25.834 15.999 27.501s7.66602 2.5 12.999 2.5z
M476.005 539.999c5.33301 0 9.5 -1.33301 12.5 -4s4.5 -6.66699 4.5 -12c-0.666992 -6.66699 -2.16699 -13 -4.5 -19s-6.16602 -12.333 -11.499 -19c9.33301 11.333 -6 -4.83398 -46 -48.501s-98 -114.5 -174 -212.5l-53 -69.5l-50 -65.5
c-8 -9.33301 -14.333 -17.5 -19 -24.5s-10 -24.167 -16 -51.5c-3.33301 -12 -8.5 -21.167 -15.5 -27.5s-14.5 -9.5 -22.5 -9.5c-12 0.666992 -20 6.33398 -24 17.001s-1.66699 24 7 40c14 26 65.667 96.5 155 211.5l203 255.5c12 14 22.167 24 30.5 30s16.166 9 23.499 9z
M429.005 322.999c24.667 19.333 55.3281 35.001 91.9951 47.001s73.334 18 110.001 18c52.667 0 87.834 -15.667 105.501 -47s10.834 -70 -20.499 -116c-13.333 -19.333 -29.333 -38.333 -48 -57s-64 -56.334 -136 -113.001c13.333 0.666992 26.666 0 39.999 -2
s24.666 -5 33.999 -9c6.66699 -4 11.834 -8.66699 15.501 -14s5.83398 -13.666 6.50098 -24.999c0 -3.33301 -1.83301 -5.83301 -5.5 -7.5s-7.5 -2.5 -11.5 -2.5c-1.33301 0 -2.66602 0.166992 -3.99902 0.5s-9.66602 6.16602 -24.999 17.499
c-10.667 7.33301 -34.167 9.33301 -70.5 6s-69.5 -10 -99.5 -20c-19.333 -6 -33.333 -8.16699 -42 -6.5s-13 7.5 -13 17.5c0 6 2.66699 11.5 8 16.5s18.666 10.5 39.999 16.5c15.333 4 32.5 10.5 51.5 19.5s39.167 20.833 60.5 35.5c44 29.333 81.333 58.833 112 88.5
s52.334 57.834 65.001 84.501c10.667 23.333 9.66699 42.833 -3 58.5s-34 23.167 -64 22.5c-48.667 -2 -96.5 -15.5 -143.5 -40.5s-70.5 -52.167 -70.5 -81.5c-0.666992 -12.667 4.16602 -23.167 14.499 -31.5s22.833 -12.166 37.5 -11.499c32 0 49.167 -1.16699 51.5 -3.5
s3.5 -5.83301 3.5 -10.5c0 -6.66699 -3.66699 -12.334 -11 -17.001s-16.666 -6.66699 -27.999 -6c-34 -0.666992 -60.833 6.33301 -80.5 21s-29.5 33 -29.5 55c-0.666992 14.667 4.5 31.167 15.5 49.5s25.167 34.166 42.5 47.499z" />
    <glyph glyph-name="threequarters" unicode="&#xbe;" horiz-adv-x="1001" 
d="M346 412c26.667 -2 49.9971 -11.166 69.9971 -27.499s30 -35.5 30 -57.5c0 -33.333 -22.167 -63 -66.5 -89s-99.166 -39 -164.499 -39c-49.333 0 -89.166 9.16699 -119.499 27.5s-45.5 41.166 -45.5 68.499c0 12.667 4.33301 25.334 13 38.001s19.334 19 32.001 19
c4.66699 0 8.83398 -1 12.501 -3s6.5 -4.66699 8.5 -8c1.33301 -3.33301 1.66602 -6.66602 0.999023 -9.99902s-5 -9 -13 -17c-18.667 -19.333 -16.167 -37.333 7.5 -54s57.5 -24.667 101.5 -24c50 -0.666992 94 7.66602 132 24.999s57 38 57 62
c0 21.333 -14.167 37.5 -42.5 48.5s-67.166 12.5 -116.499 4.5c-28.667 -5.33301 -46.834 -5.83301 -54.501 -1.5s-11.167 11.5 -10.5 21.5v3.5c0 1 32.667 9.5 98 25.5c33.333 8 66 23.5 98 46.5s48 44.167 48 63.5c0 12.667 -7.83301 23.667 -23.5 33s-34.167 14 -55.5 14
c-65.333 0 -117 -14.167 -155 -42.5s-44.667 -48.5 -20 -60.5c34.667 -18.667 52 -27.5 52 -26.5s0 1.16699 0 0.5c0 -6.66699 -2.16699 -11.334 -6.5 -14.001s-11.166 -4 -20.499 -4c-23.333 0 -43.333 6.16699 -60 18.5s-24.667 26.833 -24 43.5c0 26 24.5 52.5 73.5 79.5
s99.833 40.5 152.5 40.5c41.333 0 73.5 -8.16699 96.5 -24.5s34.5 -34.833 34.5 -55.5c-0.666992 -20 -12.834 -42 -36.501 -66s-51.5 -43.667 -83.5 -59zM903.997 398.001c14 0 22.6689 -5.5 26.002 -16.5s2 -25.833 -4 -44.5c-6.66699 -19.333 -17.5 -48.5 -32.5 -87.5
l-51.5 -130.5c19.333 1.33301 35.166 2.5 47.499 3.5s21.5 1.5 27.5 1.5c10 0 18.167 -1.83301 24.5 -5.5s9.5 -7.5 9.5 -11.5c0 -9.33301 -2.83301 -15.833 -8.5 -19.5s-13.834 -5.16699 -24.501 -4.5c-50.667 0.666992 -75.834 1 -75.501 1s-4.16699 -0.666992 -13.5 -2
c-11.333 -23.333 -16.833 -35 -16.5 -35h0.5v-13c0 -3.33301 1.66699 -9.66602 5 -18.999c1.33301 -7.33301 -0.666992 -14.333 -6 -21s-12 -10 -20 -10c-7.33301 0 -13.5 3.33301 -18.5 10s-7.5 15.667 -7.5 27c-0.666992 7.33301 0.5 15.833 3.5 25.5
s7.16699 19.167 12.5 28.5c-20.667 -2 -43.667 -3.5 -69 -4.5s-48.666 -1.5 -69.999 -1.5c-24.667 0 -43 3.83301 -55 11.5s-18 19.5 -18 35.5c0 10.667 4.33301 23.167 13 37.5s22.667 30.166 42 47.499c39.333 36 74.833 66.333 106.5 91s75.5 54.667 131.5 90
c9.33301 6 17 10.167 23 12.5s12 3.5 18 3.5zM888.999 350.001c-36.667 -22 -73.667 -47.001 -111 -75.001s-77.333 -61.667 -120 -101c-14.667 -14 -25.667 -25.5 -33 -34.5s-11 -15.833 -11 -20.5c0 -3.33301 3.5 -6 10.5 -8s17.167 -2.66699 30.5 -2
c24 0 46.333 0.333008 67 1s45 2.33398 73 5.00098c39.333 93.333 63 150.333 71 171s15.667 42 23 64zM720.999 540c5.33301 0 9.50098 -1.33203 12.501 -3.99902s4.5 -6.66699 4.5 -12c0 -6.66699 -1.33301 -13 -4 -19s-6.66699 -12.333 -12 -19
c9.33301 11.333 -6 -4.83398 -46 -48.501s-98 -114.5 -174 -212.5l-53 -69.5l-50 -65.5c-8 -9.33301 -14.333 -17.5 -19 -24.5s-10 -24.167 -16 -51.5c-3.33301 -12 -8.5 -21.167 -15.5 -27.5s-14.5 -9.5 -22.5 -9.5c-12 0 -20 5.5 -24 16.5s-1.66699 24.5 7 40.5
c14 26 65.667 96.5 155 211.5l203 255.5c12 14 22.167 24 30.5 30s16.166 9 23.499 9z" />
    <glyph glyph-name="questiondown" unicode="&#xbf;" horiz-adv-x="599" 
d="M331 -216c-80.667 0 -145.337 15.832 -194.004 47.499s-72.667 71.834 -72 120.501c0 30 10.167 56.667 30.5 80s81.833 56.333 184.5 99c60.667 24.667 105.334 45.667 134.001 63s43 31 43 41c0 1.33301 -0.5 4 -1.5 8s-1.5 7.33301 -1.5 10
c-0.666992 6.66699 0.833008 12 4.5 16s9.83398 6 18.501 6s16.334 -4.16699 23.001 -12.5s10 -16.833 10 -25.5c0 -18 -9 -35.667 -27 -53s-65.333 -42.333 -142 -75c-114 -48.667 -179 -81.667 -195 -99s-24 -38.666 -24 -63.999c0 -33.333 20 -61.166 60 -83.499
s89.333 -33.5 148 -33.5c54 0 101.167 9.16699 141.5 27.5s60.5 39.166 60.5 62.499c0 4.66699 -0.833008 9 -2.5 13s-3.83398 7.66699 -6.50098 11c-13.333 16 -20.166 24.167 -20.499 24.5s-0.166016 0.5 0.500977 0.5c0 6.66699 2.16699 11.667 6.5 15s10.5 5 18.5 5
c16 0 30.167 -6.33301 42.5 -19s18.5 -29.334 18.5 -50.001c0 -38 -24.5 -70 -73.5 -96s-110.5 -39 -184.5 -39zM500.997 327.999c-10 0 -17.6689 2.83301 -23.002 8.5s-7.66602 13.834 -6.99902 24.501c0 14.667 3.83301 25.5 11.5 32.5s19.834 10.5 36.501 10.5
c14 0 25.167 -2.83301 33.5 -8.5s12.5 -12.834 12.5 -21.501c0 -12 -7.33301 -22.667 -22 -32s-28.667 -14 -42 -14z" />
    <glyph glyph-name="Agrave" unicode="&#xc0;" horiz-adv-x="553" 
d="M80 177l-57 -148.002c-7.33301 -19.333 -14.5 -32.166 -21.5 -38.499s-15.833 -9.5 -26.5 -9.5c-4.66699 0 -9.16699 2.16699 -13.5 6.5s-6.5 8.5 -6.5 12.5c0 9.33301 3.83301 23.666 11.5 42.999s27.834 64.333 60.501 135c-15.333 -6 -28.5 -6.33301 -39.5 -1
s-16.5 13.666 -16.5 24.999c0 2.66699 0.666992 5.5 2 8.5s26.666 12.5 75.999 28.5c77.333 172.667 152.5 309.334 225.5 410.001s130.167 151 171.5 151c21.333 0 37.166 -13.667 47.499 -41s15.833 -67 16.5 -119c0 -32.667 -1.5 -67 -4.5 -103
s-11.167 -100.333 -24.5 -193l15 5h28c2.66699 -0.666992 5.5 -2.5 8.5 -5.5s4.5 -5.83301 4.5 -8.5c0 -10.667 -5.66699 -20.167 -17 -28.5s-28.333 -14.166 -51 -17.499c-10 -48.667 -18.5 -101.667 -25.5 -159s-10.5 -103.666 -10.5 -138.999
c0 -6 0.333008 -15.833 1 -29.5s1 -24.5 1 -32.5c0 -9.33301 -2 -15.833 -6 -19.5s-9.33301 -5.5 -16 -5.5c-11.333 0 -20.833 6.5 -28.5 19.5s-11.5 29.833 -11.5 50.5c0 27.333 4.33301 72.166 13 134.499s18.334 117.833 29.001 166.5
c-58 -13.333 -114.667 -27.166 -170 -41.499l-161 -43.5zM424 327.998c10 58 18.834 118 26.501 180s11.5 108.667 11.5 140c0 28 -2.83301 49.667 -8.5 65s-12.834 23 -21.501 23c-28.667 0 -78.5 -54.833 -149.5 -164.5s-127.833 -216.834 -170.5 -321.501
c62 16.667 116.833 30.834 164.5 42.501zM380.001 958.998c2.66699 -0.666992 5.33203 -1.66699 7.99902 -3s8 -6 16 -14c9.33301 -10.667 22.666 -22 39.999 -34s33.666 -21 48.999 -27c10 -4.66699 16.667 -9.16699 20 -13.5s5 -10.166 5 -17.499
c0 -6 -1.66699 -10.667 -5 -14s-7 -4.66602 -11 -3.99902c-3.33301 0 -7.16602 0.666992 -11.499 2s-9.16602 4 -14.499 8l-26.5 15c-9 5.33301 -22.167 14 -39.5 26c-12 7.33301 -20.667 13.166 -26 17.499s-9.66602 9.16602 -12.999 14.499
c-9.33301 11.333 -12.333 21.5 -9 30.5s9.33301 13.5 18 13.5z" />
    <glyph glyph-name="Aacute" unicode="&#xc1;" horiz-adv-x="557" 
d="M80 177l-57 -148.002c-7.33301 -19.333 -14.5 -32.166 -21.5 -38.499s-15.833 -9.5 -26.5 -9.5c-4.66699 0 -9.16699 2.16699 -13.5 6.5s-6.5 8.5 -6.5 12.5c0 9.33301 3.83301 23.666 11.5 42.999s27.834 64.333 60.501 135c-15.333 -6 -28.5 -6.33301 -39.5 -1
s-16.5 13.666 -16.5 24.999c0 2.66699 0.666992 5.5 2 8.5s26.666 12.5 75.999 28.5c77.333 172.667 152.5 309.334 225.5 410.001s130.167 151 171.5 151c21.333 0 37.166 -13.667 47.499 -41s15.833 -67 16.5 -119c0 -32.667 -1.5 -67 -4.5 -103
s-11.167 -100.333 -24.5 -193l15 5h28c2.66699 -0.666992 5.5 -2.5 8.5 -5.5s4.5 -5.83301 4.5 -8.5c0 -10.667 -5.66699 -20.167 -17 -28.5s-28.333 -14.166 -51 -17.499c-10 -48.667 -18.5 -101.667 -25.5 -159s-10.5 -103.666 -10.5 -138.999
c0 -6 0.333008 -15.833 1 -29.5s1 -24.5 1 -32.5c0 -9.33301 -2 -15.833 -6 -19.5s-9.33301 -5.5 -16 -5.5c-11.333 0 -20.833 6.5 -28.5 19.5s-11.5 29.833 -11.5 50.5c0 27.333 4.33301 72.166 13 134.499s18.334 117.833 29.001 166.5
c-58 -13.333 -114.667 -27.166 -170 -41.499l-161 -43.5zM424 327.998c10 58 18.834 118 26.501 180s11.5 108.667 11.5 140c0 28 -2.83301 49.667 -8.5 65s-12.834 23 -21.501 23c-28.667 0 -78.5 -54.833 -149.5 -164.5s-127.833 -216.834 -170.5 -321.501
c62 16.667 116.833 30.834 164.5 42.501zM521.001 949.998c9.33301 0 15.668 -5.16797 19.001 -15.501s0.666016 -21.5 -8.00098 -33.5c-6 -8.66699 -17.833 -20.167 -35.5 -34.5s-33.5 -26.166 -47.5 -35.499c-14.667 -10 -27.334 -13.5 -38.001 -10.5s-16 10.167 -16 21.5
c0 6.66699 1.66699 12.167 5 16.5s11.333 9.16602 24 14.499c11.333 4 21.833 9.5 31.5 16.5s25.834 23.167 48.501 48.5c4 4.66699 7.16699 7.83398 9.5 9.50098s4.83301 2.5 7.5 2.5z" />
    <glyph glyph-name="Acircumflex" unicode="&#xc2;" horiz-adv-x="552" 
d="M80 177l-57 -148.002c-7.33301 -19.333 -14.5 -32.166 -21.5 -38.499s-15.833 -9.5 -26.5 -9.5c-4.66699 0 -9.16699 2.16699 -13.5 6.5s-6.5 8.5 -6.5 12.5c0 9.33301 3.83301 23.666 11.5 42.999s27.834 64.333 60.501 135c-15.333 -6 -28.5 -6.33301 -39.5 -1
s-16.5 13.666 -16.5 24.999c0 2.66699 0.666992 5.5 2 8.5s26.666 12.5 75.999 28.5c77.333 172.667 152.5 309.334 225.5 410.001s130.167 151 171.5 151c21.333 0 37.166 -13.667 47.499 -41s15.833 -67 16.5 -119c0 -32.667 -1.5 -67 -4.5 -103
s-11.167 -100.333 -24.5 -193l15 5h28c2.66699 -0.666992 5.5 -2.5 8.5 -5.5s4.5 -5.83301 4.5 -8.5c0 -10.667 -5.66699 -20.167 -17 -28.5s-28.333 -14.166 -51 -17.499c-10 -48.667 -18.5 -101.667 -25.5 -159s-10.5 -103.666 -10.5 -138.999
c0 -6 0.333008 -15.833 1 -29.5s1 -24.5 1 -32.5c0 -9.33301 -2 -15.833 -6 -19.5s-9.33301 -5.5 -16 -5.5c-11.333 0 -20.833 6.5 -28.5 19.5s-11.5 29.833 -11.5 50.5c0 27.333 4.33301 72.166 13 134.499s18.334 117.833 29.001 166.5
c-58 -13.333 -114.667 -27.166 -170 -41.499l-161 -43.5zM424 327.998c10 58 18.834 118 26.501 180s11.5 108.667 11.5 140c0 28 -2.83301 49.667 -8.5 65s-12.834 23 -21.501 23c-28.667 0 -78.5 -54.833 -149.5 -164.5s-127.833 -216.834 -170.5 -321.501
c62 16.667 116.833 30.834 164.5 42.501zM431.001 893.998c-10 -7.33301 -19.3301 -14.5 -27.9971 -21.5s-17 -14.833 -25 -23.5c-24.667 -24.667 -37.834 -37.334 -39.501 -38.001s-3.16699 -0.666992 -4.5 0c-6.66699 0 -11.334 1.83301 -14.001 5.5s-4 8.83398 -4 15.501
c0 7.33301 6.66699 18.5 20 33.5s31 31.167 53 48.5c10 8 18.333 13.833 25 17.5s12 5.5 16 5.5c6 0 14.333 -3.33301 25 -10s24 -16.667 40 -30c20 -18 34.833 -32.5 44.5 -43.5s14.5 -19.5 14.5 -25.5s-2.33301 -11 -7 -15s-9.33398 -6 -14.001 -6h-4
c-1.33301 0 -15.333 13.667 -42 41c-8.66699 8 -17.667 15.833 -27 23.5s-19 15.167 -29 22.5z" />
    <glyph glyph-name="Atilde" unicode="&#xc3;" horiz-adv-x="552" 
d="M80 177l-57 -148.002c-7.33301 -19.333 -14.5 -32.166 -21.5 -38.499s-15.833 -9.5 -26.5 -9.5c-4.66699 0 -9.16699 2.16699 -13.5 6.5s-6.5 8.5 -6.5 12.5c0 9.33301 3.83301 23.666 11.5 42.999s27.834 64.333 60.501 135c-15.333 -6 -28.5 -6.33301 -39.5 -1
s-16.5 13.666 -16.5 24.999c0 2.66699 0.666992 5.5 2 8.5s26.666 12.5 75.999 28.5c77.333 172.667 152.5 309.334 225.5 410.001s130.167 151 171.5 151c21.333 0 37.166 -13.667 47.499 -41s15.833 -67 16.5 -119c0 -32.667 -1.5 -67 -4.5 -103
s-11.167 -100.333 -24.5 -193l15 5h28c2.66699 -0.666992 5.5 -2.5 8.5 -5.5s4.5 -5.83301 4.5 -8.5c0 -10.667 -5.66699 -20.167 -17 -28.5s-28.333 -14.166 -51 -17.499c-10 -48.667 -18.5 -101.667 -25.5 -159s-10.5 -103.666 -10.5 -138.999
c0 -6 0.333008 -15.833 1 -29.5s1 -24.5 1 -32.5c0 -9.33301 -2 -15.833 -6 -19.5s-9.33301 -5.5 -16 -5.5c-11.333 0 -20.833 6.5 -28.5 19.5s-11.5 29.833 -11.5 50.5c0 27.333 4.33301 72.166 13 134.499s18.334 117.833 29.001 166.5
c-58 -13.333 -114.667 -27.166 -170 -41.499l-161 -43.5zM424 327.998c10 58 18.834 118 26.501 180s11.5 108.667 11.5 140c0 28 -2.83301 49.667 -8.5 65s-12.834 23 -21.501 23c-28.667 0 -78.5 -54.833 -149.5 -164.5s-127.833 -216.834 -170.5 -321.501
c62 16.667 116.833 30.834 164.5 42.501zM610.001 852.998c-0.666992 -8.66699 -5.33398 -15.9971 -14.001 -21.9971s-20.667 -9 -36 -9c-9.33301 0 -18.666 1.16699 -27.999 3.5s-26 9.16602 -50 20.499c-16 7.33301 -28.167 12.5 -36.5 15.5s-15.5 4.5 -21.5 4.5
c-8.66699 0 -16.167 -1.83301 -22.5 -5.5s-13.5 -9.83398 -21.5 -18.501c-4 -4.66699 -7.66699 -7.83398 -11 -9.50098s-6.33301 -2.5 -9 -2.5c-7.33301 0 -12 4.5 -14 13.5s0.333008 18.5 7 28.5c10 16 25.333 26.667 46 32s43.334 4 68.001 -4
c63.333 -22.667 95.166 -34 95.499 -34s4.16602 1.33301 11.499 4c10.667 4 19.334 4.16699 26.001 0.5s10 -9.5 10 -17.5z" />
    <glyph glyph-name="Adieresis" unicode="&#xc4;" horiz-adv-x="556" 
d="M80 177l-57 -148.002c-7.33301 -19.333 -14.5 -32.166 -21.5 -38.499s-15.833 -9.5 -26.5 -9.5c-4.66699 0 -9.16699 2.16699 -13.5 6.5s-6.5 8.5 -6.5 12.5c0 9.33301 3.83301 23.666 11.5 42.999s27.834 64.333 60.501 135c-15.333 -6 -28.5 -6.33301 -39.5 -1
s-16.5 13.666 -16.5 24.999c0 2.66699 0.666992 5.5 2 8.5s26.666 12.5 75.999 28.5c77.333 172.667 152.5 309.334 225.5 410.001s130.167 151 171.5 151c21.333 0 37.166 -13.667 47.499 -41s15.833 -67 16.5 -119c0 -32.667 -1.5 -67 -4.5 -103
s-11.167 -100.333 -24.5 -193l15 5h28c2.66699 -0.666992 5.5 -2.5 8.5 -5.5s4.5 -5.83301 4.5 -8.5c0 -10.667 -5.66699 -20.167 -17 -28.5s-28.333 -14.166 -51 -17.499c-10 -48.667 -18.5 -101.667 -25.5 -159s-10.5 -103.666 -10.5 -138.999
c0 -6 0.333008 -15.833 1 -29.5s1 -24.5 1 -32.5c0 -9.33301 -2 -15.833 -6 -19.5s-9.33301 -5.5 -16 -5.5c-11.333 0 -20.833 6.5 -28.5 19.5s-11.5 29.833 -11.5 50.5c0 27.333 4.33301 72.166 13 134.499s18.334 117.833 29.001 166.5
c-58 -13.333 -114.667 -27.166 -170 -41.499l-161 -43.5zM424 327.998c10 58 18.834 118 26.501 180s11.5 108.667 11.5 140c0 28 -2.83301 49.667 -8.5 65s-12.834 23 -21.501 23c-28.667 0 -78.5 -54.833 -149.5 -164.5s-127.833 -216.834 -170.5 -321.501
c62 16.667 116.833 30.834 164.5 42.501zM393.001 903.998c2.66699 0 5.49902 -0.666992 8.49902 -2s5.83301 -3 8.5 -5c6 -6.66699 8.66699 -16.167 8 -28.5s-4.33398 -21.833 -11.001 -28.5c-5.33301 -5.33301 -11.333 -8.5 -18 -9.5s-12.667 0.833008 -18 5.5
c-4 2.66699 -7.16699 6.5 -9.5 11.5s-3.16602 11.167 -2.49902 18.5c0 4.66699 1 9.66699 3 15s5.33301 10 10 14c2.66699 2.66699 5.83398 4.66699 9.50098 6s7.5 2.33301 11.5 3zM512 903.998c2.66699 -0.666992 5.50195 -1.49902 8.50195 -2.49902
s5.83301 -2.16699 8.5 -3.5c7.33301 -8 9.16602 -19.5 5.49902 -34.5s-10.5 -24.833 -20.5 -29.5c-5.33301 -3.33301 -11 -4.5 -17 -3.5s-10.667 3.16699 -14 6.5c-4.66699 4 -7.33398 10 -8.00098 18s0.666016 16.333 3.99902 25
c2.66699 7.33301 6.83398 13.166 12.501 17.499s12.5 6.5 20.5 6.5z" />
    <glyph glyph-name="Aring" unicode="&#xc5;" horiz-adv-x="553" 
d="M80 177l-57 -148.002c-7.33301 -19.333 -14.5 -32.166 -21.5 -38.499s-15.833 -9.5 -26.5 -9.5c-4.66699 0 -9.16699 2.16699 -13.5 6.5s-6.5 8.5 -6.5 12.5c0 9.33301 3.83301 23.666 11.5 42.999s27.834 64.333 60.501 135c-15.333 -6 -28.5 -6.33301 -39.5 -1
s-16.5 13.666 -16.5 24.999c0 2.66699 0.666992 5.5 2 8.5s26.666 12.5 75.999 28.5c77.333 172.667 152.5 309.334 225.5 410.001s130.167 151 171.5 151c21.333 0 37.166 -13.667 47.499 -41s15.833 -67 16.5 -119c0 -32.667 -1.5 -67 -4.5 -103
s-11.167 -100.333 -24.5 -193l15 5h28c2.66699 -0.666992 5.5 -2.5 8.5 -5.5s4.5 -5.83301 4.5 -8.5c0 -10.667 -5.66699 -20.167 -17 -28.5s-28.333 -14.166 -51 -17.499c-10 -48.667 -18.5 -101.667 -25.5 -159s-10.5 -103.666 -10.5 -138.999
c0 -6 0.333008 -15.833 1 -29.5s1 -24.5 1 -32.5c0 -9.33301 -2 -15.833 -6 -19.5s-9.33301 -5.5 -16 -5.5c-11.333 0 -20.833 6.5 -28.5 19.5s-11.5 29.833 -11.5 50.5c0 27.333 4.33301 72.166 13 134.499s18.334 117.833 29.001 166.5
c-58 -13.333 -114.667 -27.166 -170 -41.499l-161 -43.5zM424 327.998c10 58 18.834 118 26.501 180s11.5 108.667 11.5 140c0 28 -2.83301 49.667 -8.5 65s-12.834 23 -21.501 23c-28.667 0 -78.5 -54.833 -149.5 -164.5s-127.833 -216.834 -170.5 -321.501
c62 16.667 116.833 30.834 164.5 42.501zM460.001 972.998c24 0 43.499 -7.33008 58.499 -21.9971s22.5 -31.334 22.5 -50.001c-0.666992 -10.667 -2.66699 -20.5 -6 -29.5s-8.66602 -16.833 -15.999 -23.5c-12 -10.667 -26.667 -17.5 -44 -20.5s-34 -1.16699 -50 5.5
c-15.333 5.33301 -26.833 13.5 -34.5 24.5s-11.5 24.167 -11.5 39.5c0 9.33301 2.5 19.166 7.5 29.499s11.833 19.166 20.5 26.499c7.33301 6.66699 15.5 11.667 24.5 15s18.5 5 28.5 5zM459 936.001c-12.667 0 -23.168 -3.6709 -31.501 -11.0039
s-12.5 -16.666 -12.5 -27.999s3.66699 -20.166 11 -26.499s17.666 -9.16602 30.999 -8.49902c14.667 0 26.334 3.83301 35.001 11.5s13.334 16.834 14.001 27.501c0 9.33301 -4.16699 17.5 -12.5 24.5s-19.833 10.5 -34.5 10.5z" />
    <glyph glyph-name="AE" unicode="&#xc6;" horiz-adv-x="852" 
d="M626 604l-88.002 -10.998c-3.33301 -38.667 -8.16602 -77.167 -14.499 -115.5s-14.833 -80.5 -25.5 -126.5c35.333 2.66699 73.833 4.16699 115.5 4.5s76.5 -1.16699 104.5 -4.5c23.333 -3.33301 37.833 -10.833 43.5 -22.5s2.83398 -20.834 -8.49902 -27.501
c-4 -2.66699 -8.83301 -4.16699 -14.5 -4.5s-17.167 1.83398 -34.5 6.50098c-22.667 5.33301 -55 8 -97 8s-82 -2.66699 -120 -8c-7.33301 -21.333 -16.666 -51.5 -27.999 -90.5s-19 -67.167 -23 -84.5c-6 -22 -7.83301 -40.667 -5.5 -56s8.16602 -27.333 17.499 -36
c10.667 -11.333 27.667 -17.333 51 -18s65.666 6 126.999 20c50.667 11.333 88 15.5 112 12.5s36 -14.833 36 -35.5c0 -4 -2.16699 -7.66699 -6.5 -11s-8.5 -5 -12.5 -5c-12.667 0 -21 1 -25 3s-14.333 3 -31 3c-4 0 -8.33301 -0.333008 -13 -1s-42.334 -8 -113.001 -22
c-52 -10 -90.833 -12.5 -116.5 -7.5s-45.5 17.833 -59.5 38.5c-9.33301 12.667 -15.5 27.834 -18.5 45.501s14.5 97.5 52.5 239.5c-32 -2.66699 -66 -6.66699 -102 -12s-65.333 -11.666 -88 -18.999c-30 -10 -49.833 -13.333 -59.5 -10s-14.5 11.333 -14.5 24
c0 9.33301 5.83301 17.166 17.5 23.499s36.5 12.5 74.5 18.5c36.667 5.33301 68.667 9.66602 96 12.999s57 6.66602 89 9.99902c17.333 72.667 29.666 128.834 36.999 168.501s11.333 71.5 12 95.5c0 19.333 -3.16699 34.666 -9.5 45.999s-14.166 17 -23.499 17
s-19.666 -3.66699 -30.999 -11s-22 -16.333 -32 -27c-36.667 -38 -71.5 -78.667 -104.5 -122s-68.833 -96.666 -107.5 -159.999c-23.333 -38 -43.666 -72.5 -60.999 -103.5s-42 -79.833 -74 -146.5c-24 -48.667 -37.667 -76.667 -41 -84s-6 -14 -8 -20
c-4.66699 -12 -10.834 -21.333 -18.501 -28s-16.167 -10 -25.5 -10c-4 0 -8.16699 2.5 -12.5 7.5s-6.5 9.83301 -6.5 14.5c0.666992 8 3.5 18.167 8.5 30.5s17.167 37.5 36.5 75.5c88.667 170 157.167 290.667 205.5 362s95.5 131.666 141.5 180.999
c29.333 32 56.333 56.167 81 72.5s45.667 24.5 63 24.5c18.667 0 33.667 -8.33301 45 -25s17.666 -38 18.999 -64c58 10 117.333 16.667 178 20s117 3.66602 169 0.999023c34.667 -2.66699 56.167 -7 64.5 -13s12.5 -15 12.5 -27c0 -7.33301 -5.66699 -11.833 -17 -13.5
s-27 -0.833984 -47 2.49902c-33.333 4.66699 -70.166 6.83398 -110.499 6.50098s-94.166 -4.5 -161.499 -12.5z" />
    <glyph glyph-name="Ccedilla" unicode="&#xc7;" horiz-adv-x="581" 
d="M413 730c42.667 0 76.498 -13.502 101.498 -40.502s41.5 -66.833 49.5 -119.5c1.33301 -2 2.16602 -3.33301 2.49902 -4s-5.5 -35 -17.5 -103c-10 -55.333 -17.833 -92.833 -23.5 -112.5s-12.167 -35.5 -19.5 -47.5c-14 -22 -29 -32 -45 -30s-24 14.667 -24 38
c0 9.33301 1.66699 20 5 32s8 26 14 42c28 66 43.333 105.833 46 119.5s4.33398 27.167 5.00098 40.5c0 42 -8.66699 75.5 -26 100.5s-40.666 37.833 -69.999 38.5c-79.333 -0.666992 -155.833 -58.667 -229.5 -174s-110.5 -223.666 -110.5 -324.999
c0 -61.333 11.667 -108.166 35 -140.499s58 -48.5 104 -48.5c40.667 0 80.334 8.5 119.001 25.5s77.667 44.167 117 81.5c60.667 57.333 91.167 86.166 91.5 86.499s1.16602 0.5 2.49902 0.5c4.66699 0 9.33398 -2 14.001 -6s7.33398 -8 8.00098 -12
c0 -10 -4.5 -21.167 -13.5 -33.5s-21.833 -26.5 -38.5 -42.5c-51.333 -49.333 -97.5 -84.5 -138.5 -105.5s-86.167 -35.167 -135.5 -42.5c-1.33301 -1.33301 -1.83301 -2 -1.5 -2s0.5 -26.667 0.5 -80c-0.666992 -19.333 -7.83398 -37 -21.501 -53s-29.167 -24 -46.5 -24
c-8 0 -14.333 1.83301 -19 5.5s-7 7.83398 -7 12.501c-0.666992 10.667 7.33301 20 24 28s25 19.333 25 34c0 2 -2 11.5 -6 28.5s-2.66699 34.167 4 51.5c-54.667 4.66699 -96.167 27.667 -124.5 69s-42.5 95.666 -42.5 162.999c0 112 41.333 231.333 124 358
s172 190.334 268 191.001z" />
    <glyph glyph-name="Egrave" unicode="&#xc8;" horiz-adv-x="586" 
d="M516 736c51.333 0 86.1689 -18.499 104.502 -55.499s15.166 -79.5 -9.50098 -127.5c-14.667 -28.667 -35.334 -55.834 -62.001 -81.501s-51 -41.5 -73 -47.5c-12.667 -4 -24 -4.16699 -34 -0.5s-14.667 9.5 -14 17.5c0 20 11.167 31.833 33.5 35.5
s40.5 11.834 54.5 24.501c16.667 15.333 29.834 30.666 39.501 45.999s16.834 31.333 21.501 48c11.333 40.667 1.16602 68.667 -30.501 84s-74.834 15.333 -129.501 0c-40.667 -12 -80.5 -29 -119.5 -51s-68.833 -44 -89.5 -66c-11.333 -12 -19.833 -24 -25.5 -36
s-8.5 -23.667 -8.5 -35v-41l202 -39c11.333 -2.66699 20 -6.66699 26 -12s9 -12.666 9 -21.999c-0.666992 -7.33301 -4.66699 -13.333 -12 -18s-20.333 -8.66699 -39 -12c-78.667 -14 -146 -35.333 -202 -64s-93 -61.334 -111 -98.001c-12 -23.333 -16 -44.833 -12 -64.5
s15.333 -37.167 34 -52.5c16.667 -15.333 39.667 -27.333 69 -36s58 -13 86 -13c35.333 0 70.666 4.5 105.999 13.5s64.333 21.167 87 36.5c57.333 38 85 57 83 57s-2.33301 0 -1 0c5.33301 0 10 -2.83301 14 -8.5s6 -12.167 6 -19.5c0 -10 -8.33301 -22 -25 -36
s-37.667 -27.333 -63 -40c-28.667 -14.667 -58.5 -25.5 -89.5 -32.5s-63.5 -10.833 -97.5 -11.5c-40.667 0 -78.167 3.66699 -112.5 11s-62.166 18.666 -83.499 33.999c-21.333 14 -36.833 30.333 -46.5 49s-14.5 38.667 -14.5 60c0 30 11.333 61.167 34 93.5
s57.334 61.5 104.001 87.5c20.667 11.333 45 22.5 73 33.5s55.333 20.5 82 28.5c-61.333 7.33301 -107.5 27.333 -138.5 60s-31.167 73.334 -0.5 122.001c23.333 37.333 64.166 72.833 122.499 106.5s113.5 55.5 165.5 65.5c12 2 25 3.66699 39 5s30 2 48 2z
M372.003 923.001c2.66699 -0.666992 5.33203 -1.66699 7.99902 -3s8 -6 16 -14c9.33301 -10.667 22.666 -22 39.999 -34s33.666 -21 48.999 -27c10 -4.66699 16.667 -9.16699 20 -13.5s5 -10.166 5 -17.499c0 -6 -1.66699 -10.667 -5 -14s-7 -4.66602 -11 -3.99902
c-3.33301 0 -7.16602 0.666992 -11.499 2s-9.16602 4 -14.499 8l-26.5 15c-9 5.33301 -22.167 14 -39.5 26c-12 7.33301 -20.667 13.166 -26 17.499s-9.66602 9.16602 -12.999 14.499c-9.33301 11.333 -12.333 21.5 -9 30.5s9.33301 13.5 18 13.5z" />
    <glyph glyph-name="Eacute" unicode="&#xc9;" horiz-adv-x="586" 
d="M516 736c51.333 0 86.1689 -18.499 104.502 -55.499s15.166 -79.5 -9.50098 -127.5c-14.667 -28.667 -35.334 -55.834 -62.001 -81.501s-51 -41.5 -73 -47.5c-12.667 -4 -24 -4.16699 -34 -0.5s-14.667 9.5 -14 17.5c0 20 11.167 31.833 33.5 35.5
s40.5 11.834 54.5 24.501c16.667 15.333 29.834 30.666 39.501 45.999s16.834 31.333 21.501 48c11.333 40.667 1.16602 68.667 -30.501 84s-74.834 15.333 -129.501 0c-40.667 -12 -80.5 -29 -119.5 -51s-68.833 -44 -89.5 -66c-11.333 -12 -19.833 -24 -25.5 -36
s-8.5 -23.667 -8.5 -35v-41l202 -39c11.333 -2.66699 20 -6.66699 26 -12s9 -12.666 9 -21.999c-0.666992 -7.33301 -4.66699 -13.333 -12 -18s-20.333 -8.66699 -39 -12c-78.667 -14 -146 -35.333 -202 -64s-93 -61.334 -111 -98.001c-12 -23.333 -16 -44.833 -12 -64.5
s15.333 -37.167 34 -52.5c16.667 -15.333 39.667 -27.333 69 -36s58 -13 86 -13c35.333 0 70.666 4.5 105.999 13.5s64.333 21.167 87 36.5c57.333 38 85 57 83 57s-2.33301 0 -1 0c5.33301 0 10 -2.83301 14 -8.5s6 -12.167 6 -19.5c0 -10 -8.33301 -22 -25 -36
s-37.667 -27.333 -63 -40c-28.667 -14.667 -58.5 -25.5 -89.5 -32.5s-63.5 -10.833 -97.5 -11.5c-40.667 0 -78.167 3.66699 -112.5 11s-62.166 18.666 -83.499 33.999c-21.333 14 -36.833 30.333 -46.5 49s-14.5 38.667 -14.5 60c0 30 11.333 61.167 34 93.5
s57.334 61.5 104.001 87.5c20.667 11.333 45 22.5 73 33.5s55.333 20.5 82 28.5c-61.333 7.33301 -107.5 27.333 -138.5 60s-31.167 73.334 -0.5 122.001c23.333 37.333 64.166 72.833 122.499 106.5s113.5 55.5 165.5 65.5c12 2 25 3.66699 39 5s30 2 48 2z
M555.003 931.001c9.33301 0 15.668 -5.16797 19.001 -15.501s0.666016 -21.5 -8.00098 -33.5c-6 -8.66699 -17.833 -20.167 -35.5 -34.5s-33.5 -26.166 -47.5 -35.499c-14.667 -10 -27.334 -13.5 -38.001 -10.5s-16 10.167 -16 21.5c0 6.66699 1.66699 12.167 5 16.5
s11.333 9.16602 24 14.499c11.333 4 21.833 9.5 31.5 16.5s25.834 23.167 48.501 48.5c4 4.66699 7.16699 7.83398 9.5 9.50098s4.83301 2.5 7.5 2.5z" />
    <glyph glyph-name="Ecircumflex" unicode="&#xca;" horiz-adv-x="586" 
d="M516 736c51.333 0 86.1689 -18.499 104.502 -55.499s15.166 -79.5 -9.50098 -127.5c-14.667 -28.667 -35.334 -55.834 -62.001 -81.501s-51 -41.5 -73 -47.5c-12.667 -4 -24 -4.16699 -34 -0.5s-14.667 9.5 -14 17.5c0 20 11.167 31.833 33.5 35.5
s40.5 11.834 54.5 24.501c16.667 15.333 29.834 30.666 39.501 45.999s16.834 31.333 21.501 48c11.333 40.667 1.16602 68.667 -30.501 84s-74.834 15.333 -129.501 0c-40.667 -12 -80.5 -29 -119.5 -51s-68.833 -44 -89.5 -66c-11.333 -12 -19.833 -24 -25.5 -36
s-8.5 -23.667 -8.5 -35v-41l202 -39c11.333 -2.66699 20 -6.66699 26 -12s9 -12.666 9 -21.999c-0.666992 -7.33301 -4.66699 -13.333 -12 -18s-20.333 -8.66699 -39 -12c-78.667 -14 -146 -35.333 -202 -64s-93 -61.334 -111 -98.001c-12 -23.333 -16 -44.833 -12 -64.5
s15.333 -37.167 34 -52.5c16.667 -15.333 39.667 -27.333 69 -36s58 -13 86 -13c35.333 0 70.666 4.5 105.999 13.5s64.333 21.167 87 36.5c57.333 38 85 57 83 57s-2.33301 0 -1 0c5.33301 0 10 -2.83301 14 -8.5s6 -12.167 6 -19.5c0 -10 -8.33301 -22 -25 -36
s-37.667 -27.333 -63 -40c-28.667 -14.667 -58.5 -25.5 -89.5 -32.5s-63.5 -10.833 -97.5 -11.5c-40.667 0 -78.167 3.66699 -112.5 11s-62.166 18.666 -83.499 33.999c-21.333 14 -36.833 30.333 -46.5 49s-14.5 38.667 -14.5 60c0 30 11.333 61.167 34 93.5
s57.334 61.5 104.001 87.5c20.667 11.333 45 22.5 73 33.5s55.333 20.5 82 28.5c-61.333 7.33301 -107.5 27.333 -138.5 60s-31.167 73.334 -0.5 122.001c23.333 37.333 64.166 72.833 122.499 106.5s113.5 55.5 165.5 65.5c12 2 25 3.66699 39 5s30 2 48 2z
M462.003 864.001c-10 -7.33301 -19.3301 -14.5 -27.9971 -21.5s-17 -14.833 -25 -23.5c-24.667 -24.667 -37.834 -37.334 -39.501 -38.001s-3.16699 -0.666992 -4.5 0c-6.66699 0 -11.334 1.83301 -14.001 5.5s-4 8.83398 -4 15.501c0 7.33301 6.66699 18.5 20 33.5
s31 31.167 53 48.5c10 8 18.333 13.833 25 17.5s12 5.5 16 5.5c6 0 14.333 -3.33301 25 -10s24 -16.667 40 -30c20 -18 34.833 -32.5 44.5 -43.5s14.5 -19.5 14.5 -25.5s-2.33301 -11 -7 -15s-9.33398 -6 -14.001 -6h-4c-1.33301 0 -15.333 13.667 -42 41
c-8.66699 8 -17.667 15.833 -27 23.5s-19 15.167 -29 22.5z" />
    <glyph glyph-name="Edieresis" unicode="&#xcb;" horiz-adv-x="586" 
d="M516 736c51.333 0 86.1689 -18.499 104.502 -55.499s15.166 -79.5 -9.50098 -127.5c-14.667 -28.667 -35.334 -55.834 -62.001 -81.501s-51 -41.5 -73 -47.5c-12.667 -4 -24 -4.16699 -34 -0.5s-14.667 9.5 -14 17.5c0 20 11.167 31.833 33.5 35.5
s40.5 11.834 54.5 24.501c16.667 15.333 29.834 30.666 39.501 45.999s16.834 31.333 21.501 48c11.333 40.667 1.16602 68.667 -30.501 84s-74.834 15.333 -129.501 0c-40.667 -12 -80.5 -29 -119.5 -51s-68.833 -44 -89.5 -66c-11.333 -12 -19.833 -24 -25.5 -36
s-8.5 -23.667 -8.5 -35v-41l202 -39c11.333 -2.66699 20 -6.66699 26 -12s9 -12.666 9 -21.999c-0.666992 -7.33301 -4.66699 -13.333 -12 -18s-20.333 -8.66699 -39 -12c-78.667 -14 -146 -35.333 -202 -64s-93 -61.334 -111 -98.001c-12 -23.333 -16 -44.833 -12 -64.5
s15.333 -37.167 34 -52.5c16.667 -15.333 39.667 -27.333 69 -36s58 -13 86 -13c35.333 0 70.666 4.5 105.999 13.5s64.333 21.167 87 36.5c57.333 38 85 57 83 57s-2.33301 0 -1 0c5.33301 0 10 -2.83301 14 -8.5s6 -12.167 6 -19.5c0 -10 -8.33301 -22 -25 -36
s-37.667 -27.333 -63 -40c-28.667 -14.667 -58.5 -25.5 -89.5 -32.5s-63.5 -10.833 -97.5 -11.5c-40.667 0 -78.167 3.66699 -112.5 11s-62.166 18.666 -83.499 33.999c-21.333 14 -36.833 30.333 -46.5 49s-14.5 38.667 -14.5 60c0 30 11.333 61.167 34 93.5
s57.334 61.5 104.001 87.5c20.667 11.333 45 22.5 73 33.5s55.333 20.5 82 28.5c-61.333 7.33301 -107.5 27.333 -138.5 60s-31.167 73.334 -0.5 122.001c23.333 37.333 64.166 72.833 122.499 106.5s113.5 55.5 165.5 65.5c12 2 25 3.66699 39 5s30 2 48 2z
M435.003 885.001c2.66699 0 5.49902 -0.666992 8.49902 -2s5.83301 -3 8.5 -5c6 -6.66699 8.66699 -16.167 8 -28.5s-4.33398 -21.833 -11.001 -28.5c-5.33301 -5.33301 -11.333 -8.5 -18 -9.5s-12.667 0.833008 -18 5.5c-4 2.66699 -7.16699 6.5 -9.5 11.5
s-3.16602 11.167 -2.49902 18.5c0 4.66699 1 9.66699 3 15s5.33301 10 10 14c2.66699 2.66699 5.83398 4.66699 9.50098 6s7.5 2.33301 11.5 3zM554.002 885.001c2.66699 -0.666992 5.50195 -1.49902 8.50195 -2.49902s5.83301 -2.16699 8.5 -3.5
c7.33301 -8 9.16602 -19.5 5.49902 -34.5s-10.5 -24.833 -20.5 -29.5c-5.33301 -3.33301 -11 -4.5 -17 -3.5s-10.667 3.16699 -14 6.5c-4.66699 4 -7.33398 10 -8.00098 18s0.666016 16.333 3.99902 25c2.66699 7.33301 6.83398 13.166 12.501 17.499s12.5 6.5 20.5 6.5z
" />
    <glyph glyph-name="Igrave" unicode="&#xcc;" horiz-adv-x="339" 
d="M85 23l31.9971 -1c8.66699 -0.666992 15.834 -3.66699 21.501 -9s8.83398 -10.666 9.50098 -15.999c0 -6.66699 -4.16699 -12.334 -12.5 -17.001s-19.166 -7 -32.499 -7c-76 0 -123 2.66699 -141 8s-27 13.333 -27 24c0 7.33301 4.16699 13.166 12.5 17.499
s19.833 6.5 34.5 6.5c0.666992 0 0.166992 0 -1.5 0s13.166 -1 44.499 -3c30 62 70 159.333 120 292s87.333 239.334 112 320.001c-24.667 -2.66699 -42.167 -1.5 -52.5 3.5s-15.5 12.833 -15.5 23.5c0 7.33301 3.66699 13.5 11 18.5s21 8.16699 41 9.5l94 6
c22.667 1.33301 36.834 0.5 42.501 -2.5s8.5 -7.83301 8.5 -14.5c0 -11.333 -5 -20 -15 -26s-28.667 -10.333 -56 -13c-60 -174 -102.667 -294.5 -128 -361.5zM179.997 891c2.66699 -0.666992 5.33203 -1.66699 7.99902 -3s8 -6 16 -14
c9.33301 -10.667 22.666 -22 39.999 -34s33.666 -21 48.999 -27c10 -4.66699 16.667 -9.16699 20 -13.5s5 -10.166 5 -17.499c0 -6 -1.66699 -10.667 -5 -14s-7 -4.66602 -11 -3.99902c-3.33301 0 -7.16602 0.666992 -11.499 2s-9.16602 4 -14.499 8l-26.5 15
c-9 5.33301 -22.167 14 -39.5 26c-12 7.33301 -20.667 13.166 -26 17.499s-9.66602 9.16602 -12.999 14.499c-9.33301 11.333 -12.333 21.5 -9 30.5s9.33301 13.5 18 13.5z" />
    <glyph glyph-name="Iacute" unicode="&#xcd;" horiz-adv-x="342" 
d="M85 23l31.9971 -1c8.66699 -0.666992 15.834 -3.66699 21.501 -9s8.83398 -10.666 9.50098 -15.999c0 -6.66699 -4.16699 -12.334 -12.5 -17.001s-19.166 -7 -32.499 -7c-76 0 -123 2.66699 -141 8s-27 13.333 -27 24c0 7.33301 4.16699 13.166 12.5 17.499
s19.833 6.5 34.5 6.5c0.666992 0 0.166992 0 -1.5 0s13.166 -1 44.499 -3c30 62 70 159.333 120 292s87.333 239.334 112 320.001c-24.667 -2.66699 -42.167 -1.5 -52.5 3.5s-15.5 12.833 -15.5 23.5c0 7.33301 3.66699 13.5 11 18.5s21 8.16699 41 9.5l94 6
c22.667 1.33301 36.834 0.5 42.501 -2.5s8.5 -7.83301 8.5 -14.5c0 -11.333 -5 -20 -15 -26s-28.667 -10.333 -56 -13c-60 -174 -102.667 -294.5 -128 -361.5zM371.997 902c9.33301 0 15.668 -5.16797 19.001 -15.501s0.666016 -21.5 -8.00098 -33.5
c-6 -8.66699 -17.833 -20.167 -35.5 -34.5s-33.5 -26.166 -47.5 -35.499c-14.667 -10 -27.334 -13.5 -38.001 -10.5s-16 10.167 -16 21.5c0 6.66699 1.66699 12.167 5 16.5s11.333 9.16602 24 14.499c11.333 4 21.833 9.5 31.5 16.5s25.834 23.167 48.501 48.5
c4 4.66699 7.16699 7.83398 9.5 9.50098s4.83301 2.5 7.5 2.5z" />
    <glyph glyph-name="Icircumflex" unicode="&#xce;" horiz-adv-x="339" 
d="M85 23l31.9971 -1c8.66699 -0.666992 15.834 -3.66699 21.501 -9s8.83398 -10.666 9.50098 -15.999c0 -6.66699 -4.16699 -12.334 -12.5 -17.001s-19.166 -7 -32.499 -7c-76 0 -123 2.66699 -141 8s-27 13.333 -27 24c0 7.33301 4.16699 13.166 12.5 17.499
s19.833 6.5 34.5 6.5c0.666992 0 0.166992 0 -1.5 0s13.166 -1 44.499 -3c30 62 70 159.333 120 292s87.333 239.334 112 320.001c-24.667 -2.66699 -42.167 -1.5 -52.5 3.5s-15.5 12.833 -15.5 23.5c0 7.33301 3.66699 13.5 11 18.5s21 8.16699 41 9.5l94 6
c22.667 1.33301 36.834 0.5 42.501 -2.5s8.5 -7.83301 8.5 -14.5c0 -11.333 -5 -20 -15 -26s-28.667 -10.333 -56 -13c-60 -174 -102.667 -294.5 -128 -361.5zM298.997 864c-10 -7.33301 -19.3301 -14.5 -27.9971 -21.5s-17 -14.833 -25 -23.5
c-24.667 -24.667 -37.834 -37.334 -39.501 -38.001s-3.16699 -0.666992 -4.5 0c-6.66699 0 -11.334 1.83301 -14.001 5.5s-4 8.83398 -4 15.501c0 7.33301 6.66699 18.5 20 33.5s31 31.167 53 48.5c10 8 18.333 13.833 25 17.5s12 5.5 16 5.5c6 0 14.333 -3.33301 25 -10
s24 -16.667 40 -30c20 -18 34.833 -32.5 44.5 -43.5s14.5 -19.5 14.5 -25.5s-2.33301 -11 -7 -15s-9.33398 -6 -14.001 -6h-4c-1.33301 0 -15.333 13.667 -42 41c-8.66699 8 -17.667 15.833 -27 23.5s-19 15.167 -29 22.5z" />
    <glyph glyph-name="Idieresis" unicode="&#xcf;" horiz-adv-x="339" 
d="M85 23l31.9971 -1c8.66699 -0.666992 15.834 -3.66699 21.501 -9s8.83398 -10.666 9.50098 -15.999c0 -6.66699 -4.16699 -12.334 -12.5 -17.001s-19.166 -7 -32.499 -7c-76 0 -123 2.66699 -141 8s-27 13.333 -27 24c0 7.33301 4.16699 13.166 12.5 17.499
s19.833 6.5 34.5 6.5c0.666992 0 0.166992 0 -1.5 0s13.166 -1 44.499 -3c30 62 70 159.333 120 292s87.333 239.334 112 320.001c-24.667 -2.66699 -42.167 -1.5 -52.5 3.5s-15.5 12.833 -15.5 23.5c0 7.33301 3.66699 13.5 11 18.5s21 8.16699 41 9.5l94 6
c22.667 1.33301 36.834 0.5 42.501 -2.5s8.5 -7.83301 8.5 -14.5c0 -11.333 -5 -20 -15 -26s-28.667 -10.333 -56 -13c-60 -174 -102.667 -294.5 -128 -361.5zM232.997 863c2.66699 0 5.49902 -0.666992 8.49902 -2s5.83301 -3 8.5 -5c6 -6.66699 8.66699 -16.167 8 -28.5
s-4.33398 -21.833 -11.001 -28.5c-5.33301 -5.33301 -11.333 -8.5 -18 -9.5s-12.667 0.833008 -18 5.5c-4 2.66699 -7.16699 6.5 -9.5 11.5s-3.16602 11.167 -2.49902 18.5c0 4.66699 1 9.66699 3 15s5.33301 10 10 14c2.66699 2.66699 5.83398 4.66699 9.50098 6
s7.5 2.33301 11.5 3zM351.996 863c2.66699 -0.666992 5.50195 -1.49902 8.50195 -2.49902s5.83301 -2.16699 8.5 -3.5c7.33301 -8 9.16602 -19.5 5.49902 -34.5s-10.5 -24.833 -20.5 -29.5c-5.33301 -3.33301 -11 -4.5 -17 -3.5s-10.667 3.16699 -14 6.5
c-4.66699 4 -7.33398 10 -8.00098 18s0.666016 16.333 3.99902 25c2.66699 7.33301 6.83398 13.166 12.501 17.499s12.5 6.5 20.5 6.5z" />
    <glyph glyph-name="Eth" unicode="&#xd0;" horiz-adv-x="901" 
d="M345 340l16.0039 37.001c6 14.667 19 44 39 88s33 76.333 39 97c8 28 15.5 45.833 22.5 53.5s16.167 11.5 27.5 11.5c9.33301 0 16.666 -3.33301 21.999 -10s8 -15 8 -25c0 -7.33301 -5.33301 -18.833 -16 -34.5s-18.334 -28.5 -23.001 -38.5
c-6.66699 -14 -17.5 -38.833 -32.5 -74.5l-44.5 -103.5c84 5.33301 125.667 7.83301 125 7.5s1 -0.166016 5 0.500977c24 0 40.333 -2.16699 49 -6.5s13 -10.833 13 -19.5c0 -7.33301 -2.33301 -12.666 -7 -15.999s-11.334 -5 -20.001 -5c-2 -0.666992 -2.5 -1 -1.5 -1
s-58.833 0.333008 -179.5 1c-12 -28 -22.833 -55.667 -32.5 -83s-18.5 -54.666 -26.5 -81.999c-8.66699 -29.333 -13.5 -51.666 -14.5 -66.999s2.83301 -25.333 11.5 -30c14 -7.33301 37.167 -10.333 69.5 -9s63.833 7.33301 94.5 18c55.333 19.333 107 51 155 95
s82 94 102 150c33.333 95.333 23 182.166 -31 260.499s-136 117.5 -246 117.5c-102 0 -199.5 -34.167 -292.5 -102.5s-129.5 -134.833 -109.5 -199.5c4.66699 -16.667 13.334 -30 26.001 -40s30.334 -17.667 53.001 -23c13.333 -4 22.5 -8.5 27.5 -13.5
s7.5 -10.833 7.5 -17.5c0 -5.33301 -4.16699 -9.5 -12.5 -12.5s-18.5 -2.83301 -30.5 0.5c-60.667 14 -100.334 42.5 -119.001 85.5s-10.667 92.167 24 147.5c27.333 43.333 68.5 84 123.5 122s114.167 65 177.5 81c40 10 80.167 15.5 120.5 16.5s76.5 -2.16699 108.5 -9.5
c60 -14.667 111 -43.834 153 -87.501s69.333 -94.834 82 -153.501c6 -32 7.66699 -64.333 5 -97s-10 -65.334 -22 -98.001c-27.333 -71.333 -72.333 -131.833 -135 -181.5s-127.334 -81.5 -194.001 -95.5c-60 -12.667 -110.5 -12.834 -151.5 -0.500977
s-61.167 29.833 -60.5 52.5c0 4 2.5 13.5 7.5 28.5s9.16699 29.167 12.5 42.5c5.33301 23.333 13.5 52.333 24.5 87s22.5 67 34.5 97h-28c-12.667 -0.666992 -22.334 1.5 -29.001 6.5s-10 10.833 -10 17.5c0 4.66699 3 9 9 13s13.333 6 22 6z" />
    <glyph glyph-name="Ntilde" unicode="&#xd1;" horiz-adv-x="904" 
d="M476 172l84.0029 127.007c22.667 34.667 47.334 69.667 74.001 105s49.334 63 68.001 83c13.333 14 26 24.167 38 30.5s24 9.5 36 9.5c15.333 0 26 -7.5 32 -22.5s6 -34.833 0 -59.5l-42 -163c-8 -31.333 -16.333 -69 -25 -113c-10 -47.333 -13.333 -81.5 -10 -102.5
s12.333 -33.167 27 -36.5c23.333 -6.66699 35.333 -10.667 36 -12s1 -2.66602 1 -3.99902c0 -8.66699 -3.83301 -15.834 -11.5 -21.501s-17.5 -8.5 -29.5 -8.5c-31.333 0 -52 14.167 -62 42.5s-10.333 70.833 -1 127.5c1.33301 12 3.5 25.667 6.5 41
s18.167 82.666 45.5 201.999c6.66699 31.333 10.167 47.666 10.5 48.999s0.5 2.66602 0.5 3.99902c-0.666992 6.66699 -1.16699 10.334 -1.5 11.001l-0.5 1c-4 0 -9.5 -2.66699 -16.5 -8s-13.5 -11.666 -19.5 -18.999c-34.667 -38.667 -73.5 -89.334 -116.5 -152.001
s-77.833 -119 -104.5 -169c-22.667 -42.667 -39.167 -69.334 -49.5 -80.001s-20.5 -16 -30.5 -16c-10.667 0 -18.5 2.16699 -23.5 6.5s-7.16699 10.833 -6.5 19.5c0 8 1.5 17.167 4.5 27.5s15.833 42.166 38.5 95.499c28.667 67.333 57.667 143.5 87 228.5
s47.333 147.5 54 187.5c7.33301 51.333 3.16602 88.666 -12.501 111.999s-41.834 35 -78.501 35c-67.333 0 -150.333 -41.833 -249 -125.5s-148 -166.834 -148 -249.501c-0.666992 -37.333 12.166 -66.833 38.499 -88.5s60.166 -32.5 101.499 -32.5
c14.667 0 31.834 1.83301 51.501 5.5s36.5 8.83398 50.5 15.501c16 6.66699 28.333 9.5 37 8.5s13 -6.5 13 -16.5c0 -9.33301 -4.5 -17.5 -13.5 -24.5s-23.167 -13.167 -42.5 -18.5c-96 -26.667 -173.5 -19 -232.5 23s-76.833 104.333 -53.5 187
c17.333 60.667 60.166 125 128.499 193s140.833 117 217.5 147c92 36 159.833 33.5 203.5 -7.5s51.167 -116.5 22.5 -226.5c-8 -28.667 -15.833 -54.834 -23.5 -78.501s-30.834 -84.834 -69.501 -183.501zM902.003 834.007
c-0.666992 -8.66699 -5.33398 -15.9971 -14.001 -21.9971s-20.667 -9 -36 -9c-9.33301 0 -18.666 1.16699 -27.999 3.5s-26 9.16602 -50 20.499c-16 7.33301 -28.167 12.5 -36.5 15.5s-15.5 4.5 -21.5 4.5c-8.66699 0 -16.167 -1.83301 -22.5 -5.5
s-13.5 -9.83398 -21.5 -18.501c-4 -4.66699 -7.66699 -7.83398 -11 -9.50098s-6.33301 -2.5 -9 -2.5c-7.33301 0 -12 4.5 -14 13.5s0.333008 18.5 7 28.5c10 16 25.333 26.667 46 32s43.334 4 68.001 -4c63.333 -22.667 95.166 -34 95.499 -34s4.16602 1.33301 11.499 4
c10.667 4 19.334 4.16699 26.001 0.5s10 -9.5 10 -17.5z" />
    <glyph glyph-name="Ograve" unicode="&#xd2;" horiz-adv-x="701" 
d="M67 271c-25.333 86 -14.501 171.833 32.499 257.5s111.167 144.5 192.5 176.5c80.667 31.333 154.334 28.5 221.001 -8.5s108 -94.167 124 -171.5c7.33301 -37.333 8.33301 -80.333 3 -129s-16.666 -95.667 -33.999 -141c-26.667 -70.667 -64 -132.834 -112 -186.501
s-101 -91.167 -159 -112.5c-82 -29.333 -151.167 -25 -207.5 13s-84.5 97 -84.5 177c-0.666992 19.333 1.16602 39.833 5.49902 61.5s10.5 42.834 18.5 63.501zM111.999 375l21.999 39.999c29.333 53.333 61.833 98.333 97.5 135s69.5 61.334 101.5 74.001
c26 10 49.833 12.833 71.5 8.5s32.5 -12.5 32.5 -24.5c0 -6.66699 -2 -12 -6 -16s-9.33301 -6.33301 -16 -7c-64 -10.667 -95.833 -15.834 -95.5 -15.501s-1.83398 -1.16699 -6.50098 -4.5c-26.667 -18.667 -53.5 -45.334 -80.5 -80.001s-50.833 -73 -71.5 -115
c-10 -20 -17.667 -36.667 -23 -50s-10 -27.666 -14 -42.999c12.667 -50.667 45.5 -86.667 98.5 -108s109.167 -19.333 168.5 6c10.667 4 20.334 6 29.001 6s13 -3.66699 13 -11c-0.666992 -10.667 -3.33398 -18.334 -8.00098 -23.001s-12 -8.66699 -22 -12
c-23.333 -8 -43 -13.167 -59 -15.5s-32.667 -3.5 -50 -3.5c-40.667 -0.666992 -76.667 6.5 -108 21.5s-59 38.167 -83 69.5c-9.33301 -27.333 -12.666 -56.166 -9.99902 -86.499s11 -55.166 25 -74.499c12 -18.667 27.333 -33 46 -43s38 -15 58 -15
c22.667 0.666992 44.334 2.83398 65.001 6.50098s39.667 9.83398 57 18.501c46.667 21.333 90.167 57.666 130.5 108.999s71.166 108.666 92.499 171.999c8 24 14.333 48.667 19 74s7 50 7 74c0 89.333 -25.667 153.5 -77 192.5s-110 49.833 -176 32.5
c-36 -10 -70.167 -27.5 -102.5 -52.5s-58.833 -54.167 -79.5 -87.5c-15.333 -24 -26.666 -48.667 -33.999 -74s-11.333 -51.333 -12 -78zM308.998 922.999c2.66699 -0.666992 5.33203 -1.66699 7.99902 -3s8 -6 16 -14c9.33301 -10.667 22.666 -22 39.999 -34
s33.666 -21 48.999 -27c10 -4.66699 16.667 -9.16699 20 -13.5s5 -10.166 5 -17.499c0 -6 -1.66699 -10.667 -5 -14s-7 -4.66602 -11 -3.99902c-3.33301 0 -7.16602 0.666992 -11.499 2s-9.16602 4 -14.499 8l-26.5 15c-9 5.33301 -22.167 14 -39.5 26
c-12 7.33301 -20.667 13.166 -26 17.499s-9.66602 9.16602 -12.999 14.499c-9.33301 11.333 -12.333 21.5 -9 30.5s9.33301 13.5 18 13.5z" />
    <glyph glyph-name="Oacute" unicode="&#xd3;" horiz-adv-x="701" 
d="M67 271c-25.333 86 -14.501 171.833 32.499 257.5s111.167 144.5 192.5 176.5c80.667 31.333 154.334 28.5 221.001 -8.5s108 -94.167 124 -171.5c7.33301 -37.333 8.33301 -80.333 3 -129s-16.666 -95.667 -33.999 -141c-26.667 -70.667 -64 -132.834 -112 -186.501
s-101 -91.167 -159 -112.5c-82 -29.333 -151.167 -25 -207.5 13s-84.5 97 -84.5 177c-0.666992 19.333 1.16602 39.833 5.49902 61.5s10.5 42.834 18.5 63.501zM111.999 375l21.999 39.999c29.333 53.333 61.833 98.333 97.5 135s69.5 61.334 101.5 74.001
c26 10 49.833 12.833 71.5 8.5s32.5 -12.5 32.5 -24.5c0 -6.66699 -2 -12 -6 -16s-9.33301 -6.33301 -16 -7c-64 -10.667 -95.833 -15.834 -95.5 -15.501s-1.83398 -1.16699 -6.50098 -4.5c-26.667 -18.667 -53.5 -45.334 -80.5 -80.001s-50.833 -73 -71.5 -115
c-10 -20 -17.667 -36.667 -23 -50s-10 -27.666 -14 -42.999c12.667 -50.667 45.5 -86.667 98.5 -108s109.167 -19.333 168.5 6c10.667 4 20.334 6 29.001 6s13 -3.66699 13 -11c-0.666992 -10.667 -3.33398 -18.334 -8.00098 -23.001s-12 -8.66699 -22 -12
c-23.333 -8 -43 -13.167 -59 -15.5s-32.667 -3.5 -50 -3.5c-40.667 -0.666992 -76.667 6.5 -108 21.5s-59 38.167 -83 69.5c-9.33301 -27.333 -12.666 -56.166 -9.99902 -86.499s11 -55.166 25 -74.499c12 -18.667 27.333 -33 46 -43s38 -15 58 -15
c22.667 0.666992 44.334 2.83398 65.001 6.50098s39.667 9.83398 57 18.501c46.667 21.333 90.167 57.666 130.5 108.999s71.166 108.666 92.499 171.999c8 24 14.333 48.667 19 74s7 50 7 74c0 89.333 -25.667 153.5 -77 192.5s-110 49.833 -176 32.5
c-36 -10 -70.167 -27.5 -102.5 -52.5s-58.833 -54.167 -79.5 -87.5c-15.333 -24 -26.666 -48.667 -33.999 -74s-11.333 -51.333 -12 -78zM525.998 928.999c9.33301 0 15.668 -5.16797 19.001 -15.501s0.666016 -21.5 -8.00098 -33.5
c-6 -8.66699 -17.833 -20.167 -35.5 -34.5s-33.5 -26.166 -47.5 -35.499c-14.667 -10 -27.334 -13.5 -38.001 -10.5s-16 10.167 -16 21.5c0 6.66699 1.66699 12.167 5 16.5s11.333 9.16602 24 14.499c11.333 4 21.833 9.5 31.5 16.5s25.834 23.167 48.501 48.5
c4 4.66699 7.16699 7.83398 9.5 9.50098s4.83301 2.5 7.5 2.5z" />
    <glyph glyph-name="Ocircumflex" unicode="&#xd4;" horiz-adv-x="701" 
d="M67 271c-25.333 86 -14.501 171.833 32.499 257.5s111.167 144.5 192.5 176.5c80.667 31.333 154.334 28.5 221.001 -8.5s108 -94.167 124 -171.5c7.33301 -37.333 8.33301 -80.333 3 -129s-16.666 -95.667 -33.999 -141c-26.667 -70.667 -64 -132.834 -112 -186.501
s-101 -91.167 -159 -112.5c-82 -29.333 -151.167 -25 -207.5 13s-84.5 97 -84.5 177c-0.666992 19.333 1.16602 39.833 5.49902 61.5s10.5 42.834 18.5 63.501zM111.999 375l21.999 39.999c29.333 53.333 61.833 98.333 97.5 135s69.5 61.334 101.5 74.001
c26 10 49.833 12.833 71.5 8.5s32.5 -12.5 32.5 -24.5c0 -6.66699 -2 -12 -6 -16s-9.33301 -6.33301 -16 -7c-64 -10.667 -95.833 -15.834 -95.5 -15.501s-1.83398 -1.16699 -6.50098 -4.5c-26.667 -18.667 -53.5 -45.334 -80.5 -80.001s-50.833 -73 -71.5 -115
c-10 -20 -17.667 -36.667 -23 -50s-10 -27.666 -14 -42.999c12.667 -50.667 45.5 -86.667 98.5 -108s109.167 -19.333 168.5 6c10.667 4 20.334 6 29.001 6s13 -3.66699 13 -11c-0.666992 -10.667 -3.33398 -18.334 -8.00098 -23.001s-12 -8.66699 -22 -12
c-23.333 -8 -43 -13.167 -59 -15.5s-32.667 -3.5 -50 -3.5c-40.667 -0.666992 -76.667 6.5 -108 21.5s-59 38.167 -83 69.5c-9.33301 -27.333 -12.666 -56.166 -9.99902 -86.499s11 -55.166 25 -74.499c12 -18.667 27.333 -33 46 -43s38 -15 58 -15
c22.667 0.666992 44.334 2.83398 65.001 6.50098s39.667 9.83398 57 18.501c46.667 21.333 90.167 57.666 130.5 108.999s71.166 108.666 92.499 171.999c8 24 14.333 48.667 19 74s7 50 7 74c0 89.333 -25.667 153.5 -77 192.5s-110 49.833 -176 32.5
c-36 -10 -70.167 -27.5 -102.5 -52.5s-58.833 -54.167 -79.5 -87.5c-15.333 -24 -26.666 -48.667 -33.999 -74s-11.333 -51.333 -12 -78zM423.998 873.999c-10 -7.33301 -19.3301 -14.5 -27.9971 -21.5s-17 -14.833 -25 -23.5
c-24.667 -24.667 -37.834 -37.334 -39.501 -38.001s-3.16699 -0.666992 -4.5 0c-6.66699 0 -11.334 1.83301 -14.001 5.5s-4 8.83398 -4 15.501c0 7.33301 6.66699 18.5 20 33.5s31 31.167 53 48.5c10 8 18.333 13.833 25 17.5s12 5.5 16 5.5c6 0 14.333 -3.33301 25 -10
s24 -16.667 40 -30c20 -18 34.833 -32.5 44.5 -43.5s14.5 -19.5 14.5 -25.5s-2.33301 -11 -7 -15s-9.33398 -6 -14.001 -6h-4c-1.33301 0 -15.333 13.667 -42 41c-8.66699 8 -17.667 15.833 -27 23.5s-19 15.167 -29 22.5z" />
    <glyph glyph-name="Otilde" unicode="&#xd5;" horiz-adv-x="701" 
d="M67 271c-25.333 86 -14.501 171.833 32.499 257.5s111.167 144.5 192.5 176.5c80.667 31.333 154.334 28.5 221.001 -8.5s108 -94.167 124 -171.5c7.33301 -37.333 8.33301 -80.333 3 -129s-16.666 -95.667 -33.999 -141c-26.667 -70.667 -64 -132.834 -112 -186.501
s-101 -91.167 -159 -112.5c-82 -29.333 -151.167 -25 -207.5 13s-84.5 97 -84.5 177c-0.666992 19.333 1.16602 39.833 5.49902 61.5s10.5 42.834 18.5 63.501zM111.999 375l21.999 39.999c29.333 53.333 61.833 98.333 97.5 135s69.5 61.334 101.5 74.001
c26 10 49.833 12.833 71.5 8.5s32.5 -12.5 32.5 -24.5c0 -6.66699 -2 -12 -6 -16s-9.33301 -6.33301 -16 -7c-64 -10.667 -95.833 -15.834 -95.5 -15.501s-1.83398 -1.16699 -6.50098 -4.5c-26.667 -18.667 -53.5 -45.334 -80.5 -80.001s-50.833 -73 -71.5 -115
c-10 -20 -17.667 -36.667 -23 -50s-10 -27.666 -14 -42.999c12.667 -50.667 45.5 -86.667 98.5 -108s109.167 -19.333 168.5 6c10.667 4 20.334 6 29.001 6s13 -3.66699 13 -11c-0.666992 -10.667 -3.33398 -18.334 -8.00098 -23.001s-12 -8.66699 -22 -12
c-23.333 -8 -43 -13.167 -59 -15.5s-32.667 -3.5 -50 -3.5c-40.667 -0.666992 -76.667 6.5 -108 21.5s-59 38.167 -83 69.5c-9.33301 -27.333 -12.666 -56.166 -9.99902 -86.499s11 -55.166 25 -74.499c12 -18.667 27.333 -33 46 -43s38 -15 58 -15
c22.667 0.666992 44.334 2.83398 65.001 6.50098s39.667 9.83398 57 18.501c46.667 21.333 90.167 57.666 130.5 108.999s71.166 108.666 92.499 171.999c8 24 14.333 48.667 19 74s7 50 7 74c0 89.333 -25.667 153.5 -77 192.5s-110 49.833 -176 32.5
c-36 -10 -70.167 -27.5 -102.5 -52.5s-58.833 -54.167 -79.5 -87.5c-15.333 -24 -26.666 -48.667 -33.999 -74s-11.333 -51.333 -12 -78zM564.998 843.999c-0.666992 -8.66699 -5.33398 -15.9971 -14.001 -21.9971s-20.667 -9 -36 -9
c-9.33301 0 -18.666 1.16699 -27.999 3.5s-26 9.16602 -50 20.499c-16 7.33301 -28.167 12.5 -36.5 15.5s-15.5 4.5 -21.5 4.5c-8.66699 0 -16.167 -1.83301 -22.5 -5.5s-13.5 -9.83398 -21.5 -18.501c-4 -4.66699 -7.66699 -7.83398 -11 -9.50098s-6.33301 -2.5 -9 -2.5
c-7.33301 0 -12 4.5 -14 13.5s0.333008 18.5 7 28.5c10 16 25.333 26.667 46 32s43.334 4 68.001 -4c63.333 -22.667 95.166 -34 95.499 -34s4.16602 1.33301 11.499 4c10.667 4 19.334 4.16699 26.001 0.5s10 -9.5 10 -17.5z" />
    <glyph glyph-name="Odieresis" unicode="&#xd6;" horiz-adv-x="701" 
d="M67 271c-25.333 86 -14.501 171.833 32.499 257.5s111.167 144.5 192.5 176.5c80.667 31.333 154.334 28.5 221.001 -8.5s108 -94.167 124 -171.5c7.33301 -37.333 8.33301 -80.333 3 -129s-16.666 -95.667 -33.999 -141c-26.667 -70.667 -64 -132.834 -112 -186.501
s-101 -91.167 -159 -112.5c-82 -29.333 -151.167 -25 -207.5 13s-84.5 97 -84.5 177c-0.666992 19.333 1.16602 39.833 5.49902 61.5s10.5 42.834 18.5 63.501zM111.999 375l21.999 39.999c29.333 53.333 61.833 98.333 97.5 135s69.5 61.334 101.5 74.001
c26 10 49.833 12.833 71.5 8.5s32.5 -12.5 32.5 -24.5c0 -6.66699 -2 -12 -6 -16s-9.33301 -6.33301 -16 -7c-64 -10.667 -95.833 -15.834 -95.5 -15.501s-1.83398 -1.16699 -6.50098 -4.5c-26.667 -18.667 -53.5 -45.334 -80.5 -80.001s-50.833 -73 -71.5 -115
c-10 -20 -17.667 -36.667 -23 -50s-10 -27.666 -14 -42.999c12.667 -50.667 45.5 -86.667 98.5 -108s109.167 -19.333 168.5 6c10.667 4 20.334 6 29.001 6s13 -3.66699 13 -11c-0.666992 -10.667 -3.33398 -18.334 -8.00098 -23.001s-12 -8.66699 -22 -12
c-23.333 -8 -43 -13.167 -59 -15.5s-32.667 -3.5 -50 -3.5c-40.667 -0.666992 -76.667 6.5 -108 21.5s-59 38.167 -83 69.5c-9.33301 -27.333 -12.666 -56.166 -9.99902 -86.499s11 -55.166 25 -74.499c12 -18.667 27.333 -33 46 -43s38 -15 58 -15
c22.667 0.666992 44.334 2.83398 65.001 6.50098s39.667 9.83398 57 18.501c46.667 21.333 90.167 57.666 130.5 108.999s71.166 108.666 92.499 171.999c8 24 14.333 48.667 19 74s7 50 7 74c0 89.333 -25.667 153.5 -77 192.5s-110 49.833 -176 32.5
c-36 -10 -70.167 -27.5 -102.5 -52.5s-58.833 -54.167 -79.5 -87.5c-15.333 -24 -26.666 -48.667 -33.999 -74s-11.333 -51.333 -12 -78zM388.998 884.999c2.66699 0 5.49902 -0.666992 8.49902 -2s5.83301 -3 8.5 -5c6 -6.66699 8.66699 -16.167 8 -28.5
s-4.33398 -21.833 -11.001 -28.5c-5.33301 -5.33301 -11.333 -8.5 -18 -9.5s-12.667 0.833008 -18 5.5c-4 2.66699 -7.16699 6.5 -9.5 11.5s-3.16602 11.167 -2.49902 18.5c0 4.66699 1 9.66699 3 15s5.33301 10 10 14c2.66699 2.66699 5.83398 4.66699 9.50098 6
s7.5 2.33301 11.5 3zM507.997 884.999c2.66699 -0.666992 5.50195 -1.49902 8.50195 -2.49902s5.83301 -2.16699 8.5 -3.5c7.33301 -8 9.16602 -19.5 5.49902 -34.5s-10.5 -24.833 -20.5 -29.5c-5.33301 -3.33301 -11 -4.5 -17 -3.5s-10.667 3.16699 -14 6.5
c-4.66699 4 -7.33398 10 -8.00098 18s0.666016 16.333 3.99902 25c2.66699 7.33301 6.83398 13.166 12.501 17.499s12.5 6.5 20.5 6.5z" />
    <glyph glyph-name="multiply" unicode="&#xd7;" horiz-adv-x="444" 
d="M263 320l-35.0029 -31c20.667 -28 33.334 -45.5 38.001 -52.5s8.33398 -12.833 11.001 -17.5c6.66699 -15.333 8.16699 -29 4.5 -41s-10.167 -18 -19.5 -18c-4 0 -7.66699 1.5 -11 4.5s-6.66602 8.5 -9.99902 16.5c-6 12 -12.167 23.667 -18.5 35
s-14.833 25.333 -25.5 42c-60.667 -51.333 -96.334 -80.166 -107.001 -86.499s-19.334 -9.5 -26.001 -9.5c-4 0 -7 1 -9 3s-3 5 -3 9c-0.666992 4 0.5 8.5 3.5 13.5s41.167 39.167 114.5 102.5c-22.667 31.333 -37.5 53.833 -44.5 67.5s-10.5 25.167 -10.5 34.5
c0 10.667 3.83301 19.167 11.5 25.5s15.834 4.5 24.501 -5.5l2 -3l15 -28c2 -4.66699 5.16699 -10.167 9.5 -16.5l8.5 -12.5l17 -28c36 34 64.333 59.333 85 76s36 25 46 25c8.66699 0 14.5 -3.5 17.5 -10.5s0.833008 -14.833 -6.5 -23.5l-3 -3
c-0.666992 -0.666992 -10.334 -8.66699 -29.001 -24c-1.33301 -0.666992 -1.16602 -0.333984 0.500977 0.999023s-15.166 -13.667 -50.499 -45z" />
    <glyph glyph-name="Oslash" unicode="&#xd8;" horiz-adv-x="696" 
d="M445 756c30.667 0 58.1641 -5.50098 82.4971 -16.501s45.5 -26.167 63.5 -45.5c48.667 58.667 71.834 88 69.501 88s-2.5 0 -0.5 0c8.66699 0 15.667 -2.5 21 -7.5s8 -10.167 8 -15.5c0 -10.667 -6.16699 -25.167 -18.5 -43.5s-29.166 -39.166 -50.499 -62.499
c12.667 -28.667 22 -57.5 28 -86.5s9 -59.833 9 -92.5c0 -136.667 -40.167 -255.334 -120.5 -356.001s-177.166 -151 -290.499 -151c-28.667 0 -53 3.33301 -73 10s-38.667 16.667 -56 30c-42 -54.667 -62.667 -82 -62 -82s0.333984 0 -0.999023 0
c-10.667 0 -18.5 2.16699 -23.5 6.5s-7.5 10.166 -7.5 17.499c0 10.667 4.5 24 13.5 40s22.5 36 40.5 60c-22.667 35.333 -35.834 75.833 -39.501 121.5s1.5 95.834 15.5 150.501c22 88.667 62 173.334 120 254.001s119.333 134.667 184 162c14 6 28.333 10.667 43 14
s29.667 5 45 5zM424.997 713.999c-12.667 0 -26.1689 -3 -40.502 -9s-31.5 -16.333 -51.5 -31c-43.333 -32 -86 -80.167 -128 -144.5s-73.667 -131.166 -95 -200.499c-16 -50.667 -24.5 -95.834 -25.5 -135.501s6.83301 -73.5 23.5 -101.5l79 110.5
c26 35 150.667 184.833 374 449.5c-8 12 -17.667 22.667 -29 32s-24.666 17 -39.999 23c-7.33301 2 -15.166 3.66699 -23.499 5s-22.833 2 -43.5 2zM587.995 612.999c-152 -178 -250.998 -297.497 -296.998 -358.497s-95 -129.833 -147 -206.5
c25.333 -21.333 57.666 -32.333 96.999 -33s77.666 7.66602 114.999 24.999c55.333 25.333 106 71.333 152 138s76.667 141 92 223c6.66699 37.333 9.16699 73.166 7.5 107.499s-8.16699 69.166 -19.5 104.499z" />
    </font>
</defs>
</svg>
